<svg xmlns="http://www.w3.org/2000/svg" xmlns:xlink="http://www.w3.org/1999/xlink" viewBox="0,0,256,256" width="50px" height="50px" fill-rule="nonzero"><g fill="#20c997" fill-rule="nonzero" stroke="none" stroke-width="1" stroke-linecap="butt" stroke-linejoin="miter" stroke-miterlimit="10" stroke-dasharray="" stroke-dashoffset="0" font-family="none" font-weight="none" font-size="none" text-anchor="none" style="mix-blend-mode: normal"><g transform="scale(5.12,5.12)"><path d="M7,3v44h36v-44zM23,5h4v2h-2v2h2v4h-2v2h2v4h-2v2h2v2h-4v-5h2v-2h-2v-4h2v-2h-2zM23,25h4c0.55078,0 1,0.44922 1,1v1c0,0.55078 -0.44922,1 -1,1h-4c-0.55078,0 -1,-0.44922 -1,-1v-1c0,-0.55078 0.44922,-1 1,-1zM23.00391,30h3.99219c0.44531,1.79297 1.00391,4.14844 1.00391,4.96094c0,1.67188 -1.35156,3.03906 -3,3.03906c-1.64844,0 -3,-1.36719 -3,-3.03906c0,-0.8125 0.55859,-3.16797 1.00391,-4.96094zM25,34c-0.54297,0 -0.98828,0.44922 -0.98437,1c-0.00391,0.55078 0.44141,1 0.98438,1c0.54297,0 0.98828,-0.44922 0.98438,-1c0.00391,-0.55078 -0.44141,-1 -0.98437,-1z"></path></g></g></svg>