<svg fill="#C850F2" xmlns="http://www.w3.org/2000/svg"  viewBox="0 0 48 48" width="96px" height="96px"><path d="M 24.216797 7.1015625 C 24.084935 7.1013567 23.952471 7.1110209 23.820312 7.1289062 C 23.29168 7.2004472 22.770296 7.4185563 22.339844 7.8007812 A 1.50015 1.50015 0 0 0 22.339844 7.8027344 L 13.117188 16 L 6.5 16 C 4.0324991 16 2 18.032499 2 20.5 L 2 27.5 C 2 29.967501 4.0324991 32 6.5 32 L 13.117188 32 L 22.339844 40.197266 C 23.200649 40.96254 24.421458 41.075139 25.345703 40.660156 C 26.269948 40.245173 27 39.257378 27 38.105469 L 27 9.8945312 C 27 8.7430679 26.271967 7.7549754 25.347656 7.3398438 C 25.00104 7.1841693 24.612384 7.10218 24.216797 7.1015625 z M 40.21875 7.9824219 A 1.50015 1.50015 0 0 0 38.992188 10.251953 C 44.374902 19.537137 44.394285 28.463914 38.994141 37.746094 A 1.50015 1.50015 0 1 0 41.585938 39.253906 C 47.425745 29.216086 47.405128 18.782863 41.587891 8.7480469 A 1.50015 1.50015 0 0 0 40.21875 7.9824219 z M 35.755859 11.980469 A 1.50015 1.50015 0 0 0 34.429688 14.193359 C 37.888956 20.818098 37.888956 27.181902 34.429688 33.806641 A 1.50015 1.50015 0 1 0 37.089844 35.193359 C 40.930574 27.838098 40.930574 20.161902 37.089844 12.806641 A 1.50015 1.50015 0 0 0 35.755859 11.980469 z M 31.171875 16.996094 A 1.50015 1.50015 0 0 0 29.880859 19.138672 C 31.397398 22.45712 31.395303 25.559819 29.873047 28.878906 A 1.50015 1.50015 0 1 0 32.599609 30.130859 C 34.437342 26.123947 34.440802 21.898177 32.609375 17.890625 A 1.50015 1.50015 0 0 0 31.171875 16.996094 z"/></svg>