<svg xmlns="http://www.w3.org/2000/svg" xmlns:xlink="http://www.w3.org/1999/xlink" viewBox="0,0,256,256" width="32px" height="32px" fill-rule="nonzero"><g fill="#20c997" fill-rule="nonzero" stroke="none" stroke-width="1" stroke-linecap="butt" stroke-linejoin="miter" stroke-miterlimit="10" stroke-dasharray="" stroke-dashoffset="0" font-family="none" font-weight="none" font-size="none" text-anchor="none" style="mix-blend-mode: normal"><g transform="scale(8,8)"><path d="M13,2l-4.5,2l4.5,2l4.5,-2zM3,3c-0.55273,0 -1,0.44727 -1,1c0,0.55273 0.44727,1 1,1h3c0.55273,0 1,-0.44727 1,-1c0,-0.55273 -0.44727,-1 -1,-1zM19,3v6h11v-3c0,-1.6543 -1.3457,-3 -3,-3zM8,5v4.34961c0,0.3952 0.2326,0.75354 0.59375,0.91406l3.90625,1.73633v-5zM18,5l-4.5,2v5l3.90625,-1.73633c0.36115,-0.16052 0.59375,-0.51886 0.59375,-0.91406zM20.5,5c0.27637,0 0.5,0.22363 0.5,0.5v1c0,0.27637 -0.22363,0.5 -0.5,0.5c-0.27637,0 -0.5,-0.22363 -0.5,-0.5v-1c0,-0.27637 0.22363,-0.5 0.5,-0.5zM22.5,5c0.27637,0 0.5,0.22363 0.5,0.5v1c0,0.27637 -0.22363,0.5 -0.5,0.5c-0.27637,0 -0.5,-0.22363 -0.5,-0.5v-1c0,-0.27637 0.22363,-0.5 0.5,-0.5zM24.5,5c0.27637,0 0.5,0.22363 0.5,0.5v1c0,0.27637 -0.22363,0.5 -0.5,0.5c-0.27637,0 -0.5,-0.22363 -0.5,-0.5v-1c0,-0.27637 0.22363,-0.5 0.5,-0.5zM26.5,5c0.27637,0 0.5,0.22363 0.5,0.5v1c0,0.27637 -0.22363,0.5 -0.5,0.5c-0.27637,0 -0.5,-0.22363 -0.5,-0.5v-1c0,-0.27637 0.22363,-0.5 0.5,-0.5zM3,6c-0.55273,0 -1,0.44727 -1,1c0,0.55273 0.44727,1 1,1h3c0.55273,0 1,-0.44727 1,-1c0,-0.55273 -0.44727,-1 -1,-1zM3,9c-0.55273,0 -1,0.44727 -1,1c0,0.55273 0.44727,1 1,1h3c0.55273,0 1,-0.44727 1,-1c0,-0.55273 -0.44727,-1 -1,-1zM18.88086,10c-0.17859,0.51477 -0.55566,0.94928 -1.07031,1.17773l-4.81055,2.13867l-3,-1.33398v4.01758h20v-6zM20.5,12c0.27637,0 0.5,0.22363 0.5,0.5v1c0,0.27637 -0.22363,0.5 -0.5,0.5c-0.27637,0 -0.5,-0.22363 -0.5,-0.5v-1c0,-0.27637 0.22363,-0.5 0.5,-0.5zM22.5,12c0.27637,0 0.5,0.22363 0.5,0.5v1c0,0.27637 -0.22363,0.5 -0.5,0.5c-0.27637,0 -0.5,-0.22363 -0.5,-0.5v-1c0,-0.27637 0.22363,-0.5 0.5,-0.5zM24.5,12c0.27637,0 0.5,0.22363 0.5,0.5v1c0,0.27637 -0.22363,0.5 -0.5,0.5c-0.27637,0 -0.5,-0.22363 -0.5,-0.5v-1c0,-0.27637 0.22363,-0.5 0.5,-0.5zM26.5,12c0.27637,0 0.5,0.22363 0.5,0.5v1c0,0.27637 -0.22363,0.5 -0.5,0.5c-0.27637,0 -0.5,-0.22363 -0.5,-0.5v-1c0,-0.27637 0.22363,-0.5 0.5,-0.5zM10,17v6h20v-6zM20.5,19c0.27637,0 0.5,0.22363 0.5,0.5v1c0,0.27637 -0.22363,0.5 -0.5,0.5c-0.27637,0 -0.5,-0.22363 -0.5,-0.5v-1c0,-0.27637 0.22363,-0.5 0.5,-0.5zM22.5,19c0.27637,0 0.5,0.22363 0.5,0.5v1c0,0.27637 -0.22363,0.5 -0.5,0.5c-0.27637,0 -0.5,-0.22363 -0.5,-0.5v-1c0,-0.27637 0.22363,-0.5 0.5,-0.5zM24.5,19c0.27637,0 0.5,0.22363 0.5,0.5v1c0,0.27637 -0.22363,0.5 -0.5,0.5c-0.27637,0 -0.5,-0.22363 -0.5,-0.5v-1c0,-0.27637 0.22363,-0.5 0.5,-0.5zM26.5,19c0.27637,0 0.5,0.22363 0.5,0.5v1c0,0.27637 -0.22363,0.5 -0.5,0.5c-0.27637,0 -0.5,-0.22363 -0.5,-0.5v-1c0,-0.27637 0.22363,-0.5 0.5,-0.5zM10,24v3c0,1.6543 1.3457,3 3,3h14c1.6543,0 3,-1.3457 3,-3v-3zM20.5,26c0.27637,0 0.5,0.22363 0.5,0.5v1c0,0.27637 -0.22363,0.5 -0.5,0.5c-0.27637,0 -0.5,-0.22363 -0.5,-0.5v-1c0,-0.27637 0.22363,-0.5 0.5,-0.5zM22.5,26c0.27637,0 0.5,0.22363 0.5,0.5v1c0,0.27637 -0.22363,0.5 -0.5,0.5c-0.27637,0 -0.5,-0.22363 -0.5,-0.5v-1c0,-0.27637 0.22363,-0.5 0.5,-0.5zM24.5,26c0.27637,0 0.5,0.22363 0.5,0.5v1c0,0.27637 -0.22363,0.5 -0.5,0.5c-0.27637,0 -0.5,-0.22363 -0.5,-0.5v-1c0,-0.27637 0.22363,-0.5 0.5,-0.5zM26.5,26c0.27637,0 0.5,0.22363 0.5,0.5v1c0,0.27637 -0.22363,0.5 -0.5,0.5c-0.27637,0 -0.5,-0.22363 -0.5,-0.5v-1c0,-0.27637 0.22363,-0.5 0.5,-0.5z"></path></g></g></svg>