<svg fill="#EBEBEB" xmlns="http://www.w3.org/2000/svg"  viewBox="0 0 24 24" width="24px" height="24px"><path d="M 6.25 2 C 5.01 2 4 3.01 4 4.25 L 4 12.849609 C 4.61 12.549609 5.2995313 12.380859 6.0195312 12.380859 C 7.1395313 12.380859 8.18 12.780703 9 13.470703 C 9.75 12.790703 10.809766 12.380859 12.009766 12.380859 C 12.969766 12.380859 13.750547 12.689297 14.310547 13.029297 C 14.520547 12.849297 14.749766 12.709141 15.009766 12.619141 C 15.579766 12.429141 16.190469 12.460469 16.730469 12.730469 C 17.270469 12.990469 17.680859 13.449531 17.880859 14.019531 L 18 14.369141 L 18.119141 14.009766 C 18.319141 13.449766 18.729531 12.990703 19.269531 12.720703 C 19.499531 12.610703 19.75 12.539766 20 12.509766 L 20 8 L 14.75 8 C 14.34 8 14 7.66 14 7.25 L 14 2 L 6.25 2 z M 15.5 2.0507812 L 15.5 6.5 L 19.949219 6.5 C 19.912219 6.396 19.858297 6.2997031 19.779297 6.2207031 L 15.779297 2.2207031 C 15.700297 2.1417031 15.603 2.0877812 15.5 2.0507812 z M 6.0214844 13.875 C 4.3812254 13.875 2.9980469 15.165501 2.9980469 16.785156 L 2.9980469 19.214844 C 2.9980469 20.834499 4.3812254 22.125 6.0214844 22.125 C 7.1960763 22.125 8.2236052 21.470987 8.7226562 20.503906 A 0.750075 0.750075 0 1 0 7.390625 19.816406 C 7.1496762 20.283326 6.6408924 20.625 6.0214844 20.625 C 5.1517433 20.625 4.4980469 19.981188 4.4980469 19.214844 L 4.4980469 16.785156 C 4.4980469 16.018812 5.1517433 15.375 6.0214844 15.375 C 6.5849506 15.375 7.0542176 15.655492 7.3164062 16.056641 A 0.750075 0.750075 0 1 0 8.5722656 15.236328 C 8.0344544 14.413477 7.0880181 13.875 6.0214844 13.875 z M 12.013672 13.875 C 11.249861 13.875 10.568814 14.100763 10.070312 14.525391 C 9.5718129 14.950019 9.2773436 15.579263 9.2773438 16.234375 C 9.2773437 17.062188 9.7454137 17.755068 10.304688 18.083984 C 10.86396 18.412901 11.454677 18.508859 11.976562 18.617188 C 12.498449 18.725514 12.948817 18.844491 13.175781 18.986328 C 13.402746 19.128165 13.478516 19.180311 13.478516 19.619141 C 13.478516 19.996641 13.369298 20.161573 13.134766 20.330078 C 12.900233 20.498583 12.490573 20.625 11.988281 20.625 C 11.385942 20.625 10.882977 20.288834 10.646484 19.828125 A 0.750075 0.750075 0 1 0 9.3125 20.513672 C 9.8080071 21.478963 10.828621 22.125 11.988281 22.125 C 12.72299 22.125 13.433548 21.962823 14.009766 21.548828 C 14.585983 21.134833 14.978516 20.421641 14.978516 19.619141 C 14.978516 18.771971 14.531426 18.065257 13.970703 17.714844 C 13.40998 17.364431 12.809615 17.258109 12.28125 17.148438 C 11.752885 17.038764 11.292867 16.925349 11.064453 16.791016 C 10.836039 16.656682 10.777344 16.634562 10.777344 16.234375 C 10.777344 15.999487 10.858224 15.823388 11.042969 15.666016 C 11.227719 15.508644 11.540483 15.375 12.013672 15.375 C 12.675734 15.375 13.083984 15.830078 13.083984 15.830078 A 0.75018837 0.75018837 0 1 0 14.212891 14.841797 C 14.212891 14.841797 13.37761 13.875 12.013672 13.875 z M 15.710938 13.990234 A 0.750075 0.750075 0 0 0 15.041016 14.996094 L 17.291016 21.496094 A 0.750075 0.750075 0 0 0 18.708984 21.496094 L 20.958984 14.996094 A 0.75048023 0.75048023 0 1 0 19.541016 14.503906 L 18 18.955078 L 16.458984 14.503906 A 0.750075 0.750075 0 0 0 15.710938 13.990234 z"/></svg>