<svg xmlns="http://www.w3.org/2000/svg"  viewBox="0 0 24 24" width="24px" height="24px"><path fill="#212121" d="m22 0h-20c-1.104 0-2 .896-2 2v20c0 1.104.895 2 2 2h20c1.105 0 2-.896 2-2v-20c0-1.104-.896-2-2-2z"/><path fill="#3e3e3e" d="m22 0h-10v24h10c1.105 0 2-.896 2-2v-20c0-1.104-.896-2-2-2z"/><path fill="#fff" d="m14.823 20.598c-.461.089-.619-.188-.619-.42 0-.287.011-1.238.011-2.422 0-.828-.293-1.371-.607-1.636 2.002-.218 4.106-.966 4.106-4.363 0-.966-.349-1.754-.922-2.373.09-.224.394-1.122-.09-2.341 0 0-.753-.237-2.463.906-.72-.196-1.485-.294-2.25-.298-.765.004-1.53.102-2.25.298-1.722-1.143-2.476-.906-2.476-.906-.484 1.219-.18 2.117-.079 2.341-.577.619-.926 1.407-.926 2.373 0 3.389 2.101 4.149 4.1 4.37-.257.222-.489.611-.57 1.184-.515.226-1.819.616-2.622-.736 0 0-.475-.849-1.378-.91 0 0-.878-.012-.063.537 0 0 .592.272 1.001 1.293 0 0 .528 1.721 3.031 1.187.004.737.011 1.294.011 1.504 0 .235-.165.509-.615.425-3.574-1.17-6.153-4.484-6.153-8.392 0-4.884 4.027-8.844 9-8.844 4.97 0 9 3.96 9 8.844 0 3.902-2.576 7.219-6.177 8.379z"/><path fill="#dedede" d="m12 3.375c-4.973 0-9 3.96-9 8.844 0 3.908 2.579 7.223 6.154 8.391.057.011.109.016.157.016.332 0 .458-.235.458-.44 0-.21-.007-.767-.011-1.504-.336.072-.637.103-.906.103-1.73 0-2.126-1.289-2.126-1.289-.41-1.021-1.001-1.293-1.001-1.293-.782-.526-.006-.537.059-.537h.004c.904.061 1.378.91 1.378.91.449.756 1.054.967 1.591.967.423 0 .804-.132 1.031-.231.081-.572.312-.962.57-1.184-1.999-.221-4.1-.981-4.1-4.37 0-.966.349-1.754.926-2.373-.101-.225-.405-1.123.079-2.342 0 0 .065-.02.2-.02.326 0 1.059.119 2.275.927.72-.196 1.485-.294 2.25-.298h.012z"/></svg>