<svg fill="#C850F2" xmlns="http://www.w3.org/2000/svg"  viewBox="0 0 72 72" width="64px" height="64px"><path d="M59,12c3.314,0,6,2.686,6,6v36c0,3.314-2.686,6-6,6H13c-3.314,0-6-2.686-6-6V18c0-3.314,2.686-6,6-6H59z M27,24	c-2.209,0-4,1.791-4,4c0,2.209,1.791,4,4,4s4-1.791,4-4C31,25.791,29.209,24,27,24z M16,52h4.188l9.838-9.086l-1.52-1.3	c-1.876-1.605-4.643-1.6-6.514,0.012L15,47.65V51C15,51.552,15.448,52,16,52z M57,51v-5.133l-8.776-8.066	c-1.917-1.761-4.864-1.758-6.776,0.008L26.083,52H56C56.552,52,57,51.552,57,51z"/></svg>