<?xml version="1.0" encoding="utf-8"?>
<!-- Generator: Adobe Illustrator 14.0.0, SVG Export Plug-In . SVG Version: 6.00 Build 43363)  -->
<!DOCTYPE svg PUBLIC "-//W3C//DTD SVG 1.1//EN" "http://www.w3.org/Graphics/SVG/1.1/DTD/svg11.dtd">
<svg version="1.1" id="Layer_1" xmlns="http://www.w3.org/2000/svg" xmlns:xlink="http://www.w3.org/1999/xlink" x="0px" y="0px"
	 width="600px" height="600px" viewBox="0 0 600 600" enable-background="new 0 0 600 600" xml:space="preserve">
<g>
	<g>
		<ellipse fill="#9F6C00" cx="83.487" cy="201.363" rx="59.082" ry="87.367"/>
		<ellipse fill="#E1E196" stroke="#B39C12" cx="87.279" cy="213.885" rx="36.99" ry="59.859"/>
	</g>
	<g>
		<ellipse fill="#9F6C00" cx="522.67" cy="200.824" rx="59.082" ry="87.366"/>
		<ellipse fill="#E1E196" stroke="#B39C12" cx="526.462" cy="213.346" rx="36.989" ry="59.858"/>
	</g>
	<g>
		<ellipse fill="#9F6C00" cx="300.834" cy="190.106" rx="203.571" ry="135.606"/>
		<path fill="#9F6C00" d="M551.344,361.893c0,88.956-112.166,161.066-250.526,161.066c-138.363,0-250.528-72.112-250.528-161.066
			c0-88.957,112.165-161.067,250.528-161.067C439.178,200.824,551.344,272.935,551.344,361.893z"/>
		<ellipse fill="#E1E196" stroke="#B39C12" cx="229.915" cy="176.171" rx="83.674" ry="80.935"/>
		<ellipse fill="#E1E196" cx="374.303" cy="175.099" rx="89.286" ry="79.863"/>
		<ellipse fill="#E1E196" cx="297.772" cy="356.264" rx="206.633" ry="136.678"/>
	</g>
	<ellipse fill="#FFFFFF" cx="229.916" cy="188.333" rx="48.515" ry="66.628"/>
	<ellipse fill="#FFFFFF" cx="368.529" cy="188.333" rx="48.516" ry="66.628"/>
	<ellipse cx="250.191" cy="217.172" rx="20.276" ry="28.838"/>
	<ellipse cx="348.254" cy="219.586" rx="20.274" ry="28.839"/>
	<ellipse fill="#FFFFFF" cx="252.109" cy="222.587" rx="3.801" ry="7.576"/>
	<ellipse fill="#FFFFFF" cx="338.782" cy="222.587" rx="3.8" ry="7.576"/>
	<ellipse fill="#FFFFFF" cx="259.576" cy="218.671" rx="0" ry="18.854"/>
	<path fill="#9F6C00" d="M350.787,322.462c0,11.202-22.354,3.25-49.953,3.25s-49.991,7.952-49.991-3.25s22.374-20.284,49.972-20.284
		C328.414,302.179,350.787,311.26,350.787,322.462z"/>
	<path fill="#9F6C00" d="M418.638,397.703c0,18.519-52.751,33.534-117.821,33.534s-117.821-15.016-117.821-33.534
		c0-18.521,52.75-0.002,117.821-0.002C365.887,397.701,418.638,379.184,418.638,397.703z"/>
</g>
</svg>
