<svg xmlns="http://www.w3.org/2000/svg" xmlns:xlink="http://www.w3.org/1999/xlink" viewBox="0,0,256,256" width="48px" height="48px" fill-rule="nonzero"><g fill="#fa5252" fill-rule="nonzero" stroke="none" stroke-width="1" stroke-linecap="butt" stroke-linejoin="miter" stroke-miterlimit="10" stroke-dasharray="" stroke-dashoffset="0" font-family="none" font-weight="none" font-size="none" text-anchor="none" style="mix-blend-mode: normal"><g transform="scale(5.33333,5.33333)"><path d="M25.48438,3.98438c-0.06668,0.00077 -0.13323,0.00599 -0.19922,0.01563h-12.78516c-2.4675,0 -4.5,2.0325 -4.5,4.5v5c-0.00765,0.54095 0.27656,1.04412 0.74381,1.31683c0.46725,0.27271 1.04514,0.27271 1.51238,0c0.46725,-0.27271 0.75146,-0.77588 0.74381,-1.31683v-5c0,-0.8465 0.6535,-1.5 1.5,-1.5h11.5v8.5c0,2.4675 2.0325,4.5 4.5,4.5h8.5v8.5c-0.00765,0.54095 0.27656,1.04412 0.74381,1.31683c0.46725,0.27271 1.04514,0.27271 1.51238,0c0.46725,-0.27271 0.75146,-0.77588 0.74381,-1.31683v-9.7793c0.05876,-0.42828 -0.07008,-0.86109 -0.35352,-1.1875c-0.02731,-0.03245 -0.05598,-0.06373 -0.08594,-0.09375l-0.01562,-0.01562l-12.98437,-12.98437c-0.00259,-0.00261 -0.0052,-0.00522 -0.00781,-0.00781c-0.00259,-0.00261 -0.0052,-0.00522 -0.00781,-0.00781c-0.00775,-0.00659 -0.01556,-0.0131 -0.02344,-0.01953c-0.02886,-0.02788 -0.05884,-0.0546 -0.08984,-0.08008c-0.2672,-0.21897 -0.6018,-0.33901 -0.94727,-0.33984zM27,9.12109l7.87891,7.87891h-6.37891c-0.8465,0 -1.5,-0.6535 -1.5,-1.5zM9.47656,19.97852c-0.82766,0.01293 -1.48844,0.69381 -1.47656,1.52148v18c0,2.4675 2.0325,4.5 4.5,4.5h23c2.4675,0 4.5,-2.0325 4.5,-4.5v-3c0.00765,-0.54095 -0.27656,-1.04412 -0.74381,-1.31683c-0.46725,-0.27271 -1.04514,-0.27271 -1.51238,0c-0.46725,0.27271 -0.75146,0.77588 -0.74381,1.31683v3c0,0.8465 -0.6535,1.5 -1.5,1.5h-23c-0.8465,0 -1.5,-0.6535 -1.5,-1.5v-18c0.00582,-0.40562 -0.15288,-0.7963 -0.43991,-1.08296c-0.28703,-0.28666 -0.67792,-0.44486 -1.08353,-0.43852zM22.5,21c-1.36906,0 -2.5,1.13094 -2.5,2.5c0,1.74243 0.88895,3.62664 2.05273,5.43164c-0.30239,0.98161 -0.63066,1.94248 -1.01562,2.80859c-0.0093,0.0035 -0.022,0.00617 -0.03125,0.00977c-2.5307,0.96941 -4.31326,2.08409 -5.25,2.95898c-0.52981,0.49644 -0.75586,1.16917 -0.75586,1.79102c0,0.63747 0.24796,1.28312 0.73242,1.76758c0.48446,0.48446 1.13011,0.73242 1.76758,0.73242c0.69303,0 1.26288,-0.31476 1.69141,-0.66211c0.52586,-0.42726 1.03928,-1.07729 1.64648,-1.98828c0.52778,-0.79183 1.09066,-1.8343 1.63281,-2.94727c0.86488,-0.30132 1.78227,-0.58229 2.79883,-0.80469c1.57969,1.33601 3.30877,2.40234 5.23047,2.40234c1.36906,0 2.5,-1.13094 2.5,-2.5c0,-1.36906 -1.13094,-2.5 -2.5,-2.5c-1.66109,0 -3.19178,0.19766 -4.64453,0.45703c-0.33906,-0.32356 -0.71889,-0.53748 -1.0293,-0.9043c-0.23209,-0.27426 -0.35121,-0.58861 -0.56055,-0.87891c0.44139,-1.64625 0.73438,-3.38902 0.73438,-5.17383c0,-1.36906 -1.13094,-2.5 -2.5,-2.5zM22.5,23c0.28694,0 0.5,0.21306 0.5,0.5c0,0.81858 -0.21034,1.62107 -0.33398,2.43555c-0.37169,-0.90431 -0.66602,-1.79088 -0.66602,-2.43555c0,-0.28694 0.21306,-0.5 0.5,-0.5zM23.4375,30.96875c0.0205,0.02373 0.04773,0.03887 0.06836,0.0625c-0.03455,0.0096 -0.06719,0.01964 -0.10156,0.0293c0.01154,-0.03031 0.02174,-0.06137 0.0332,-0.0918zM30.5,32c0.28694,0 0.5,0.21306 0.5,0.5c0,0.28694 -0.21306,0.5 -0.5,0.5c-0.70157,0 -1.49577,-0.37255 -2.28125,-0.77539c0.76455,-0.07428 1.46606,-0.22461 2.28125,-0.22461zM19.48047,34.68359c-0.1009,0.16144 -0.21144,0.41088 -0.30859,0.55664c-0.5446,0.81707 -1.06405,1.40019 -1.24219,1.54492c-0.2135,0.17227 -0.35512,0.21484 -0.42969,0.21484c-0.13053,0 -0.25197,-0.04494 -0.35352,-0.14648c-0.10154,-0.10154 -0.14648,-0.22299 -0.14648,-0.35352c0,-0.14512 0.04779,-0.2604 0.12109,-0.33008l0.00195,-0.00195c0.36858,-0.34387 1.25932,-0.89923 2.35742,-1.48437z"></path></g></g></svg>