<svg height="512" width="512" xmlns="http://www.w3.org/2000/svg"><path d="m0 0c.8850119.00215515 1.7700238.0043103 2.68185425.00653076 12.77437572.04994445 25.14127833.39992221 37.63064575 3.30596924 1.2998584.28206299 1.2998584.28206299 2.62597656.56982422 52.52621884 11.56312733 97.86282893 43.28967875 126.90527344 88.47705078 13.33862354 21.19359073 22.07854786 43.49957462 27.46875 67.953125.17789062.76119141.35578125 1.52238281.5390625 2.30664062 5.85125869 25.88949778 4.59321081 57.04610576-1.5390625 82.69335938-.23605957.98774414-.47211914 1.97548828-.71533203 2.99316406-13.46792185 54.16692233-48.08672432 97.86141341-95.42529297 126.53808594-18.62569425 10.97679882-38.81357115 17.82970433-59.859375 22.46875-.76119141.17789062-1.52238281.35578125-2.30664062.5390625-25.88949778 5.85125869-57.04610576 4.59321081-82.69335938-1.5390625-.98774414-.23605957-1.97548828-.47211914-2.99316406-.71533203-52.24216768-12.9893559-95.59087658-45.91268349-124.00683594-91.28466797-.37866211-.59941406-.75732422-1.19882812-1.14746094-1.81640625-11.82786916-18.99845073-19.12782229-40.41022032-23.85253906-62.18359375-.17644043-.75829102-.35288086-1.51658203-.53466797-2.29785156-5.8551387-25.89259554-4.59859586-57.05075212 1.53466797-82.70214844.23605957-.98774414.47211914-1.97548828.71533203-2.99316406 12.63453073-50.81508878 44.74181056-95.30735968 89.34716797-122.81933594 32.50555257-19.4970758 67.67006533-29.66636171 105.625-29.5z" fill="#36447f" transform="translate(255.6875 55.6875)"/><g fill="#c7d3f5"><path d="m0 0c7.5763787-.10228163 15.15257625-.17183202 22.72949219-.21972656 2.57200778-.01998803 5.14397088-.04718769 7.71582031-.08203125 34.38754552-.45387289 34.38754552-.45387289 45.78515625 9.44238281 6.82908005 7.17581038 8.18071172 15.6252218 8.01953125 25.1953125-1.07050152 15.6895379-8.11095582 27.05843733-19.25 37.6640625-9.2074201 7.35292206-19.54524056 9.1820938-31.12109375 9.09765625-.74476089-.00141495-1.48952179-.0028299-2.2568512-.00428772-2.35322778-.00554864-4.70635655-.0180912-7.05955505-.03086853-1.60611841-.00502165-3.21223832-.00958339-4.81835938-.01367188-3.91475105-.01096077-7.82942911-.02818928-11.74414062-.04882812-.12246094 1.25683594-.24492187 2.51367188-.37109375 3.80859375-.608621 5.47758898-1.62733328 10.8494114-2.69140625 16.25390625-.639375 3.279375-1.27875 6.55875-1.9375 9.9375-7.92 0-15.84 0-24 0 .60897245-6.08972449 1.20683188-11.66089416 2.3828125-17.5859375.13486313-.68679337.26972626-1.37358673.40867615-2.08119202.44020281-2.23683087.88681901-4.47232739 1.33351135-6.70787048.31419286-1.58983189.62790413-3.17975903.94116211-4.76977539.48670357-2.46933004.97389442-4.93855683 1.4629364-7.40742493 1.10838722-5.59559694 2.20014259-11.19418961 3.27949524-16.79545593 3.58344203-18.58300853 7.31157648-37.12875675 11.19140625-55.65234375z" transform="translate(324 209)"/><path d="m0 0c7.5763787-.10228163 15.15257625-.17183202 22.72949219-.21972656 2.57200778-.01998803 5.14397088-.04718769 7.71582031-.08203125 34.21726941-.45162545 34.21726941-.45162545 44.94140625 8.66503906 7.26958241 7.37519378 9.02095664 14.74620101 8.97900391 24.95727539-.312231 13.38153293-5.5393702 24.87882641-14.74072266 34.49194336-10.29249825 9.75894065-21.37251722 13.16385473-35.4296875 13.50390625-.7239798.0207811-1.44795959.04156219-2.19387817.06297302-2.29205672.06490926-4.58421907.1241051-6.87643433.18312073-1.56251053.04324112-3.12501072.08685711-4.6875.13085938-3.81239378.10724886-7.62487785.20675587-11.4375.30664062-2.97 14.355-2.97 14.355-6 29-7.92 0-15.84 0-24 0 .62894942-5.66054477 1.28820902-10.94970356 2.3828125-16.48828125.20229469-1.03224449.20229469-1.03224449.40867615-2.08534241.44111337-2.24697462.88730564-4.49290795 1.33351135-6.73887634.31410085-1.59514003.62781418-3.19035642.94116211-4.78564453.65115177-3.31376144 1.30396622-6.6271893 1.95776367-9.94042969.93750914-4.75748999 1.8632526-9.51720179 2.78466797-14.27783203.14594101-.75384476.29188202-1.50768951.44224548-2.28437805.29225694-1.5096883.58450856-3.01937762.87675476-4.52906799 3.22277319-16.63716235 6.53144645-33.25633223 9.87240601-49.87014771z" transform="translate(129 209)"/><path d="m0 0h24c-1.125 11.25-1.125 11.25-1.97265625 15.3515625-.17724609.87011719-.35449219 1.74023438-.53710937 2.63671875-.18240235.87011719-.36480469 1.74023437-.55273438 2.63671875-.18626953.90878906-.37253906 1.81757813-.56445312 2.75390625-.45321984 2.20799405-.91094381 4.41494499-1.37304688 6.62109375.95777344-.01047363 1.91554688-.02094727 2.90234375-.03173828 3.58573606-.03646029 7.17145603-.05925598 10.75732422-.078125 1.54592656-.00999869 3.09183449-.0236021 4.63769531-.04101563 2.23425927-.0245206 4.46826647-.0356656 6.70263672-.04443359.68054443-.01032257 1.36108887-.02064514 2.06225586-.03128052 7.54698393-.00172715 16.03925665 1.38288521 21.60571289 6.87112427 4.56214125 5.14730901 5.67374663 8.8834432 5.60839844 15.73486328-.62000631 8.12252078-2.50905993 16.09199578-4.15136719 24.05810547-.55128803 2.72038138-1.09956398 5.44135396-1.64703369 8.1625061-.35177399 1.74752307-.70505706 3.49474312-1.05993652 5.24163819-1.14488986 5.66785958-2.16349251 11.3425623-3.02789307 17.0609436-.39013672 2.09741211-.39013672 2.09741211-1.39013672 4.09741211-7.92 0-15.84 0-24 0 1.35764117-12.12277572 3.50341006-23.84383079 6.11914062-35.74902344.48010906-2.19683366.95033174-4.39562434 1.41992188-6.59472656.28053223-1.28068359.56106445-2.56136719.85009766-3.88085938.66476135-4.10866088.86682876-7.62329443.61083984-11.77539062-3.59512181-4.07533663-6.96269655-4.26474346-12.2734375-4.609375-2.36672842-.06610973-4.73407906-.11241014-7.1015625-.140625-1.21300781-.02964844-2.42601562-.05929688-3.67578125-.08984375-2.98313896-.07046785-5.9655067-.12328105-8.94921875-.16015625-.11480713.62938477-.22961426 1.25876953-.34790039 1.90722656-3.72888985 20.39504188-7.66995025 40.7459411-11.65209961 61.09277344-7.92 0-15.84 0-24 0 .61515968-6.15159681 1.24065918-11.86414414 2.3828125-17.875.13486313-.71445786.26972626-1.42891571.40867615-2.1650238.43979441-2.32091757.88631637-4.64047412 1.33351135-6.9599762.31379-1.64329732.62750949-3.2866081.94116211-4.92993164 2.7438689-14.31460153 5.67899593-28.5877767 8.64930725-42.85675049 1.61409699-7.77138546 3.17052004-15.55423529 4.72203064-23.33831787.19760422-.99095169.19760422-.99095169.39920044-2.00192261.72246576-3.62408923 1.4431382-7.24852901 2.16329956-10.87307739z" transform="translate(236 180)"/></g><path d="m0 0c4.35403865-.08755672 8.70784877-.14057969 13.0625-.1875 1.84368164-.03770508 1.84368164-.03770508 3.72460938-.07617188 8.33058721-.06736323 13.70627548.20470974 20.15039062 5.82617188 3.10959328 4.17691242 2.69160398 8.46757857 2.0625 13.4375-1.25141829 7.86752319-3.29819515 15.19128631-9 21-6.40018914 4.27704947-12.63056692 6.1425113-20.30078125 6.09765625-.97646484-.00322266-1.95292969-.00644531-2.95898437-.00976563-1.00740235-.0083789-2.01480469-.01675781-3.05273438-.02539062-1.02673828-.00451172-2.05347656-.00902344-3.11132812-.01367188-2.5254507-.01174628-5.05078093-.02817247-7.57617188-.04882812-.1514528-6.23390558.30636431-11.86985907 1.53125-17.97265625.15537231-.80851913.31074463-1.61703827.4708252-2.45005798.49151734-2.54818057.99449829-5.09393427 1.4979248-7.63978577.33800462-1.74138814.67525115-3.4829236 1.01171875-5.22460938.82068337-4.23938183 1.65164586-8.4766293 2.48828125-12.71289062z" fill="#374580" transform="translate(344 227)"/><path d="m0 0c1.11246094-.020625 2.22492188-.04125 3.37109375-.0625 7.80440809-.03676989 15.35754132.12092446 21.19140625 5.8125 3.36787833 8.20005159 1.65496067 17.06094553-1.59765625 25.0390625-2.84176934 6.19523991-5.64135459 10.43892546-12.01953125 13.421875-9.78739499 3.40838995-20.73198756 2.30260602-30.9453125 2.0390625-.15826268-5.83505827.37485284-11.12145867 1.49609375-16.83984375.15300064-.80756241.30600128-1.61512482.46363831-2.44715881.32187097-1.6905623.64726954-3.3804565.97605896-5.06968689.50472233-2.59631132.99719966-5.19473281 1.4880371-7.79370117.31504437-1.64662054.63077465-3.29311003.94726563-4.93945313.14795517-.77907211.29591034-1.55814423.448349-2.36082458 1.73471962-8.85344969 5.97114625-6.76231065 14.18055725-6.79933167z" fill="#374580" transform="translate(162 226.75)"/></svg>