<svg xmlns="http://www.w3.org/2000/svg" xmlns:xlink="http://www.w3.org/1999/xlink" viewBox="0,0,256,256" width="24px" height="24px" fill-rule="nonzero"><g fill="#ed6c47" fill-rule="nonzero" stroke="none" stroke-width="1" stroke-linecap="butt" stroke-linejoin="miter" stroke-miterlimit="10" stroke-dasharray="" stroke-dashoffset="0" font-family="none" font-weight="none" font-size="none" text-anchor="none" style="mix-blend-mode: normal"><g transform="scale(10.66667,10.66667)"><path d="M11.0332,3.21875c-0.07502,-0.00233 -0.15114,0.00403 -0.22851,0.01953l-8,1.60156c-0.468,0.094 -0.80469,0.50347 -0.80469,0.98047v12.35938c0,0.477 0.33669,0.88647 0.80469,0.98047l8,1.60156c0.619,0.124 1.19531,-0.35142 1.19531,-0.98242v-15.55859c0,-0.55212 -0.44167,-0.98567 -0.9668,-1.00195zM14,5v2h2h2h2v2v2v2v2v2h-2h-2h-2v2h7c0.552,0 1,-0.448 1,-1v-12c0,-0.552 -0.448,-1 -1,-1zM4.74414,8h2.31836c0.896,0 1.60677,0.23227 2.13477,0.69727c0.528,0.466 0.79102,1.08361 0.79102,1.84961c0,0.785 -0.25644,1.39503 -0.77344,1.83203c-0.516,0.437 -1.23992,0.6543 -2.16992,0.6543h-1.54492v2.21094c0,0.417 -0.33886,0.75586 -0.75586,0.75586c-0.417,0 -0.75391,-0.33886 -0.75391,-0.75586v-6.48828c-0.001,-0.417 0.33591,-0.75586 0.75391,-0.75586zM16,8c-1.105,0 -2,0.895 -2,2c0,1.105 0.895,2 2,2c1.105,0 2,-0.895 2,-2h-2zM5.5,9.1875v2.54883h1.46875c0.467,0 0.82236,-0.10636 1.06836,-0.31836c0.246,-0.212 0.36914,-0.51892 0.36914,-0.91992c0,-0.395 -0.125,-0.70931 -0.375,-0.94531c-0.248,-0.237 -0.58939,-0.35923 -1.02539,-0.36523zM15,13c-0.36064,-0.0051 -0.69608,0.18438 -0.87789,0.49587c-0.18181,0.3115 -0.18181,0.69676 0,1.00825c0.18181,0.3115 0.51725,0.50097 0.87789,0.49587h2c0.36064,0.0051 0.69608,-0.18438 0.87789,-0.49587c0.18181,-0.3115 0.18181,-0.69676 0,-1.00825c-0.18181,-0.3115 -0.51725,-0.50097 -0.87789,-0.49587z"></path></g></g></svg>