<?xml version="1.0" encoding="UTF-8"?>
<svg version="1.1" xmlns="http://www.w3.org/2000/svg" width="512" height="512">
<path d="M0 0 C6.61124487 2.50771357 9.2919031 8.994208 12.6328125 14.9296875 C12.97513916 15.52233398 13.31746582 16.11498047 13.67016602 16.72558594 C14.64828905 18.43160902 15.592502 20.15693812 16.53515625 21.8828125 C18.41866803 24.61761675 18.41866803 24.61761675 21.5 25.125 C25.8210852 24.08793955 27.83151142 21.54026728 30.5625 18.25 C31.61342522 17.05382364 32.66678982 15.85978576 33.72265625 14.66796875 C34.22297363 14.0961084 34.72329102 13.52424805 35.23876953 12.93505859 C38.64522438 9.10144702 41.62099633 5.7679419 46.8125 4.75 C50.30545182 5.52621152 51.30693924 6.6924661 53.625 9.375 C54.81347656 11.70922852 54.81347656 11.70922852 55.765625 14.25390625 C56.11367188 15.17494141 56.46171875 16.09597656 56.8203125 17.04492188 C57.16835938 17.99947266 57.51640625 18.95402344 57.875 19.9375 C58.42027344 21.37512695 58.42027344 21.37512695 58.9765625 22.84179688 C61.625 29.94578242 61.625 29.94578242 61.625 33.375 C67.74605557 34.21900097 70.66685387 32.43722493 75.54101562 28.80273438 C76.72727539 27.87944336 76.72727539 27.87944336 77.9375 26.9375 C79.5372216 25.72975473 81.13745685 24.52268942 82.73828125 23.31640625 C83.43735596 22.77701416 84.13643066 22.23762207 84.85668945 21.68188477 C88.46572021 19.01460026 91.16295429 18.99034089 95.625 19.375 C99.25341795 22.19491177 100.18205348 24.37976368 100.75 28.875 C100.97429687 30.4528125 100.97429687 30.4528125 101.203125 32.0625 C101.484375 34.27083333 101.765625 36.47916667 102.046875 38.6875 C102.27117187 40.2653125 102.27117187 40.2653125 102.5 41.875 C102.62117188 42.8340625 102.74234375 43.793125 102.8671875 44.78125 C103.78183591 47.91179919 105.1795354 49.27605872 107.625 51.375 C111.19292902 50.29605826 114.54210865 48.99177638 117.90234375 47.39453125 C118.66353516 47.03552734 119.42472656 46.67652344 120.20898438 46.30664062 C121.77939278 45.55988211 123.34456484 44.80201183 124.90429688 44.03320312 C129.82857451 41.73964693 133.20619741 40.65915888 138.625 42.375 C140.546875 43.86328125 140.546875 43.86328125 141.625 46.375 C141.99519339 49.44898187 141.95162829 52.47102734 141.875 55.5625 C141.86984375 56.37525391 141.8646875 57.18800781 141.859375 58.02539062 C141.78927245 63.53282258 141.30599363 68.91057533 140.625 74.375 C144.24163194 76.35963158 146.03444246 76.46272663 150.125 75.6875 C151.18074219 75.4915625 152.23648437 75.295625 153.32421875 75.09375 C156.56181534 74.38875855 159.74042388 73.55613955 162.9375 72.6875 C167.66073091 71.47578108 170.94743434 70.8821599 175.625 72.375 C177.44657691 74.3230753 178.5380998 75.60237822 178.83984375 78.28515625 C178.74832031 78.99542969 178.65679687 79.70570312 178.5625 80.4375 C178.45292969 81.29601562 178.34335937 82.15453125 178.23046875 83.0390625 C177.73533203 85.76710611 177.16940957 88.44714656 176.55078125 91.1484375 C176.35943604 91.99656006 176.16809082 92.84468262 175.97094727 93.71850586 C175.57614559 95.43696872 175.16405041 97.15155701 174.73413086 98.86157227 C174.45581421 100.05737915 174.45581421 100.05737915 174.171875 101.27734375 C173.99495117 101.99398193 173.81802734 102.71062012 173.63574219 103.44897461 C173.45320534 105.44569735 173.45320534 105.44569735 174.71435547 107.12158203 C177.44035209 108.90988597 179.41090992 108.65034573 182.6484375 108.52734375 C183.834375 108.49962891 185.0203125 108.47191406 186.2421875 108.44335938 C188.73973215 108.35638667 191.23713593 108.26526625 193.734375 108.16992188 C195.51714844 108.1302832 195.51714844 108.1302832 197.3359375 108.08984375 C198.42181152 108.04980225 199.50768555 108.00976074 200.62646484 107.96850586 C204.38124293 108.4775195 205.98966387 109.69915717 208.625 112.375 C210.01987446 119.65934443 205.90409873 125.76786365 202.73632812 132.08007812 C199.64791158 138.45294259 199.64791158 138.45294259 200.625 145.375 C207.1317018 147.10566383 213.60061961 148.2223282 220.265625 149.14257812 C227.66827925 150.27423389 227.66827925 150.27423389 230.625 153.375 C231.75 156.5 231.75 156.5 231.625 160.375 C229.50073197 164.83767598 226.26753792 168.57722492 223.18359375 172.40625 C222.77093262 172.92936768 222.35827148 173.45248535 221.93310547 173.99145508 C220.73521628 175.50231689 219.51066577 176.99192304 218.28515625 178.48046875 C216.36126763 181.25686544 216.36126763 181.25686544 216.69360352 184.40283203 C217.32289011 187.52323713 217.32289011 187.52323713 219.89404297 188.8347168 C220.87518066 189.16125244 221.85631836 189.48778809 222.8671875 189.82421875 C223.93324219 190.19740234 224.99929688 190.57058594 226.09765625 190.95507812 C227.22042969 191.32052734 228.34320313 191.68597656 229.5 192.0625 C231.70818018 192.80919677 233.91403497 193.56281561 236.1171875 194.32421875 C237.59227783 194.80894653 237.59227783 194.80894653 239.09716797 195.3034668 C241.64973961 196.38548697 242.99096995 197.15316276 244.625 199.375 C245.33033643 204.84135731 245.33033643 204.84135731 244.625 207.375 C242.48046875 209.7421875 242.48046875 209.7421875 239.625 212.375 C238.60546335 213.39586115 237.5912891 214.42210072 236.58203125 215.453125 C235.53387692 216.51043923 234.48569962 217.56773067 233.4375 218.625 C232.63795898 219.43710937 232.63795898 219.43710937 231.82226562 220.265625 C227.85073758 224.26213121 227.85073758 224.26213121 225.625 225.375 C225.39146889 228.16817232 225.39146889 228.16817232 226.625 231.375 C229.47289944 233.83725444 232.67850561 235.63294241 235.9375 237.5 C237.66559694 238.51864066 239.39095727 239.54194101 241.11328125 240.5703125 C241.88196533 241.01391113 242.65064941 241.45750977 243.44262695 241.91455078 C245.85664265 243.53001581 247.73088233 245.17148253 249.625 247.375 C250.1875 250.8125 250.1875 250.8125 249.625 254.375 C245.12073252 259.85923785 239.01663569 262.82434843 232.8671875 266.18164062 C228.0639457 268.8739756 228.0639457 268.8739756 225.37109375 273.515625 C225.37759636 276.35595344 225.37759636 276.35595344 226.92578125 278.17578125 C227.58964844 278.67464844 228.25351562 279.17351562 228.9375 279.6875 C229.66710937 280.265 230.39671875 280.8425 231.1484375 281.4375 C231.96570313 282.076875 232.78296875 282.71625 233.625 283.375 C235.45012215 284.96479121 237.26263109 286.56917406 239.0625 288.1875 C240.32900391 289.31091797 240.32900391 289.31091797 241.62109375 290.45703125 C244.83825873 293.53622814 244.83210308 295.9259532 245.1484375 300.3046875 C244.28934023 303.70260954 242.57870825 304.5121705 239.625 306.375 C235.91434694 307.97103494 232.12920488 309.30636876 228.3125 310.625 C226.77239258 311.17027344 226.77239258 311.17027344 225.20117188 311.7265625 C222.67873951 312.61821301 220.15347893 313.50067508 217.625 314.375 C216.69929296 317.06740058 216.69929296 317.06740058 216.625 320.375 C218.08817318 322.78177058 219.43549526 324.64978856 221.25 326.75 C222.17783402 327.89417174 223.1036301 329.03999922 224.02734375 330.1875 C224.47577637 330.73535156 224.92420898 331.28320312 225.38623047 331.84765625 C231.59429347 339.50190185 231.59429347 339.50190185 231.6875 345.1875 C230.48252819 348.80241543 229.8114484 349.46388176 226.625 351.375 C224.01538086 352.03515625 224.01538086 352.03515625 221.08984375 352.4375 C220.03345703 352.59476562 218.97707031 352.75203125 217.88867188 352.9140625 C215.66739125 353.2218853 213.4460367 353.52917515 211.22460938 353.8359375 C210.16951172 353.99320312 209.11441406 354.15046875 208.02734375 354.3125 C207.06304443 354.44527344 206.09874512 354.57804687 205.10522461 354.71484375 C202.37350663 355.44193947 201.27452664 356.10021032 199.625 358.375 C199.7636872 364.59743233 203.15439387 370.1702876 205.83007812 375.65429688 C208.02151655 380.34231072 209.55098166 384.09755205 208.625 389.375 C205.99224306 392.05607267 204.38258152 393.27229904 200.62646484 393.78149414 C199.54059082 393.74145264 198.4547168 393.70141113 197.3359375 393.66015625 C196.14742188 393.63373047 194.95890625 393.60730469 193.734375 393.58007812 C192.50203125 393.53302734 191.2696875 393.48597656 190 393.4375 C187.54991806 393.3521801 185.09933538 393.27993267 182.6484375 393.22265625 C181.56481934 393.18148682 180.48120117 393.14031738 179.36474609 393.09790039 C176.62983362 393.16157776 176.62983362 393.16157776 174.71435547 394.62841797 C173.45320534 396.30430265 173.45320534 396.30430265 173.63574219 398.30102539 C173.81266602 399.01766357 173.98958984 399.73430176 174.171875 400.47265625 C174.35741943 401.26986084 174.54296387 402.06706543 174.73413086 402.88842773 C175.05136108 404.15021851 175.05136108 404.15021851 175.375 405.4375 C175.77028927 407.15808519 176.1622522 408.87943818 176.55078125 410.6015625 C176.73979004 411.42688477 176.92879883 412.25220703 177.12353516 413.10253906 C177.72514769 415.82883384 178.20902821 418.54294453 178.5625 421.3125 C178.65402344 422.02277344 178.74554688 422.73304688 178.83984375 423.46484375 C178.52083652 426.30110806 177.71340897 427.42946005 175.625 429.375 C169.37952267 431.24945115 164.02303675 429.52890894 157.9375 427.875 C156.08169648 427.37688343 154.22367201 426.88695054 152.36328125 426.40625 C151.14185425 426.07463867 151.14185425 426.07463867 149.89575195 425.73632812 C146.40535728 425.18092719 143.93351842 426.27216053 140.625 427.375 C140.78226562 428.65890625 140.93953125 429.9428125 141.1015625 431.265625 C141.64692048 436.22236619 141.9125525 441.14049236 142 446.125 C142.03738281 446.94871094 142.07476562 447.77242188 142.11328125 448.62109375 C142.17452552 452.84694819 141.94391617 454.8800027 139.6015625 458.515625 C136.35186241 460.54562138 134.58618397 460.81129294 130.83740234 460.06787109 C125.74774989 458.47391461 121.11773113 455.84972438 116.42773438 453.34960938 C111.77927745 450.9402053 111.77927745 450.9402053 106.66796875 450.60546875 C103.56722118 453.2912023 103.22519685 456.49604185 102.625 460.375 C102.50543945 461.12587891 102.38587891 461.87675781 102.26269531 462.65039062 C101.79066888 465.76814505 101.3439815 468.88760672 100.9453125 472.015625 C100.42304949 475.52903073 99.92402663 477.91733483 97.9609375 480.921875 C94.46877877 483.09425468 92.70079371 483.06532206 88.625 482.375 C85.19273375 480.52702756 82.12039133 478.26560447 79 475.9375 C77.34658278 474.72303178 75.68788651 473.51571067 74.0234375 472.31640625 C73.29817871 471.77701416 72.57291992 471.23762207 71.82568359 470.68188477 C68.46144767 468.68401979 65.49284139 468.375 61.625 468.375 C61.53992188 469.15359375 61.45484375 469.9321875 61.3671875 470.734375 C60.37381138 475.6071463 58.60096465 480.02080837 56.75 484.625 C56.22212891 485.99011719 56.22212891 485.99011719 55.68359375 487.3828125 C55.33683594 488.25164062 54.99007813 489.12046875 54.6328125 490.015625 C54.31973145 490.80485352 54.00665039 491.59408203 53.68408203 492.40722656 C52.625 494.375 52.625 494.375 49.625 496.375 C46.9375 496.9375 46.9375 496.9375 43.625 496.375 C40.65420511 494.35141507 38.17101195 491.90197635 35.625 489.375 C34.90441406 488.68019531 34.18382812 487.98539062 33.44140625 487.26953125 C27.93123498 481.88068485 27.93123498 481.88068485 26.26953125 479.13671875 C24.69154917 477.07628274 24.69154917 477.07628274 21.74145508 476.96850586 C18.53244259 477.05593107 18.53244259 477.05593107 16.72216797 479.36279297 C16.19252441 480.27174316 15.66288086 481.18069336 15.1171875 482.1171875 C14.52292969 483.10074219 13.92867188 484.08429688 13.31640625 485.09765625 C12.71699219 486.13792969 12.11757813 487.17820312 11.5 488.25 C10.29792215 490.29429801 9.08732864 492.33361893 7.8671875 494.3671875 C7.3397998 495.27839355 6.81241211 496.18959961 6.26904297 497.12841797 C4.51329847 499.52763996 3.40746089 500.41002034 0.625 501.375 C-2.3125 501.375 -2.3125 501.375 -5.375 500.375 C-9.4253555 496.00276195 -12.56104149 491.18291509 -15.6875 486.125 C-16.14189453 485.40570313 -16.59628906 484.68640625 -17.06445312 483.9453125 C-17.70737305 482.91277344 -17.70737305 482.91277344 -18.36328125 481.859375 C-18.75040283 481.23772461 -19.13752441 480.61607422 -19.53637695 479.97558594 C-20.375 478.375 -20.375 478.375 -20.375 476.375 C-26.40778857 477.60880745 -29.41227088 479.7242497 -33.5625 484.1875 C-34.06974609 484.70892578 -34.57699219 485.23035156 -35.09960938 485.76757812 C-37.40721093 488.16496962 -39.54399682 490.58823683 -41.61328125 493.19921875 C-43.82337596 495.92875922 -44.71420949 496.2868946 -48.1875 496.75 C-51.60831246 496.34755147 -52.77790893 495.60795905 -55.10180664 493.14453125 C-57.79328163 489.4038197 -59.14848894 484.99497876 -60.6875 480.6875 C-61.22600586 479.24407227 -61.22600586 479.24407227 -61.77539062 477.77148438 C-64.375 470.71540179 -64.375 470.71540179 -64.375 468.375 C-70.22882428 467.65476507 -72.91993374 468.96313112 -77.53125 472.54296875 C-78.2221875 473.10628906 -78.913125 473.66960937 -79.625 474.25 C-81.02587081 475.35177978 -82.42690599 476.45335059 -83.828125 477.5546875 C-84.43817383 478.04694824 -85.04822266 478.53920898 -85.67675781 479.04638672 C-89.82692624 482.29325512 -92.11753838 482.83618084 -97.375 482.375 C-99.94781378 480.90344068 -101.14102477 480.00628632 -102.18041992 477.2019043 C-102.39081909 475.96307495 -102.39081909 475.96307495 -102.60546875 474.69921875 C-102.76853516 473.78849609 -102.93160156 472.87777344 -103.09960938 471.93945312 C-103.25236328 470.99005859 -103.40511719 470.04066406 -103.5625 469.0625 C-103.72685547 468.12470703 -103.89121094 467.18691406 -104.06054688 466.22070312 C-104.72279822 462.41610936 -105.34889035 458.68255134 -105.67578125 454.83203125 C-106.12309292 452.17813569 -106.12309292 452.17813569 -108.58911133 451.09472656 C-112.12616238 450.1809393 -113.39863193 450.81615007 -116.6484375 452.40234375 C-117.6384375 452.86447266 -118.6284375 453.32660156 -119.6484375 453.80273438 C-121.18371094 454.55006836 -121.18371094 454.55006836 -122.75 455.3125 C-134.09150765 460.83212967 -134.09150765 460.83212967 -138.4140625 460.50390625 C-142.1371774 459.0844073 -142.70305988 457.93487251 -144.375 454.375 C-144.66796875 451.3605957 -144.66796875 451.3605957 -144.5625 448.05078125 C-144.53929687 446.85775391 -144.51609375 445.66472656 -144.4921875 444.43554688 C-144.45351562 443.19869141 -144.41484375 441.96183594 -144.375 440.6875 C-144.29874233 438.2256481 -144.23555003 435.7633452 -144.1875 433.30078125 C-144.15269531 432.21192627 -144.11789063 431.12307129 -144.08203125 430.0012207 C-144.22705078 428.70124146 -144.22705078 428.70124146 -144.375 427.375 C-147.08670177 425.13075084 -147.08670177 425.13075084 -149.6171875 425.51171875 C-150.92042969 425.78435547 -150.92042969 425.78435547 -152.25 426.0625 C-153.70599609 426.35640625 -153.70599609 426.35640625 -155.19140625 426.65625 C-157.39226378 427.15313072 -159.58742831 427.67567109 -161.77734375 428.21875 C-163.46537109 428.63640625 -163.46537109 428.63640625 -165.1875 429.0625 C-166.22519531 429.33449219 -167.26289063 429.60648437 -168.33203125 429.88671875 C-172.28074414 430.52033763 -175.77739418 430.42170726 -179.1875 428.1875 C-181.31731443 424.93673061 -181.61746806 421.80028168 -180.96801758 417.98266602 C-180.31733366 415.22393924 -179.6121445 412.48688521 -178.875 409.75 C-178.37683728 407.88508314 -177.88690423 406.01794345 -177.40625 404.1484375 C-177.18517578 403.32778809 -176.96410156 402.50713867 -176.73632812 401.66162109 C-176.22205316 398.40709453 -176.92328699 396.27842602 -178.375 393.375 C-179.60802856 393.41427612 -179.60802856 393.41427612 -180.8659668 393.4543457 C-184.59794938 393.5584144 -188.3296266 393.62336128 -192.0625 393.6875 C-193.35607422 393.72939453 -194.64964844 393.77128906 -195.98242188 393.81445312 C-197.85317383 393.83862305 -197.85317383 393.83862305 -199.76171875 393.86328125 C-200.90858154 393.88946533 -202.05544434 393.91564941 -203.23706055 393.94262695 C-207.36256548 393.19635768 -208.83873964 391.64782302 -211.375 388.375 C-211.59225771 380.73879366 -207.85749946 374.75822891 -204.34960938 368.17773438 C-201.9402053 363.52927745 -201.9402053 363.52927745 -201.60546875 358.41796875 C-204.2912023 355.31722118 -207.49604185 354.97519685 -211.375 354.375 C-212.12587891 354.25543945 -212.87675781 354.13587891 -213.65039062 354.01269531 C-216.76814505 353.54066888 -219.88760672 353.0939815 -223.015625 352.6953125 C-226.48845159 352.17908152 -228.9226242 351.65946944 -231.921875 349.7734375 C-234.04045859 346.27663555 -234.28856863 343.27306885 -233.375 339.375 C-231.7556941 336.31258581 -229.70003145 333.72821317 -227.5 331.0625 C-226.39830224 329.67067997 -225.29673455 328.27875698 -224.1953125 326.88671875 C-223.45692139 325.98119263 -223.45692139 325.98119263 -222.70361328 325.05737305 C-219.93981699 321.62158305 -219.93981699 321.62158305 -219.42236328 317.33837891 C-220.07449258 314.22677616 -220.07449258 314.22677616 -222.64404297 312.93115234 C-223.62518066 312.61098145 -224.60631836 312.29081055 -225.6171875 311.9609375 C-226.68324219 311.59226562 -227.74929687 311.22359375 -228.84765625 310.84375 C-229.97042969 310.4828125 -231.09320313 310.121875 -232.25 309.75 C-234.45960295 309.01942608 -236.66555048 308.27767744 -238.8671875 307.5234375 C-239.85058105 307.20552246 -240.83397461 306.88760742 -241.84716797 306.56005859 C-244.71449931 305.21584125 -245.80921997 304.10099737 -247.375 301.375 C-247.95344634 297.99148511 -248.20615185 295.62136982 -246.24121094 292.67480469 C-244.65554168 290.92798598 -242.99585321 289.33644922 -241.25 287.75 C-240.39535156 286.93015625 -240.39535156 286.93015625 -239.5234375 286.09375 C-237.29109475 283.97302439 -235.0899538 281.90045749 -232.60644531 280.07519531 C-229.85991201 278.0520288 -228.4870724 276.70899354 -227.390625 273.44140625 C-229.04078596 268.30102391 -233.54925072 266.75479042 -238.125 264.3125 C-249.6591784 258.00424137 -249.6591784 258.00424137 -252.375 253.375 C-252.625 249.9375 -252.625 249.9375 -251.375 246.375 C-248.09374869 242.77713672 -243.71863069 240.5534468 -239.5078125 238.2109375 C-238.8286377 237.82534668 -238.14946289 237.43975586 -237.44970703 237.04248047 C-236.08017752 236.27181795 -234.69821161 235.52280194 -233.30419922 234.79736328 C-230.17978548 233.0505068 -228.57613303 232.0154499 -227.484375 228.5390625 C-228.83144686 223.75341246 -231.931159 221.42492803 -235.625 218.25 C-236.98467576 217.03940022 -238.34405889 215.82847166 -239.703125 214.6171875 C-240.34241943 214.05290039 -240.98171387 213.48861328 -241.64038086 212.90722656 C-247.30941975 207.89964204 -247.30941975 207.89964204 -247.8125 203.875 C-247.34334669 200.12177351 -246.91572787 199.05365505 -244.375 196.375 C-241.84716797 195.18994141 -241.84716797 195.18994141 -238.8671875 194.2265625 C-237.79855469 193.86046875 -236.72992188 193.494375 -235.62890625 193.1171875 C-233.37156857 192.37083076 -231.11110025 191.63387838 -228.84765625 190.90625 C-227.78160156 190.53757813 -226.71554688 190.16890625 -225.6171875 189.7890625 C-224.6360498 189.4688916 -223.65491211 189.1487207 -222.64404297 188.81884766 C-220.09481789 187.52654603 -220.09481789 187.52654603 -219.37792969 184.50463867 C-219.37455701 180.90177923 -219.93659377 179.71948114 -222.0859375 176.88671875 C-222.96378906 175.70432617 -222.96378906 175.70432617 -223.859375 174.49804688 C-224.48328125 173.69431641 -225.1071875 172.89058594 -225.75 172.0625 C-226.67425781 170.82790039 -226.67425781 170.82790039 -227.6171875 169.56835938 C-230.33151415 165.83272913 -230.33151415 165.83272913 -233.375 162.375 C-233.97090912 155.10490871 -233.97090912 155.10490871 -231.69213867 152.3137207 C-228.96647409 150.03319152 -227.37053313 149.69163994 -223.875 149.25 C-222.2971875 149.02570313 -222.2971875 149.02570313 -220.6875 148.796875 C-218.47916667 148.515625 -216.27083333 148.234375 -214.0625 147.953125 C-213.010625 147.80359375 -211.95875 147.6540625 -210.875 147.5 C-209.9159375 147.37882813 -208.956875 147.25765625 -207.96875 147.1328125 C-204.83820081 146.21816409 -203.47394128 144.8204646 -201.375 142.375 C-202.45394174 138.80707098 -203.75822362 135.45789135 -205.35546875 132.09765625 C-205.71447266 131.33646484 -206.07347656 130.57527344 -206.44335938 129.79101562 C-207.19011789 128.22060722 -207.94798817 126.65543516 -208.71679688 125.09570312 C-211.01035307 120.17142549 -212.09084112 116.79380259 -210.375 111.375 C-208.03475867 109.00031803 -206.7282052 108.40957711 -203.38232422 108.08203125 C-202.2429541 108.11683594 -201.10358398 108.15164062 -199.9296875 108.1875 C-198.68832031 108.21070312 -197.44695312 108.23390625 -196.16796875 108.2578125 C-194.87503906 108.29648438 -193.58210938 108.33515625 -192.25 108.375 C-189.68526791 108.45125566 -187.120103 108.51444851 -184.5546875 108.5625 C-182.84901611 108.61470703 -182.84901611 108.61470703 -181.10888672 108.66796875 C-179.75561279 108.52294922 -179.75561279 108.52294922 -178.375 108.375 C-175.97241707 104.77112561 -176.2921021 104.05175259 -177.0625 99.9375 C-177.35640625 98.34228516 -177.35640625 98.34228516 -177.65625 96.71484375 C-178.56710287 92.48234809 -179.67859055 88.32093963 -180.88671875 84.1640625 C-181.45509404 80.91750286 -181.18355705 78.56035935 -180.375 75.375 C-178.3125 72.9375 -178.3125 72.9375 -175.375 71.375 C-168.85254749 71.85840411 -162.68709191 73.43325934 -156.37890625 75.08984375 C-151.60030576 76.28234908 -148.76209822 76.56854911 -144.375 74.375 C-144.39071045 73.58327393 -144.4064209 72.79154785 -144.42260742 71.97583008 C-144.48506699 68.37979305 -144.52402635 64.7838703 -144.5625 61.1875 C-144.58763672 59.94162109 -144.61277344 58.69574219 -144.63867188 57.41210938 C-144.64833984 56.21005859 -144.65800781 55.00800781 -144.66796875 53.76953125 C-144.6836792 52.66456299 -144.69938965 51.55959473 -144.71557617 50.42114258 C-144.32928068 46.96608242 -143.4824922 45.11995688 -141.375 42.375 C-136.45095976 40.49762846 -133.60417744 41.47245454 -128.8359375 43.53515625 C-125.75661974 44.97283772 -122.70400789 46.45988784 -119.6484375 47.94726562 C-118.6584375 48.40939453 -117.6684375 48.87152344 -116.6484375 49.34765625 C-115.75560059 49.78343994 -114.86276367 50.21922363 -113.94287109 50.66821289 C-111.3598476 51.58513182 -111.3598476 51.58513182 -108.62402344 50.83105469 C-106.18113135 49.56518303 -106.18113135 49.56518303 -105.48779297 47.02416992 C-105.36549316 46.06099854 -105.24319336 45.09782715 -105.1171875 44.10546875 C-104.89095703 42.52475586 -104.89095703 42.52475586 -104.66015625 40.91210938 C-104.45712891 39.25405273 -104.45712891 39.25405273 -104.25 37.5625 C-103.96553617 35.38801747 -103.67158112 33.21475108 -103.3671875 31.04296875 C-103.24714355 30.07641357 -103.12709961 29.1098584 -103.00341797 28.11401367 C-102.29713362 25.0356127 -101.19416846 22.94519349 -99.375 20.375 C-96.12539338 18.75019669 -93.99608834 18.94835692 -90.375 19.375 C-87.0826443 21.19990151 -84.19642098 23.47930594 -81.25 25.8125 C-79.69089513 27.02727055 -78.12596046 28.23460385 -76.5546875 29.43359375 C-75.87132324 29.97298584 -75.18795898 30.51237793 -74.48388672 31.06811523 C-71.1825212 33.11398345 -68.20710213 33.375 -64.375 33.375 C-64.22804687 32.82714844 -64.08109375 32.27929688 -63.9296875 31.71484375 C-62.36515514 26.18503111 -60.50059939 20.79779316 -58.4375 15.4375 C-58.07664307 14.4618811 -58.07664307 14.4618811 -57.70849609 13.46655273 C-56.22976039 9.71083879 -54.96622449 7.33256943 -51.375 5.375 C-47.79546896 4.84187836 -46.03568504 4.96842459 -42.9375 6.875 C-40.19251202 9.55303705 -37.70372675 12.37233712 -35.19921875 15.2734375 C-30.01850159 21.6745657 -30.01850159 21.6745657 -22.9375 25.3125 C-21.6690625 25.3434375 -21.6690625 25.3434375 -20.375 25.375 C-20.14425781 24.71628906 -19.91351563 24.05757812 -19.67578125 23.37890625 C-17.9777807 19.45769776 -15.81710346 15.93513972 -13.5625 12.3125 C-13.13646484 11.60544922 -12.71042969 10.89839844 -12.27148438 10.16992188 C-9.12368414 5.09820137 -6.32820105 0.70313345 0 0 Z M-13.625 51.5 C-16.00179537 55.40473525 -16.57586134 58.82749934 -16.375 63.375 C-14.55025555 68.74785867 -11.42697929 71.84901035 -6.375 74.375 C-1.14907174 74.81787528 2.61892271 74.67024301 7.078125 71.765625 C10.51947227 68.67188857 12.39383117 64.89426851 12.81640625 60.2890625 C12.47774692 54.9320877 10.40971358 52.07169699 6.625 48.375 C-0.65499125 43.96789786 -7.75887963 45.95977521 -13.625 51.5 Z M-132.75 122.5625 C-135.20790877 124.62773155 -135.20790877 124.62773155 -136.375 127.375 C-134.83415946 127.37719984 -134.83415946 127.37719984 -133.26219082 127.37944412 C-108.22124406 127.41610426 -83.18043038 127.47563908 -58.13959408 127.55890274 C-46.02982816 127.59864426 -33.92012676 127.63106158 -21.81030273 127.64599609 C-11.25045581 127.65903794 -0.69075115 127.6860672 9.86901563 127.72961307 C15.45587651 127.75217086 21.04256228 127.76791409 26.62947273 127.76688385 C31.89824165 127.76613388 37.16662431 127.7842194 42.4352932 127.81616783 C44.35920574 127.82462047 46.28316183 127.82644864 48.20708466 127.82080269 C62.69131439 127.78399003 75.89812564 129.20930219 88.9375 136.125 C89.60209229 136.46934082 90.26668457 136.81368164 90.95141602 137.16845703 C104.70285991 144.51614871 116.04897154 155.64856586 121.625 170.375 C125.82583173 185.01426209 125.62642136 198.16212766 118.2421875 211.81640625 C112.17530917 221.4149698 104.73536414 228.31209264 95.7265625 235 C93.12573489 236.99156572 90.86280265 238.99388979 88.625 241.375 C89.58599609 242.10203125 89.58599609 242.10203125 90.56640625 242.84375 C105.36205 254.30982265 112.08804428 267.3241246 116.359375 285.5 C117.67079837 291.04928329 117.67079837 291.04928329 120.5625 295.875 C129.21789576 300.11437752 137.37952759 301.43184987 146.625 298.375 C153.16428406 294.92701386 156.84496713 290.30674889 159.03125 283.33203125 C160.34900097 276.76928465 160.362388 270.04534477 160.625 263.375 C170.525 262.88 170.525 262.88 180.625 262.375 C181.55619457 259.5814163 181.75358975 257.87573518 181.7578125 254.98828125 C181.75974609 253.7034082 181.75974609 253.7034082 181.76171875 252.39257812 C181.75785156 251.49990234 181.75398438 250.60722656 181.75 249.6875 C181.75386719 248.81416016 181.75773437 247.94082031 181.76171875 247.04101562 C181.76042969 246.17798828 181.75914062 245.31496094 181.7578125 244.42578125 C181.75668457 243.64887939 181.75555664 242.87197754 181.75439453 242.0715332 C181.71169434 241.18167725 181.66899414 240.29182129 181.625 239.375 C181.636521 238.7309169 181.64804199 238.0868338 181.65991211 237.42323303 C181.58655892 235.20164485 181.39276959 233.46491375 180.625 231.375 C177.96077451 229.48981007 176.01150196 228.43591853 173.046875 227.26953125 C171.90149261 226.77159309 171.90149261 226.77159309 170.73297119 226.26359558 C168.2920131 225.20782782 165.83583668 224.19595675 163.375 223.1875 C160.93201437 222.1617546 158.49350141 221.12702979 156.05987549 220.07926941 C154.54671264 219.43038383 153.02762501 218.79508859 151.50213623 218.17573547 C146.96773175 216.26255636 143.8518612 214.22998775 140.625 210.375 C138.139819 202.91945699 140.47584774 197.51569872 143.5625 190.75 C144.15091675 189.38270752 144.15091675 189.38270752 144.7512207 187.98779297 C146.84162687 183.16135924 149.0697335 178.48287923 151.578125 173.859375 C156.41643905 165.45426738 156.41643905 165.45426738 157.15917969 156.16162109 C155.24497045 151.80419591 152.33945041 148.37262743 149.09082031 144.93847656 C147.06768917 142.78055987 145.33950843 140.42453179 143.5625 138.0625 C139.40378766 133.02390041 135.08906122 128.14472146 130.625 123.375 C129.75359375 122.43785156 128.8821875 121.50070313 127.984375 120.53515625 C107.01267291 98.49752953 78.88977671 82.30194384 49.68896484 74.01513672 C47.65232611 73.38347517 45.73418299 72.61096739 43.76953125 71.78515625 C39.55669217 70.32464618 37.05469108 69.70645319 32.625 70.375 C26.77372116 73.94814936 22.18281865 79.11922521 17.62792969 84.17431641 C5.56801579 97.42493365 5.56801579 97.42493365 -2.3125 97.8125 C-6.95919694 97.92296031 -9.90108221 96.30360836 -13.375 93.375 C-16.14904374 90.67954515 -18.76585437 87.85436608 -21.375 85 C-28.20170586 77.51744927 -28.20170586 77.51744927 -35.375 70.375 C-70.50226685 70.375 -109.01726772 99.19943645 -132.75 122.5625 Z M-192.3125 186.5 C-193.91186742 190.82770006 -194.031874 194.82067359 -193.375 199.375 C-191.21201163 203.78108743 -188.97819521 206.5737497 -184.375 208.375 C-179.79459428 209.2293762 -176.04461797 209.39805023 -171.984375 206.91015625 C-167.42508373 203.0314786 -165.56657703 200.71223971 -165.0625 194.5625 C-165.13521795 190.15902422 -166.46533631 187.74408427 -169.375 184.375 C-173.21042484 181.06258764 -176.19838453 179.70199359 -181.3515625 179.98828125 C-185.89749987 180.8570994 -189.18780557 183.07291579 -192.3125 186.5 Z M166.625 183.375 C162.92381381 186.88138691 161.48753842 190.37227717 160.625 195.375 C161.33878414 201.1872423 163.56798919 203.72389398 167.96875 207.2109375 C171.66619986 209.80961689 175.22768315 209.9574804 179.625 209.375 C184.42142058 206.97678971 187.22678971 204.17142058 189.625 199.375 C190.43655954 192.98396864 189.39609363 189.57299393 185.625 184.375 C179.41362775 179.47128507 173.317857 179.68534806 166.625 183.375 Z M-149.375 183.375 C-147.195132 189.95002986 -147.195132 189.95002986 -144.625 196.375 C-142.98090327 200.73316118 -142.91774177 204.93952002 -144.375 209.375 C-147.54057737 214.25782867 -150.98535886 215.95575705 -156.16796875 218.109375 C-156.91460281 218.43286926 -157.66123688 218.75636353 -158.43049622 219.08966064 C-160.80249506 220.11442893 -163.18197607 221.12021621 -165.5625 222.125 C-167.95189237 223.14796236 -170.33961282 224.17471515 -172.72663879 225.20318604 C-174.20950469 225.84051709 -175.69407839 226.47389166 -177.1804657 227.10296631 C-180.51918742 228.35060291 -180.51918742 228.35060291 -183.375 230.375 C-183.51407303 232.83361934 -183.58773631 235.26195178 -183.61328125 237.72265625 C-183.62289383 238.47823318 -183.63250641 239.23381012 -183.64241028 240.01228333 C-183.66734606 242.48740056 -183.67971383 244.96227122 -183.6875 247.4375 C-183.69078308 248.27468567 -183.69406616 249.11187134 -183.69744873 249.97442627 C-183.71866707 266.65884854 -181.97394158 282.27870448 -177.375 298.375 C-160.215 298.375 -143.055 298.375 -125.375 298.375 C-125.375 260.425 -125.375 222.475 -125.375 183.375 C-133.295 183.375 -141.215 183.375 -149.375 183.375 Z M-42.375 184.375 C-42.375 195.265 -42.375 206.155 -42.375 217.375 C-30.91312478 217.49156531 -30.91312478 217.49156531 -19.45117188 217.5703125 C-14.76828622 217.59411796 -10.0857168 217.62211531 -5.40307617 217.67675781 C-1.62290318 217.72058743 2.15693016 217.74421422 5.93733788 217.75450897 C7.37129237 217.76183447 8.80523071 217.77613733 10.23903847 217.79792023 C19.44215068 217.93202979 29.29241922 217.95683612 36.65058899 211.63458252 C39.51664074 208.59350909 41.72992066 205.6767471 41.625 201.375 C40.5377645 195.44462456 37.93228692 192.2215045 33.1484375 188.69921875 C24.5008569 184.16124689 16.38167524 183.96954434 6.74609375 184.08203125 C5.32406566 184.08763764 3.90203172 184.0919028 2.47999573 184.09489441 C-1.23382008 184.10626131 -4.94727494 184.13565628 -8.66094971 184.16900635 C-13.1322509 184.20532915 -17.60367387 184.21890733 -22.07508087 184.23636627 C-28.84197039 184.26530024 -35.60807042 184.32284268 -42.375 184.375 Z M-42.375 268.375 C-42.375 278.935 -42.375 289.495 -42.375 300.375 C-27.195 300.705 -12.015 301.035 3.625 301.375 C3.625 319.855 3.625 338.335 3.625 357.375 C-70.625 357.87 -70.625 357.87 -146.375 358.375 C-144.38162575 362.3617485 -142.05916809 365.71343843 -139.3125 369.1875 C-138.87228516 369.79787109 -138.43207031 370.40824219 -137.97851562 371.03710938 C-135.97780109 373.53307814 -134.60156885 375.23498339 -131.32397461 375.60913086 C-128.93813307 375.37619444 -126.70575977 374.93379792 -124.375 374.375 C-123.61356689 374.21604248 -122.85213379 374.05708496 -122.06762695 373.89331055 C-119.72539926 373.39461072 -117.395271 372.85352629 -115.0625 372.3125 C-99.36528375 368.89353198 -99.36528375 368.89353198 -93.375 370.375 C-88.2315131 373.76416802 -86.60774787 376.09269101 -85.3125 382.25 C-85.15442871 382.92401855 -84.99635742 383.59803711 -84.83349609 384.29248047 C-83.84471599 388.61442191 -83.13633841 392.93966362 -82.51171875 397.328125 C-81.21558696 408.14289417 -81.21558696 408.14289417 -75.609375 416.96484375 C-72.58075215 418.29250749 -69.70531552 419.20949467 -66.47167969 419.89013672 C-64.2438306 420.40533331 -62.15916662 421.10568929 -60.0078125 421.87890625 C-18.4490649 436.62656046 29.17397949 434.79359768 69.625 417.375 C70.38296875 417.11589844 71.1409375 416.85679687 71.921875 416.58984375 C74.63473771 414.65475131 74.79521399 412.37332808 75.5625 409.1875 C75.72306885 408.5476416 75.8836377 407.9077832 76.04907227 407.24853516 C77.08905867 403.00254216 77.9627802 398.72906495 78.8125 394.44140625 C79.02011963 393.41877686 79.22773926 392.39614746 79.44165039 391.3425293 C79.84973346 389.30981667 80.2401043 387.27345299 80.61108398 385.23364258 C81.75183589 379.52209965 82.76106929 376.02845022 87.625 372.375 C95.21372079 367.71735122 106.44372863 372.0757987 114.5 374 C115.50546875 374.24234375 116.5109375 374.4846875 117.546875 374.734375 C118.51882813 374.95867187 119.49078125 375.18296875 120.4921875 375.4140625 C121.35956543 375.62240723 122.22694336 375.83075195 123.12060547 376.04541016 C125.94603385 376.41724953 127.90354591 376.20668089 130.625 375.375 C132.67807116 373.50020673 134.44331021 371.70964207 136.25 369.625 C136.72695313 369.0990625 137.20390625 368.573125 137.6953125 368.03125 C140.40993425 364.98484115 142.57919442 361.89208882 144.625 358.375 C143.65304687 358.37135437 142.68109375 358.36770874 141.6796875 358.36395264 C132.49910737 358.32693674 123.31886062 358.26909222 114.13853455 358.19109726 C109.41932834 358.1516663 104.7003075 358.11945638 99.98095703 358.10400391 C95.42252443 358.08880839 90.8646016 358.05431172 86.30639648 358.00669098 C84.57141563 357.99190697 82.83636199 357.9839607 81.10131836 357.98311615 C78.66205129 357.98073567 76.22418077 357.95357155 73.78515625 357.92089844 C72.72023705 357.92844398 72.72023705 357.92844398 71.63380432 357.93614197 C65.02022721 357.79997008 60.01531284 355.41551096 55.0625 351.1875 C53.8559375 349.7953125 53.8559375 349.7953125 52.625 348.375 C52.0578125 347.7253125 51.490625 347.075625 50.90625 346.40625 C41.70094787 335.32868303 39.88657186 322.12322802 37.125 308.38818359 C33.35858918 288.92836898 33.35858918 288.92836898 21.625 273.375 C16.1399412 269.77791433 10.94049254 268.24559346 4.39746094 268.26147461 C3.35668396 268.26155014 2.31590698 268.26162567 1.24359131 268.26170349 C0.12679993 268.26686478 -0.98999146 268.27202606 -2.140625 268.27734375 C-3.28915955 268.2787587 -4.43769409 268.28017365 -5.62103271 268.28163147 C-9.28904831 268.28722857 -12.95700285 268.29978056 -16.625 268.3125 C-19.11197829 268.31751537 -21.59895753 268.32207822 -24.0859375 268.32617188 C-30.18233411 268.3363461 -36.27859871 268.35592225 -42.375 268.375 Z M-125.375 397.375 C-126.98108952 400.58717903 -126.85516287 403.89057486 -126.375 407.375 C-123.84079412 412.0064797 -121.44402315 415.68532562 -116.375 417.375 C-111.68368877 417.92008569 -108.27169352 417.82334676 -104 415.6875 C-100.48019236 412.58671708 -98.88637309 410.01869922 -97.5 405.5625 C-97.30420953 400.56984297 -98.45162185 396.53230252 -101.8203125 392.75390625 C-105.76557426 389.5151216 -109.24159953 388.70172187 -114.30078125 389.01953125 C-119.64825474 389.93595326 -122.32441976 393.12597752 -125.375 397.375 Z M96.75 395.0625 C94.24420899 398.96858599 93.20011866 401.74466045 93.625 406.375 C94.89590758 410.94362202 96.91088767 414.29360519 100.9375 416.875 C105.46709238 418.71754605 108.77623065 419.38856215 113.48046875 417.71484375 C117.44483541 415.76224525 120.06351927 413.34276739 122.0234375 409.36328125 C123.42556045 404.72899175 122.79103844 400.55408603 120.5234375 396.31640625 C117.35656368 392.06147242 114.09931761 390.190443 108.86328125 389.3984375 C103.60379586 389.34336435 100.46675824 391.58813904 96.75 395.0625 Z " fill="#5B473B" transform="translate(257.375,2.625)"/>
<path d="M0 0 C6.61124487 2.50771357 9.2919031 8.994208 12.6328125 14.9296875 C12.97513916 15.52233398 13.31746582 16.11498047 13.67016602 16.72558594 C14.64828905 18.43160902 15.592502 20.15693812 16.53515625 21.8828125 C18.41866803 24.61761675 18.41866803 24.61761675 21.5 25.125 C25.8210852 24.08793955 27.83151142 21.54026728 30.5625 18.25 C31.61342522 17.05382364 32.66678982 15.85978576 33.72265625 14.66796875 C34.22297363 14.0961084 34.72329102 13.52424805 35.23876953 12.93505859 C38.64522438 9.10144702 41.62099633 5.7679419 46.8125 4.75 C50.30545182 5.52621152 51.30693924 6.6924661 53.625 9.375 C54.81347656 11.70922852 54.81347656 11.70922852 55.765625 14.25390625 C56.11367188 15.17494141 56.46171875 16.09597656 56.8203125 17.04492188 C57.16835938 17.99947266 57.51640625 18.95402344 57.875 19.9375 C58.42027344 21.37512695 58.42027344 21.37512695 58.9765625 22.84179688 C61.625 29.94578242 61.625 29.94578242 61.625 33.375 C67.74605557 34.21900097 70.66685387 32.43722493 75.54101562 28.80273438 C76.72727539 27.87944336 76.72727539 27.87944336 77.9375 26.9375 C79.5372216 25.72975473 81.13745685 24.52268942 82.73828125 23.31640625 C83.43735596 22.77701416 84.13643066 22.23762207 84.85668945 21.68188477 C88.46572021 19.01460026 91.16295429 18.99034089 95.625 19.375 C99.25341795 22.19491177 100.18205348 24.37976368 100.75 28.875 C100.97429687 30.4528125 100.97429687 30.4528125 101.203125 32.0625 C101.484375 34.27083333 101.765625 36.47916667 102.046875 38.6875 C102.27117187 40.2653125 102.27117187 40.2653125 102.5 41.875 C102.62117188 42.8340625 102.74234375 43.793125 102.8671875 44.78125 C103.78183591 47.91179919 105.1795354 49.27605872 107.625 51.375 C111.19292902 50.29605826 114.54210865 48.99177638 117.90234375 47.39453125 C118.66353516 47.03552734 119.42472656 46.67652344 120.20898438 46.30664062 C121.77939278 45.55988211 123.34456484 44.80201183 124.90429688 44.03320312 C129.82857451 41.73964693 133.20619741 40.65915888 138.625 42.375 C140.546875 43.86328125 140.546875 43.86328125 141.625 46.375 C141.99519339 49.44898187 141.95162829 52.47102734 141.875 55.5625 C141.86984375 56.37525391 141.8646875 57.18800781 141.859375 58.02539062 C141.78927245 63.53282258 141.30599363 68.91057533 140.625 74.375 C144.24163194 76.35963158 146.03444246 76.46272663 150.125 75.6875 C151.18074219 75.4915625 152.23648437 75.295625 153.32421875 75.09375 C156.56181534 74.38875855 159.74042388 73.55613955 162.9375 72.6875 C167.66073091 71.47578108 170.94743434 70.8821599 175.625 72.375 C177.44657691 74.3230753 178.5380998 75.60237822 178.83984375 78.28515625 C178.74832031 78.99542969 178.65679687 79.70570312 178.5625 80.4375 C178.45292969 81.29601562 178.34335937 82.15453125 178.23046875 83.0390625 C177.73533203 85.76710611 177.16940957 88.44714656 176.55078125 91.1484375 C176.35943604 91.99656006 176.16809082 92.84468262 175.97094727 93.71850586 C175.57614559 95.43696872 175.16405041 97.15155701 174.73413086 98.86157227 C174.45581421 100.05737915 174.45581421 100.05737915 174.171875 101.27734375 C173.99495117 101.99398193 173.81802734 102.71062012 173.63574219 103.44897461 C173.45320534 105.44569735 173.45320534 105.44569735 174.71435547 107.12158203 C177.44035209 108.90988597 179.41090992 108.65034573 182.6484375 108.52734375 C183.834375 108.49962891 185.0203125 108.47191406 186.2421875 108.44335938 C188.73973215 108.35638667 191.23713593 108.26526625 193.734375 108.16992188 C195.51714844 108.1302832 195.51714844 108.1302832 197.3359375 108.08984375 C198.42181152 108.04980225 199.50768555 108.00976074 200.62646484 107.96850586 C204.38124293 108.4775195 205.98966387 109.69915717 208.625 112.375 C210.01987446 119.65934443 205.90409873 125.76786365 202.73632812 132.08007812 C199.64791158 138.45294259 199.64791158 138.45294259 200.625 145.375 C207.1317018 147.10566383 213.60061961 148.2223282 220.265625 149.14257812 C227.66827925 150.27423389 227.66827925 150.27423389 230.625 153.375 C231.75 156.5 231.75 156.5 231.625 160.375 C229.50073197 164.83767598 226.26753792 168.57722492 223.18359375 172.40625 C222.77093262 172.92936768 222.35827148 173.45248535 221.93310547 173.99145508 C220.73521628 175.50231689 219.51066577 176.99192304 218.28515625 178.48046875 C216.36126763 181.25686544 216.36126763 181.25686544 216.69360352 184.40283203 C217.32289011 187.52323713 217.32289011 187.52323713 219.89404297 188.8347168 C220.87518066 189.16125244 221.85631836 189.48778809 222.8671875 189.82421875 C223.93324219 190.19740234 224.99929688 190.57058594 226.09765625 190.95507812 C227.22042969 191.32052734 228.34320313 191.68597656 229.5 192.0625 C231.70818018 192.80919677 233.91403497 193.56281561 236.1171875 194.32421875 C237.59227783 194.80894653 237.59227783 194.80894653 239.09716797 195.3034668 C241.64973961 196.38548697 242.99096995 197.15316276 244.625 199.375 C245.33033643 204.84135731 245.33033643 204.84135731 244.625 207.375 C242.48046875 209.7421875 242.48046875 209.7421875 239.625 212.375 C238.60546335 213.39586115 237.5912891 214.42210072 236.58203125 215.453125 C235.53387692 216.51043923 234.48569962 217.56773067 233.4375 218.625 C232.63795898 219.43710937 232.63795898 219.43710937 231.82226562 220.265625 C227.85073758 224.26213121 227.85073758 224.26213121 225.625 225.375 C225.39146889 228.16817232 225.39146889 228.16817232 226.625 231.375 C229.47289944 233.83725444 232.67850561 235.63294241 235.9375 237.5 C237.66559694 238.51864066 239.39095727 239.54194101 241.11328125 240.5703125 C241.88196533 241.01391113 242.65064941 241.45750977 243.44262695 241.91455078 C245.85664265 243.53001581 247.73088233 245.17148253 249.625 247.375 C250.1875 250.8125 250.1875 250.8125 249.625 254.375 C245.12073252 259.85923785 239.01663569 262.82434843 232.8671875 266.18164062 C228.0639457 268.8739756 228.0639457 268.8739756 225.37109375 273.515625 C225.37759636 276.35595344 225.37759636 276.35595344 226.92578125 278.17578125 C227.58964844 278.67464844 228.25351562 279.17351562 228.9375 279.6875 C229.66710937 280.265 230.39671875 280.8425 231.1484375 281.4375 C231.96570313 282.076875 232.78296875 282.71625 233.625 283.375 C235.45012215 284.96479121 237.26263109 286.56917406 239.0625 288.1875 C240.32900391 289.31091797 240.32900391 289.31091797 241.62109375 290.45703125 C244.83825873 293.53622814 244.83210308 295.9259532 245.1484375 300.3046875 C244.28934023 303.70260954 242.57870825 304.5121705 239.625 306.375 C235.91434694 307.97103494 232.12920488 309.30636876 228.3125 310.625 C226.77239258 311.17027344 226.77239258 311.17027344 225.20117188 311.7265625 C222.67873951 312.61821301 220.15347893 313.50067508 217.625 314.375 C216.69929296 317.06740058 216.69929296 317.06740058 216.625 320.375 C218.08817318 322.78177058 219.43549526 324.64978856 221.25 326.75 C222.17783402 327.89417174 223.1036301 329.03999922 224.02734375 330.1875 C224.47577637 330.73535156 224.92420898 331.28320312 225.38623047 331.84765625 C231.59429347 339.50190185 231.59429347 339.50190185 231.6875 345.1875 C230.48252819 348.80241543 229.8114484 349.46388176 226.625 351.375 C224.01538086 352.03515625 224.01538086 352.03515625 221.08984375 352.4375 C220.03345703 352.59476562 218.97707031 352.75203125 217.88867188 352.9140625 C215.66739125 353.2218853 213.4460367 353.52917515 211.22460938 353.8359375 C210.16951172 353.99320312 209.11441406 354.15046875 208.02734375 354.3125 C207.06304443 354.44527344 206.09874512 354.57804687 205.10522461 354.71484375 C202.38298604 355.43941635 201.28941761 356.12747487 199.625 358.375 C199.63015424 360.51116642 199.63015424 360.51116642 200.1875 362.75 C200.84809085 367.04036373 200.84809085 367.04036373 198.75 370.1875 C198.04875 370.909375 197.3475 371.63125 196.625 372.375 C195.4514763 375.44421583 195.54776767 376.143303 196.625 379.375 C198.64008358 380.10823796 198.64008358 380.10823796 200.625 380.375 C200.01222388 383.33675123 199.37127478 384.75558783 197.625 387.375 C195 387.5625 195 387.5625 192.625 387.375 C191.4375 385.125 191.4375 385.125 190.625 382.375 C192.07421875 380.203125 192.07421875 380.203125 193.625 378.375 C187.18429529 378.26844422 180.99858711 378.41294912 174.625 379.375 C176.03412127 376.44043849 177.62118755 373.7102606 179.375 370.96875 C180.16390625 369.72931641 180.16390625 369.72931641 180.96875 368.46484375 C182.07291667 366.73828125 183.17708333 365.01171875 184.28125 363.28515625 C185.07015625 362.04572266 185.07015625 362.04572266 185.875 360.78125 C186.35453125 360.03166016 186.8340625 359.28207031 187.328125 358.50976562 C188.54502925 356.5066386 189.59132184 354.47666469 190.625 352.375 C191.0684375 351.68921875 191.511875 351.0034375 191.96875 350.296875 C194.45067229 345.91838944 196.24182372 341.28632743 198.125 336.625 C198.51558594 335.67367188 198.90617187 334.72234375 199.30859375 333.7421875 C200.43955422 330.96238568 201.54050879 328.17323011 202.625 325.375 C203.11226563 324.1384668 203.11226563 324.1384668 203.609375 322.87695312 C205.37073773 318.10125826 205.52970587 315.43224073 204.625 310.375 C205.14901069 307.12105062 206.04950959 303.98368033 206.9375 300.8125 C220.74757158 248.59849481 211.52118254 191.57983123 185.08691406 144.87988281 C169.39331768 117.99005334 148.29799741 94.09216382 122.625 76.375 C121.90441406 75.87452148 121.18382812 75.37404297 120.44140625 74.85839844 C92.93775705 56.01912379 61.6396608 43.90667754 28.625 39.375 C27.84463379 39.26075684 27.06426758 39.14651367 26.26025391 39.02880859 C-28.84248863 31.14363768 -85.61832318 46.82400908 -129.9921875 80.0625 C-137.8603396 86.06717056 -145.21687651 92.54632989 -152.375 99.375 C-153.22707031 100.17421875 -154.07914062 100.9734375 -154.95703125 101.796875 C-193.84862732 139.27979909 -214.55598038 194.68841543 -215.6628418 248.06030273 C-216.0643628 296.94647924 -199.98885943 346.33020231 -168.67578125 384.18969727 C-165.375 388.19018048 -165.375 388.19018048 -165.375 390.375 C-166.695 390.705 -168.015 391.035 -169.375 391.375 C-169.705 392.695 -170.035 394.015 -170.375 395.375 C-173.13776177 394.85231534 -175.7010876 394.26630413 -178.375 393.375 C-180.45574054 393.34988328 -182.53742255 393.38464312 -184.6171875 393.453125 C-185.84824219 393.47890625 -187.07929688 393.5046875 -188.34765625 393.53125 C-190.94183405 393.59357259 -193.53568356 393.67161088 -196.12890625 393.765625 C-205.44118061 393.92131611 -205.44118061 393.92131611 -209.8203125 391.359375 C-211.90496251 387.35768503 -211.68068745 384.54418239 -210.375 380.375 C-208.62157486 376.17745955 -206.4879697 372.18911104 -204.34960938 368.17773438 C-201.9402053 363.52927745 -201.9402053 363.52927745 -201.60546875 358.41796875 C-204.2912023 355.31722118 -207.49604185 354.97519685 -211.375 354.375 C-212.12587891 354.25543945 -212.87675781 354.13587891 -213.65039062 354.01269531 C-216.76814505 353.54066888 -219.88760672 353.0939815 -223.015625 352.6953125 C-226.48845159 352.17908152 -228.9226242 351.65946944 -231.921875 349.7734375 C-234.04045859 346.27663555 -234.28856863 343.27306885 -233.375 339.375 C-231.7556941 336.31258581 -229.70003145 333.72821317 -227.5 331.0625 C-226.39830224 329.67067997 -225.29673455 328.27875698 -224.1953125 326.88671875 C-223.45692139 325.98119263 -223.45692139 325.98119263 -222.70361328 325.05737305 C-219.93981699 321.62158305 -219.93981699 321.62158305 -219.42236328 317.33837891 C-220.07449258 314.22677616 -220.07449258 314.22677616 -222.64404297 312.93115234 C-223.62518066 312.61098145 -224.60631836 312.29081055 -225.6171875 311.9609375 C-226.68324219 311.59226562 -227.74929687 311.22359375 -228.84765625 310.84375 C-229.97042969 310.4828125 -231.09320313 310.121875 -232.25 309.75 C-234.45960295 309.01942608 -236.66555048 308.27767744 -238.8671875 307.5234375 C-239.85058105 307.20552246 -240.83397461 306.88760742 -241.84716797 306.56005859 C-244.71449931 305.21584125 -245.80921997 304.10099737 -247.375 301.375 C-247.95344634 297.99148511 -248.20615185 295.62136982 -246.24121094 292.67480469 C-244.65554168 290.92798598 -242.99585321 289.33644922 -241.25 287.75 C-240.39535156 286.93015625 -240.39535156 286.93015625 -239.5234375 286.09375 C-237.29109475 283.97302439 -235.0899538 281.90045749 -232.60644531 280.07519531 C-229.85991201 278.0520288 -228.4870724 276.70899354 -227.390625 273.44140625 C-229.04078596 268.30102391 -233.54925072 266.75479042 -238.125 264.3125 C-249.6591784 258.00424137 -249.6591784 258.00424137 -252.375 253.375 C-252.625 249.9375 -252.625 249.9375 -251.375 246.375 C-248.09374869 242.77713672 -243.71863069 240.5534468 -239.5078125 238.2109375 C-238.8286377 237.82534668 -238.14946289 237.43975586 -237.44970703 237.04248047 C-236.08017752 236.27181795 -234.69821161 235.52280194 -233.30419922 234.79736328 C-230.17978548 233.0505068 -228.57613303 232.0154499 -227.484375 228.5390625 C-228.83144686 223.75341246 -231.931159 221.42492803 -235.625 218.25 C-236.98467576 217.03940022 -238.34405889 215.82847166 -239.703125 214.6171875 C-240.34241943 214.05290039 -240.98171387 213.48861328 -241.64038086 212.90722656 C-247.30941975 207.89964204 -247.30941975 207.89964204 -247.8125 203.875 C-247.34334669 200.12177351 -246.91572787 199.05365505 -244.375 196.375 C-241.84716797 195.18994141 -241.84716797 195.18994141 -238.8671875 194.2265625 C-237.79855469 193.86046875 -236.72992188 193.494375 -235.62890625 193.1171875 C-233.37156857 192.37083076 -231.11110025 191.63387838 -228.84765625 190.90625 C-227.78160156 190.53757813 -226.71554688 190.16890625 -225.6171875 189.7890625 C-224.6360498 189.4688916 -223.65491211 189.1487207 -222.64404297 188.81884766 C-220.09481789 187.52654603 -220.09481789 187.52654603 -219.37792969 184.50463867 C-219.37455701 180.90177923 -219.93659377 179.71948114 -222.0859375 176.88671875 C-222.96378906 175.70432617 -222.96378906 175.70432617 -223.859375 174.49804688 C-224.48328125 173.69431641 -225.1071875 172.89058594 -225.75 172.0625 C-226.67425781 170.82790039 -226.67425781 170.82790039 -227.6171875 169.56835938 C-230.33151415 165.83272913 -230.33151415 165.83272913 -233.375 162.375 C-233.97090912 155.10490871 -233.97090912 155.10490871 -231.69213867 152.3137207 C-228.96647409 150.03319152 -227.37053313 149.69163994 -223.875 149.25 C-222.2971875 149.02570313 -222.2971875 149.02570313 -220.6875 148.796875 C-218.47916667 148.515625 -216.27083333 148.234375 -214.0625 147.953125 C-213.010625 147.80359375 -211.95875 147.6540625 -210.875 147.5 C-209.9159375 147.37882813 -208.956875 147.25765625 -207.96875 147.1328125 C-204.83820081 146.21816409 -203.47394128 144.8204646 -201.375 142.375 C-202.45394174 138.80707098 -203.75822362 135.45789135 -205.35546875 132.09765625 C-205.71447266 131.33646484 -206.07347656 130.57527344 -206.44335938 129.79101562 C-207.19011789 128.22060722 -207.94798817 126.65543516 -208.71679688 125.09570312 C-211.01035307 120.17142549 -212.09084112 116.79380259 -210.375 111.375 C-208.03475867 109.00031803 -206.7282052 108.40957711 -203.38232422 108.08203125 C-202.2429541 108.11683594 -201.10358398 108.15164062 -199.9296875 108.1875 C-198.68832031 108.21070312 -197.44695312 108.23390625 -196.16796875 108.2578125 C-194.87503906 108.29648438 -193.58210938 108.33515625 -192.25 108.375 C-189.68526791 108.45125566 -187.120103 108.51444851 -184.5546875 108.5625 C-182.84901611 108.61470703 -182.84901611 108.61470703 -181.10888672 108.66796875 C-179.75561279 108.52294922 -179.75561279 108.52294922 -178.375 108.375 C-175.97241707 104.77112561 -176.2921021 104.05175259 -177.0625 99.9375 C-177.35640625 98.34228516 -177.35640625 98.34228516 -177.65625 96.71484375 C-178.56710287 92.48234809 -179.67859055 88.32093963 -180.88671875 84.1640625 C-181.45509404 80.91750286 -181.18355705 78.56035935 -180.375 75.375 C-178.3125 72.9375 -178.3125 72.9375 -175.375 71.375 C-168.85254749 71.85840411 -162.68709191 73.43325934 -156.37890625 75.08984375 C-151.60030576 76.28234908 -148.76209822 76.56854911 -144.375 74.375 C-144.39071045 73.58327393 -144.4064209 72.79154785 -144.42260742 71.97583008 C-144.48506699 68.37979305 -144.52402635 64.7838703 -144.5625 61.1875 C-144.58763672 59.94162109 -144.61277344 58.69574219 -144.63867188 57.41210938 C-144.64833984 56.21005859 -144.65800781 55.00800781 -144.66796875 53.76953125 C-144.6836792 52.66456299 -144.69938965 51.55959473 -144.71557617 50.42114258 C-144.32928068 46.96608242 -143.4824922 45.11995688 -141.375 42.375 C-136.45095976 40.49762846 -133.60417744 41.47245454 -128.8359375 43.53515625 C-125.75661974 44.97283772 -122.70400789 46.45988784 -119.6484375 47.94726562 C-118.6584375 48.40939453 -117.6684375 48.87152344 -116.6484375 49.34765625 C-115.75560059 49.78343994 -114.86276367 50.21922363 -113.94287109 50.66821289 C-111.3598476 51.58513182 -111.3598476 51.58513182 -108.62402344 50.83105469 C-106.18113135 49.56518303 -106.18113135 49.56518303 -105.48779297 47.02416992 C-105.36549316 46.06099854 -105.24319336 45.09782715 -105.1171875 44.10546875 C-104.89095703 42.52475586 -104.89095703 42.52475586 -104.66015625 40.91210938 C-104.45712891 39.25405273 -104.45712891 39.25405273 -104.25 37.5625 C-103.96553617 35.38801747 -103.67158112 33.21475108 -103.3671875 31.04296875 C-103.24714355 30.07641357 -103.12709961 29.1098584 -103.00341797 28.11401367 C-102.29713362 25.0356127 -101.19416846 22.94519349 -99.375 20.375 C-96.12539338 18.75019669 -93.99608834 18.94835692 -90.375 19.375 C-87.0826443 21.19990151 -84.19642098 23.47930594 -81.25 25.8125 C-79.69089513 27.02727055 -78.12596046 28.23460385 -76.5546875 29.43359375 C-75.87132324 29.97298584 -75.18795898 30.51237793 -74.48388672 31.06811523 C-71.1825212 33.11398345 -68.20710213 33.375 -64.375 33.375 C-64.22804687 32.82714844 -64.08109375 32.27929688 -63.9296875 31.71484375 C-62.36515514 26.18503111 -60.50059939 20.79779316 -58.4375 15.4375 C-58.07664307 14.4618811 -58.07664307 14.4618811 -57.70849609 13.46655273 C-56.22976039 9.71083879 -54.96622449 7.33256943 -51.375 5.375 C-47.79546896 4.84187836 -46.03568504 4.96842459 -42.9375 6.875 C-40.19251202 9.55303705 -37.70372675 12.37233712 -35.19921875 15.2734375 C-30.01850159 21.6745657 -30.01850159 21.6745657 -22.9375 25.3125 C-21.6690625 25.3434375 -21.6690625 25.3434375 -20.375 25.375 C-20.14425781 24.71628906 -19.91351563 24.05757812 -19.67578125 23.37890625 C-17.9777807 19.45769776 -15.81710346 15.93513972 -13.5625 12.3125 C-13.13646484 11.60544922 -12.71042969 10.89839844 -12.27148438 10.16992188 C-9.12368414 5.09820137 -6.32820105 0.70313345 0 0 Z " fill="#74462D" transform="translate(257.375,2.625)"/>
<path d="M0 0 C0.84578613 0.12858398 1.69157227 0.25716797 2.56298828 0.38964844 C31.09232531 4.99323269 60.56570884 17.08471497 84 34 C84.95543701 34.6801416 84.95543701 34.6801416 85.93017578 35.37402344 C94.58403273 41.56805827 102.77506316 48.06592102 110.42675781 55.47802734 C111.53196446 56.54721702 112.64391845 57.6094547 113.76074219 58.66650391 C128.89665246 73.01018742 140.64706848 88.94069055 151 107 C151.39670898 107.6796582 151.79341797 108.35931641 152.20214844 109.05957031 C179.10454908 155.4904529 184.9904013 213.27274168 171.84082031 264.92578125 C162.36167395 299.5835661 145.6030106 331.53500241 120.52197266 357.42675781 C119.45278298 358.53196446 118.3905453 359.64391845 117.33349609 360.76074219 C107.98880728 370.62155453 98.08804999 379.15152268 87 387 C86.13737549 387.61367432 86.13737549 387.61367432 85.25732422 388.23974609 C55.14072548 409.35102346 20.34807379 421.08917668 -16 425 C-16.81952148 425.09498779 -17.63904297 425.18997559 -18.48339844 425.2878418 C-24.54064314 425.95618235 -30.53257991 426.19185406 -36.625 426.1875 C-37.57197754 426.18814453 -38.51895508 426.18878906 -39.49462891 426.18945312 C-47.78519817 426.12794831 -55.81657665 425.31309945 -64 424 C-64 423.34 -64 422.68 -64 422 C-63.351521 422.03029297 -62.70304199 422.06058594 -62.03491211 422.09179688 C-23.91194723 423.8469046 13.64428004 422.14985979 48.67578125 405.1015625 C51.0382412 403.9818756 53.42056156 403.08498941 55.875 402.1875 C61.29006536 400.06968429 66.02823881 397.03836148 70.921875 393.92578125 C73.35492116 392.40358359 75.76064035 391.05027963 78.3125 389.75 C82.94718771 387.23377962 87.09878314 384.09035834 91.3125 380.9375 C92.00706299 380.41833008 92.70162598 379.89916016 93.41723633 379.36425781 C96.85239495 376.75709476 100.01119248 374.12193926 103 371 C104.24032137 369.90559879 105.49043222 368.82219406 106.75 367.75 C115.13036728 360.4579921 123.30455559 352.59232743 129 343 C129.66 343 130.32 343 131 343 C131.309375 341.9790625 131.309375 341.9790625 131.625 340.9375 C133.18827771 337.59777035 135.17303061 335.33623587 137.66015625 332.6484375 C139.22046555 330.92688805 139.22046555 330.92688805 140 328 C140.66 328 141.32 328 142 328 C142.3403125 327.03320312 142.3403125 327.03320312 142.6875 326.046875 C144.09794837 322.77261986 145.79497731 319.8011783 147.57958984 316.72021484 C166.19520431 284.34606786 175.15970466 248.48641028 175.25 211.25 C175.25200409 210.5772403 175.25400818 209.90448059 175.256073 209.21133423 C175.26457137 197.47231082 174.22015424 186.07330195 172.36376953 174.48193359 C171.75628072 170.33714752 171.37355633 166.17147179 171 162 C170.34 162 169.68 162 169 162 C168.83564453 160.96552734 168.83564453 160.96552734 168.66796875 159.91015625 C167.73947042 154.40710518 166.53550312 149.2707815 164.6640625 144.015625 C163.7964494 141.38216406 163.35199854 138.74558864 163 136 C162.34 136 161.68 136 161 136 C160.67 134.845 160.34 133.69 160 132.5 C158.39552936 127.67116049 156.25634269 123.17460736 154 118.625 C153.48373047 117.5721582 153.48373047 117.5721582 152.95703125 116.49804688 C151.08582799 112.71315962 151.08582799 112.71315962 148.44213867 109.46313477 C146.32995536 107.32020018 145.90173621 104.84064726 145 102 C140.72845555 93.94321001 134.89565479 86.7971412 129.26831055 79.6628418 C128.44133667 78.60577026 128.44133667 78.60577026 127.59765625 77.52734375 C126.84754272 76.57976196 126.84754272 76.57976196 126.08227539 75.61303711 C125 74 125 74 125 72 C124.443125 71.773125 123.88625 71.54625 123.3125 71.3125 C121.01353225 70.00768047 119.38535451 68.53917738 117.5703125 66.6328125 C116.29898437 65.31088424 114.99414479 64.02123854 113.6796875 62.7421875 C112.85726563 61.94039063 112.03484375 61.13859375 111.1875 60.3125 C110.39730469 59.54550781 109.60710937 58.77851562 108.79296875 57.98828125 C107 56 107 56 107 54 C106.195625 53.6596875 106.195625 53.6596875 105.375 53.3125 C101.66139954 51.26024711 98.61426866 48.39850008 95.421875 45.6328125 C92.74428909 43.34739826 90.25536488 41.37726976 87 40 C87 39.34 87 38.68 87 38 C86.29617188 37.74476562 85.59234375 37.48953125 84.8671875 37.2265625 C81.71685415 35.87887221 79.01258851 34.21923592 76.125 32.375 C57.1621429 20.51298844 37.43431519 13.19802636 16 7 C14.88882812 6.66871094 13.77765625 6.33742188 12.6328125 5.99609375 C9.76648731 5.2026617 6.9197024 4.5689126 4 4 C3.319375 3.86609863 2.63875 3.73219727 1.9375 3.59423828 C-43.63301077 -4.95985464 -93.14963828 2.21669108 -134 24 C-136.66606926 25.29615225 -139.33641069 26.58242124 -142.01171875 27.859375 C-144.05236528 29.03004059 -145.37285063 30.31935531 -147 32 C-148.66026161 32.96295173 -150.32271734 33.92248027 -152 34.85546875 C-164.239556 41.85974591 -175.33121093 50.77929274 -185 61 C-190 66 -190 66 -191.8671875 67.796875 C-195.77241799 71.59894846 -199.24352962 75.42848768 -202.421875 79.85546875 C-204.89633169 83.21803489 -207.59299045 86.39934319 -210.265625 89.60546875 C-212.07865288 91.88964365 -212.07865288 91.88964365 -212.921875 94.42578125 C-214.09398432 97.2244046 -215.72549641 99.15910797 -217.70214844 101.43652344 C-225.30745609 110.59837261 -229.61714973 122.43764502 -233.9375 133.375 C-234.41010254 134.56303223 -234.88270508 135.75106445 -235.36962891 136.97509766 C-237.67624477 142.95220498 -239.59497122 148.71119666 -240.63671875 155.04125977 C-241 157 -241 157 -242.0625 159.5625 C-243.23470189 162.61022492 -243.42789022 165.47604108 -243.65625 168.71875 C-244 171 -244 171 -244.9296875 173.16796875 C-246.48398286 177.28061157 -246.99110422 181.47548855 -247.625 185.8125 C-247.7590625 186.69615234 -247.893125 187.57980469 -248.03125 188.49023438 C-248.3595571 190.6594063 -248.68229876 192.82925378 -249 195 C-248.34 195.33 -247.68 195.66 -247 196 C-247.66 196 -248.32 196 -249 196 C-248.89171875 197.12921875 -248.89171875 197.12921875 -248.78125 198.28125 C-248.2172103 204.73637101 -247.89277765 211.14800985 -247.875 217.625 C-247.87048828 218.31142578 -247.86597656 218.99785156 -247.86132812 219.70507812 C-247.87043383 222.74942012 -248.02939937 225.08819812 -249 228 C-248.34 228.33 -247.68 228.66 -247 229 C-247.02175293 229.74008301 -247.04350586 230.48016602 -247.06591797 231.24267578 C-247.18459534 238.36670865 -246.62601465 244.916794 -245.125 251.875 C-244.9094043 252.88457764 -244.69380859 253.89415527 -244.47167969 254.93432617 C-236.64466515 289.54555211 -221.98187882 319.21068158 -200 347 C-198.99066406 348.28970703 -198.99066406 348.28970703 -197.9609375 349.60546875 C-186.90947704 363.6164027 -173.00660897 375.384378 -158.2890625 385.4296875 C-156.19570351 386.86574606 -154.16070009 388.35905312 -152.125 389.875 C-149.41952158 391.71472533 -148.05995091 392.37741259 -145 393 C-145 393.66 -145 394.32 -145 395 C-144.27361328 395.28141846 -143.54722656 395.56283691 -142.79882812 395.8527832 C-140.20109653 396.91757218 -137.72388065 398.09059876 -135.21875 399.35546875 C-112.59503788 410.60546777 -89.72368483 417.1614042 -65 422 C-65 422.33 -65 422.66 -65 423 C-110.37316985 423.95258589 -156.43112353 394.16386389 -188 364 C-188.87527344 363.16597656 -189.75054687 362.33195312 -190.65234375 361.47265625 C-229.39474064 323.68538779 -251.11545993 269.12270963 -252.28320312 215.40209961 C-252.85005897 156.83171936 -230.22206345 102.25908166 -189.59204102 60.3046875 C-182.72679932 53.34880102 -175.56068038 47.06065585 -167.69873047 41.25878906 C-166.04490162 40.03327289 -164.41465656 38.78103536 -162.78515625 37.5234375 C-147.157223 25.68160463 -129.27522245 16.94038333 -111 10 C-110.36610352 9.75701172 -109.73220703 9.51402344 -109.07910156 9.26367188 C-74.03963338 -3.92544698 -36.70555167 -5.58843099 0 0 Z " fill="#5C3925" transform="translate(293,42)"/>
<path d="M0 0 C0.76634766 0.00376648 1.53269531 0.00753296 2.32226562 0.01141357 C52.34364668 0.29857913 100.92397666 15.04302047 139.875 47.25 C140.4417041 47.71519043 141.0084082 48.18038086 141.59228516 48.65966797 C173.16604492 74.71433105 196.49968686 107.94485039 210.1875 146.625 C210.48342041 147.45652588 210.77934082 148.28805176 211.08422852 149.14477539 C213.00578293 154.85765121 213.00578293 154.85765121 211.875 158.25 C209.69760422 156.07260422 209.2192835 154.78632928 208.24609375 151.91015625 C207.93824951 151.02166992 207.63040527 150.13318359 207.31323242 149.21777344 C206.98299072 148.2590332 206.65274902 147.30029297 206.3125 146.3125 C198.40151 124.0681669 187.57944016 103.76471481 172.875 85.25 C172.25109375 84.42242187 171.6271875 83.59484375 170.984375 82.7421875 C158.87069072 67.14701129 144.10227938 53.44858981 127.875 42.25 C127.15441406 41.74952148 126.43382812 41.24904297 125.69140625 40.73339844 C98.18775705 21.89412379 66.8896608 9.78167754 33.875 5.25 C33.09463379 5.13575684 32.31426758 5.02151367 31.51025391 4.90380859 C-23.59248863 -2.98136232 -80.36832318 12.69900908 -124.7421875 45.9375 C-132.6103396 51.94217056 -139.96687651 58.42132989 -147.125 65.25 C-147.97707031 66.04921875 -148.82914062 66.8484375 -149.70703125 67.671875 C-181.3871323 98.20450782 -201.65582495 142.05392606 -208.125 185.25 C-208.22941406 185.91966797 -208.33382812 186.58933594 -208.44140625 187.27929688 C-211.18167956 205.75012647 -210.31135145 224.63205644 -210.125 243.25 C-210.785 242.92 -211.445 242.59 -212.125 242.25 C-222.8000029 195.54364696 -204.28296138 139.31688588 -179.84619141 100.203125 C-175.09633604 92.85349102 -169.7184583 85.97222827 -164.125 79.25 C-163.69396973 78.72873535 -163.26293945 78.2074707 -162.81884766 77.67041016 C-157.5202695 71.27237239 -152.23643772 64.89801116 -146.125 59.25 C-145.27808594 58.46496094 -145.27808594 58.46496094 -144.4140625 57.6640625 C-131.01871222 45.62520339 -116.18482137 34.48384493 -100.125 26.25 C-99.00351563 25.65832031 -97.88203125 25.06664063 -96.7265625 24.45703125 C-66.4840429 8.72828993 -34.20196977 -0.25658942 0 0 Z " fill="#96512F" transform="translate(252.125,36.75)"/>
<path d="M0 0 C27.61685162 -0.67402435 53.65493106 0.85729348 80 10 C80.78246094 10.26151855 81.56492187 10.52303711 82.37109375 10.79248047 C111.19027354 20.45211113 137.57049072 36.30611931 159.42675781 57.47802734 C160.53196446 58.54721702 161.64391845 59.6094547 162.76074219 60.66650391 C177.89665246 75.01018742 189.64706848 90.94069055 200 109 C200.39670898 109.6796582 200.79341797 110.35931641 201.20214844 111.05957031 C228.10454908 157.4904529 233.9904013 215.27274168 220.84082031 266.92578125 C211.36167395 301.5835661 194.6030106 333.53500241 169.52197266 359.42675781 C168.45278298 360.53196446 167.3905453 361.64391845 166.33349609 362.76074219 C156.98880728 372.62155453 147.08804999 381.15152268 136 389 C135.42491699 389.40911621 134.84983398 389.81823242 134.25732422 390.23974609 C104.14072548 411.35102346 69.34807379 423.08917668 33 427 C32.18047852 427.09498779 31.36095703 427.18997559 30.51660156 427.2878418 C24.45935686 427.95618235 18.46742009 428.19185406 12.375 428.1875 C10.95453369 428.1884668 10.95453369 428.1884668 9.50537109 428.18945312 C1.21480183 428.12794831 -6.81657665 427.31309945 -15 426 C-15 425.34 -15 424.68 -15 424 C-14.351521 424.03029297 -13.70304199 424.06058594 -13.03491211 424.09179688 C25.08805277 425.8469046 62.64428004 424.14985979 97.67578125 407.1015625 C100.0382412 405.9818756 102.42056156 405.08498941 104.875 404.1875 C110.29006536 402.06968429 115.02823881 399.03836148 119.921875 395.92578125 C122.35492116 394.40358359 124.76064035 393.05027963 127.3125 391.75 C131.94718771 389.23377962 136.09878314 386.09035834 140.3125 382.9375 C141.00706299 382.41833008 141.70162598 381.89916016 142.41723633 381.36425781 C145.85239495 378.75709476 149.01119248 376.12193926 152 373 C153.24032137 371.90559879 154.49043222 370.82219406 155.75 369.75 C164.13036728 362.4579921 172.30455559 354.59232743 178 345 C178.66 345 179.32 345 180 345 C180.20625 344.319375 180.4125 343.63875 180.625 342.9375 C182.18827771 339.59777035 184.17303061 337.33623587 186.66015625 334.6484375 C188.22046555 332.92688805 188.22046555 332.92688805 189 330 C189.66 330 190.32 330 191 330 C191.3403125 329.03320312 191.3403125 329.03320312 191.6875 328.046875 C193.09794837 324.77261986 194.79497731 321.8011783 196.57958984 318.72021484 C215.19520431 286.34606786 224.15970466 250.48641028 224.25 213.25 C224.25200409 212.5772403 224.25400818 211.90448059 224.256073 211.21133423 C224.26457137 199.47231082 223.22015424 188.07330195 221.36376953 176.48193359 C220.75628072 172.33714752 220.37355633 168.17147179 220 164 C219.34 164 218.68 164 218 164 C217.89042969 163.31035156 217.78085937 162.62070313 217.66796875 161.91015625 C216.73947042 156.40710518 215.53550312 151.2707815 213.6640625 146.015625 C212.7964494 143.38216406 212.35199854 140.74558864 212 138 C211.34 138 210.68 138 210 138 C209.67 136.845 209.34 135.69 209 134.5 C207.39552936 129.67116049 205.25634269 125.17460736 203 120.625 C202.48373047 119.5721582 202.48373047 119.5721582 201.95703125 118.49804688 C200.08582799 114.71315962 200.08582799 114.71315962 197.44213867 111.46313477 C195.32995536 109.32020018 194.90173621 106.84064726 194 104 C189.72845555 95.94321001 183.89565479 88.7971412 178.26831055 81.6628418 C177.71699463 80.95812744 177.16567871 80.25341309 176.59765625 79.52734375 C176.09758057 78.89562256 175.59750488 78.26390137 175.08227539 77.61303711 C174 76 174 76 174 74 C173.443125 73.773125 172.88625 73.54625 172.3125 73.3125 C170.01353225 72.00768047 168.38535451 70.53917738 166.5703125 68.6328125 C165.29898437 67.31088424 163.99414479 66.02123854 162.6796875 64.7421875 C161.85726562 63.94039062 161.03484375 63.13859375 160.1875 62.3125 C159.39730469 61.54550781 158.60710937 60.77851562 157.79296875 59.98828125 C156 58 156 58 156 56 C155.195625 55.6596875 155.195625 55.6596875 154.375 55.3125 C150.66139954 53.26024711 147.61426866 50.39850008 144.421875 47.6328125 C141.74428909 45.34739826 139.25536488 43.37726976 136 42 C136 41.34 136 40.68 136 40 C134.94425781 39.61714844 134.94425781 39.61714844 133.8671875 39.2265625 C130.71685415 37.87887221 128.01258851 36.21923592 125.125 34.375 C106.1621429 22.51298844 86.43431519 15.19802636 65 9 C63.33324219 8.50306641 63.33324219 8.50306641 61.6328125 7.99609375 C51.663499 5.23647219 41.2459886 4.25041409 31 3 C29.87549438 2.85751831 29.87549438 2.85751831 28.72827148 2.7121582 C22.64271321 1.97862197 16.55993375 1.68466642 10.4375 1.4375 C9.42880859 1.39431641 8.42011719 1.35113281 7.38085938 1.30664062 C4.92067425 1.20170382 2.46040825 1.09954299 0 1 C0 0.67 0 0.34 0 0 Z " fill="#633C26" transform="translate(244,40)"/>
<path d="M0 0 C1.03695601 3.16528169 0.97413973 4.93308167 -0.15625 8.05078125 C-0.43984375 8.83791504 -0.7234375 9.62504883 -1.015625 10.43603516 C-2.78510257 15.04492737 -4.61731841 19.62370584 -6.5 24.1875 C-6.89058594 25.14591797 -7.28117187 26.10433594 -7.68359375 27.09179688 C-11.34686412 36.01562217 -15.73637832 43.92560435 -21 52 C-21.64453125 52.99902344 -22.2890625 53.99804688 -22.953125 55.02734375 C-27.29472848 61.66794592 -31.9328658 67.89913351 -37 74 C-37.85060509 75.03747792 -38.7008491 76.07525196 -39.55078125 77.11328125 C-43.52860621 81.94464759 -47.52749085 86.61281693 -52 91 C-52.68320312 91.70640625 -53.36640625 92.4128125 -54.0703125 93.140625 C-90.09306783 130.12216089 -144.41351239 154.07401898 -196.02734375 155.203125 C-230.45251954 155.55186681 -263.41532018 151.55769957 -295 137 C-296.13050781 136.52949219 -297.26101563 136.05898438 -298.42578125 135.57421875 C-318.1156395 126.90207353 -335.93708229 114.17717206 -352 100 C-353.06752332 99.1047365 -354.13783768 98.21279039 -355.2109375 97.32421875 C-361.41930329 92.15058059 -369.3519112 85.29617759 -373 78 C-371.515 77.505 -371.515 77.505 -370 77 C-369.31035156 77.76183594 -368.62070312 78.52367187 -367.91015625 79.30859375 C-358.49232484 89.67816444 -348.99665877 99.19700919 -337.79541016 107.64453125 C-336.64457401 108.51337029 -335.4979877 109.38788469 -334.35693359 110.26953125 C-289.13993948 145.14765343 -231.09161854 156.99307394 -175.23046875 149.9140625 C-167.60117074 148.85472377 -160.39365413 147.1500375 -153 145 C-151.56892377 144.63324511 -150.13656507 144.27146689 -148.703125 143.9140625 C-114.83886353 135.31150719 -84.31961867 116.81166354 -59 93 C-58.16227051 92.21326904 -58.16227051 92.21326904 -57.30761719 91.41064453 C-31.93532907 67.38271918 -13.1434826 36.95162867 -2.9375 3.51953125 C-2 1 -2 1 0 0 Z " fill="#655044" transform="translate(463,315)"/>
<path d="M0 0 C49.29775863 -1.36307167 98.93554768 15.52608913 137 47 C137.5667041 47.46519043 138.1334082 47.93038086 138.71728516 48.40966797 C170.29104492 74.46433105 193.62468686 107.69485039 207.3125 146.375 C207.60842041 147.20652588 207.90434082 148.03805176 208.20922852 148.89477539 C210.13078293 154.60765121 210.13078293 154.60765121 209 158 C206.82260422 155.82260422 206.3442835 154.53632928 205.37109375 151.66015625 C205.06324951 150.77166992 204.75540527 149.88318359 204.43823242 148.96777344 C204.10799072 148.0090332 203.77774902 147.05029297 203.4375 146.0625 C195.52651 123.8181669 184.70444016 103.51471481 170 85 C169.37609375 84.17242187 168.7521875 83.34484375 168.109375 82.4921875 C155.99569072 66.89701129 141.22727938 53.19858981 125 42 C124.27941406 41.49952148 123.55882812 40.99904297 122.81640625 40.48339844 C85.28482239 14.7752529 44.48451963 5.7759205 0 2 C0 1.34 0 0.68 0 0 Z " fill="#8C5739" transform="translate(255,37)"/>
<path d="M0 0 C-0.165 0.495 -0.33 0.99 -0.5 1.5 C-1.55763046 6.7881523 -1.74915082 10.52944469 0.6875 15.3125 C3.16692815 18.19399758 4.45086613 19.64075724 8 21 C11.68138034 21.23398604 15.31704771 21.17415011 19 21 C19.495 23.97 19.495 23.97 20 27 C21.32 26.67 22.64 26.34 24 26 C27.36055646 30.48074195 27.27429625 33.60550707 27 39 C26.34 39 25.68 39 25 39 C25 40.32 25 41.64 25 43 C21.05879291 42.43697042 18.2491277 41.3208055 15 39 C15 38.34 15 37.68 15 37 C14.32710937 36.93296875 13.65421875 36.8659375 12.9609375 36.796875 C8.92541033 35.71079645 6.02015902 33.63561989 2.625 31.25 C1.93470703 30.77135498 1.24441406 30.29270996 0.53320312 29.79956055 C-7.09880167 24.39702309 -14.07001327 18.26287594 -21 12 C-19.1875 11.375 -19.1875 11.375 -17 11 C-16.01 11.66 -15.02 12.32 -14 13 C-13.01 13 -12.02 13 -11 13 C-11.66 10.69 -12.32 8.38 -13 6 C-10.35677909 2.96807013 -8.76712314 1.19554119 -4.8125 0.1875 C-3.21067193 0.08071146 -1.60538374 0 0 0 Z " fill="#5F4233" transform="translate(133,398)"/>
<path d="M0 0 C-0.66 1.32 -1.32 2.64 -2 4 C-2.94746094 3.97643433 -2.94746094 3.97643433 -3.9140625 3.95239258 C-40.59985186 3.16938357 -75.43695046 9.63587058 -108 27 C-110.66606926 28.29615225 -113.33641069 29.58242124 -116.01171875 30.859375 C-118.05236528 32.03004059 -119.37285063 33.31935531 -121 35 C-122.66026161 35.96295173 -124.32271734 36.92248027 -126 37.85546875 C-138.239556 44.85974591 -149.33121093 53.77929274 -159 64 C-164 69 -164 69 -165.8671875 70.796875 C-169.77241799 74.59894846 -173.24352962 78.42848768 -176.421875 82.85546875 C-178.89633169 86.21803489 -181.59299045 89.39934319 -184.265625 92.60546875 C-186.10136878 94.92892978 -186.10136878 94.92892978 -187.046875 97.67578125 C-188 100 -188 100 -191 102 C-191.33 101.01 -191.66 100.02 -192 99 C-180.78409796 77.74881719 -160.88170983 58.58772227 -141.74707031 44.30712891 C-140.07674451 43.05741897 -138.42502836 41.78601959 -136.7734375 40.51171875 C-121.14323287 28.68014604 -103.2716662 19.93903277 -85 13 C-84.36610352 12.75701172 -83.73220703 12.51402344 -83.07910156 12.26367188 C-56.37312267 2.21134095 -28.31542462 -0.66157534 0 0 Z " fill="#6F3C22" transform="translate(267,39)"/>
<path d="M0 0 C1.15253614 3.38500011 0.84704847 5.32832206 -0.30078125 8.68359375 C-0.61321777 9.60068115 -0.9256543 10.51776855 -1.24755859 11.46264648 C-1.59898926 12.44434814 -1.95041992 13.4260498 -2.3125 14.4375 C-2.67424316 15.457229 -3.03598633 16.47695801 -3.40869141 17.52758789 C-13.31178499 44.74112084 -28.29226028 69.58850763 -48.47802734 90.42675781 C-49.54721702 91.53196446 -50.6094547 92.64391845 -51.66650391 93.76074219 C-61.01119272 103.62155453 -70.91195001 112.15152268 -82 120 C-82.57508301 120.40911621 -83.15016602 120.81823242 -83.74267578 121.23974609 C-113.85927452 142.35102346 -148.65192621 154.08917668 -185 158 C-185.81952148 158.09498779 -186.63904297 158.18997559 -187.48339844 158.2878418 C-193.54064314 158.95618235 -199.53257991 159.19185406 -205.625 159.1875 C-207.04546631 159.1884668 -207.04546631 159.1884668 -208.49462891 159.18945312 C-216.78519817 159.12794831 -224.81657665 158.31309945 -233 157 C-233 156.34 -233 155.68 -233 155 C-232.351521 155.03029297 -231.70304199 155.06058594 -231.03491211 155.09179688 C-192.91194723 156.8469046 -155.35571996 155.14985979 -120.32421875 138.1015625 C-117.9617588 136.9818756 -115.57943844 136.08498941 -113.125 135.1875 C-107.70993464 133.06968429 -102.97176119 130.03836148 -98.078125 126.92578125 C-95.64507884 125.40358359 -93.23935965 124.05027963 -90.6875 122.75 C-86.05281229 120.23377962 -81.90121686 117.09035834 -77.6875 113.9375 C-76.99293701 113.41833008 -76.29837402 112.89916016 -75.58276367 112.36425781 C-72.14760505 109.75709476 -68.98880752 107.12193926 -66 104 C-64.75967863 102.90559879 -63.50956778 101.82219406 -62.25 100.75 C-53.86963272 93.4579921 -45.69544441 85.59232743 -40 76 C-39.34 76 -38.68 76 -38 76 C-37.79375 75.319375 -37.5875 74.63875 -37.375 73.9375 C-35.81172229 70.59777035 -33.82696939 68.33623587 -31.33984375 65.6484375 C-29.77953445 63.92688805 -29.77953445 63.92688805 -29 61 C-28.34 61 -27.68 61 -27 61 C-26.6596875 60.03320312 -26.6596875 60.03320312 -26.3125 59.046875 C-24.90182552 55.77209496 -23.2041727 52.80008997 -21.41992188 49.71826172 C-12.94459759 34.98553673 -6.17565328 19.25306725 -1.59570312 2.86767578 C-1 1 -1 1 0 0 Z " fill="#453A34" transform="translate(462,309)"/>
<path d="M0 0 C3.04928733 2.4968802 3.61695922 4.64682336 4.359375 8.4609375 C4.58383301 9.56131348 4.80829102 10.66168945 5.03955078 11.79541016 C5.27399902 12.9766748 5.50844727 14.15793945 5.75 15.375 C12.71478954 48.15328458 26.22854073 78.85262025 47.69946289 104.81518555 C51 108.81489041 51 108.81489041 51 111 C41.11481093 106.88480014 34.62978523 92.77142806 29 84 C28.40445313 83.0925 27.80890625 82.185 27.1953125 81.25 C13.60626419 59.40349171 -1.35452933 26.44041245 0 0 Z " fill="#7E4F34" transform="translate(41,282)"/>
<path d="M0 0 C0.66 0 1.32 0 2 0 C2.64021317 2.30911836 3.26167135 4.62120562 3.875 6.9375 C4.13603516 7.86852539 4.13603516 7.86852539 4.40234375 8.81835938 C8.22873819 23.48620472 8.27375186 38.51751254 8.125 53.5625 C8.11493344 55.36392722 8.10581419 57.16536 8.09765625 58.96679688 C8.07597219 63.31133918 8.04165287 67.65560517 8 72 C8.66 72.33 9.32 72.66 10 73 C9.34 73 8.68 73 8 73 C7.96261719 73.59683594 7.92523438 74.19367188 7.88671875 74.80859375 C6.82069901 88.87587382 3.88160446 102.46364334 0 116 C-0.99 116 -1.98 116 -3 116 C-2.06683019 111.2563868 -1.125891 106.5213548 -0.046875 101.80859375 C6.70288536 71.96000727 6.76830424 41.88731845 1.45751953 11.77441406 C0.81216374 7.8609545 0.39133787 3.94633347 0 0 Z " fill="#79513A" transform="translate(465,200)"/>
<path d="M0 0 C3.45639069 2.69767078 6.42418929 5.39393027 9.25 8.75 C18.42389229 19.47299253 30.09403109 28.50068789 41.7109375 36.4296875 C43.80429649 37.86574606 45.83929991 39.35905312 47.875 40.875 C50.58047842 42.71472533 51.94004909 43.37741259 55 44 C55 44.66 55 45.32 55 46 C56.08958008 46.42212769 56.08958008 46.42212769 57.20117188 46.8527832 C59.79890347 47.91757218 62.27611935 49.09059876 64.78125 50.35546875 C87.40496212 61.60546777 110.27631517 68.1614042 135 73 C135 73.33 135 73.66 135 74 C89.61607061 74.95281178 43.58290537 45.14731876 12 15 C11.04351562 14.09636719 10.08703125 13.19273437 9.1015625 12.26171875 C1.6667282 5.07187182 1.6667282 5.07187182 0 0 Z " fill="#4C392E" transform="translate(93,391)"/>
<path d="M0 0 C0.66 0 1.32 0 2 0 C18.33938784 44.00741792 19.83296718 88.51391837 9 134 C8.34 133.67 7.68 133.34 7 133 C7.14622803 132.14881592 7.29245605 131.29763184 7.44311523 130.4206543 C7.9925807 127.20995384 8.53817221 123.99864169 9.08129883 120.78686523 C9.31546832 119.40672578 9.55110263 118.02683392 9.78833008 116.6472168 C12.05428425 103.45869285 13.21750434 90.65070829 13.25 77.25 C13.25200409 76.5772403 13.25400818 75.90448059 13.256073 75.21133423 C13.26457137 63.47231082 12.22015424 52.07330195 10.36376953 40.48193359 C9.75628072 36.33714752 9.37355633 32.17147179 9 28 C8.34 28 7.68 28 7 28 C6.89042969 27.31035156 6.78085937 26.62070313 6.66796875 25.91015625 C5.74880089 20.46240526 4.58096592 15.35237371 2.73046875 10.1484375 C1.59716163 6.81518126 0.80948984 3.4247647 0 0 Z " fill="#53392A" transform="translate(455,176)"/>
<path d="M0 0 C0.99 0.66 1.98 1.32 3 2 C2.85900879 2.58378418 2.71801758 3.16756836 2.57275391 3.76904297 C1.92151132 6.47055297 1.2732441 9.172769 0.625 11.875 C0.40328125 12.7928125 0.1815625 13.710625 -0.046875 14.65625 C-6.14547019 40.12685344 -6.26082502 64.94157416 -6 91 C-6.66 90.67 -7.32 90.34 -8 90 C-14.49171998 61.59676976 -7.61692341 27.34479201 0 0 Z " fill="#864F32" transform="translate(48,189)"/>
<path d="M0 0 C13.96467794 13.13782201 22.06305429 35.71480166 28.3125 53.375 C28.75638062 54.62228882 28.75638062 54.62228882 29.20922852 55.89477539 C31.13078293 61.60765121 31.13078293 61.60765121 30 65 C27.82260422 62.82260422 27.3442835 61.53632928 26.37109375 58.66015625 C26.06324951 57.77166992 25.75540527 56.88318359 25.43823242 55.96777344 C25.10799072 55.0090332 24.77774902 54.05029297 24.4375 53.0625 C18.97302284 37.69733708 12.36354653 23.4661311 3.45385742 9.78417969 C2.77867065 8.73278809 2.77867065 8.73278809 2.08984375 7.66015625 C1.68628662 7.04793213 1.28272949 6.43570801 0.86694336 5.80493164 C0 4 0 4 0 0 Z " fill="#894F33" transform="translate(434,130)"/>
<path d="M0 0 C0.99 0.33 1.98 0.66 3 1 C-3.32694252 6.93655671 -9.73297791 12.26063777 -17 17 C-17.57492187 17.37769531 -18.14984375 17.75539063 -18.7421875 18.14453125 C-28.49128943 24.5158323 -38.4875122 29.9953848 -49 35 C-48.73071289 33.13696289 -48.73071289 33.13696289 -48 31 C-46.39624023 29.80249023 -46.39624023 29.80249023 -44.30859375 28.80859375 C-43.53636475 28.42687012 -42.76413574 28.04514648 -41.96850586 27.65185547 C-40.71565796 27.05074951 -40.71565796 27.05074951 -39.4375 26.4375 C-26.93085408 20.15290748 -15.69765977 12.48291627 -4.91796875 3.55859375 C-3 2 -3 2 0 0 Z " fill="#75503C" transform="translate(397,415)"/>
<path d="M0 0 C0.54188965 0.24121582 1.0837793 0.48243164 1.64208984 0.73095703 C23.96731824 10.61723947 46.04217795 17.32312729 70 22 C70 22.33 70 22.66 70 23 C52.27845498 23.37205454 34.81122301 17.4465423 18.5 11 C17.68756836 10.6800708 16.87513672 10.3601416 16.03808594 10.03051758 C10.44305527 7.75660444 5.21562096 5.04088773 0 2 C0 1.34 0 0.68 0 0 Z " fill="#433A35" transform="translate(158,442)"/>
<path d="M0 0 C0.33 0 0.66 0 1 0 C1 1.65 1 3.3 1 5 C2.32 5.33 3.64 5.66 5 6 C4.34 6 3.68 6 3 6 C2.96261719 6.59683594 2.92523438 7.19367188 2.88671875 7.80859375 C1.82069901 21.87587382 -1.11839554 35.46364334 -5 49 C-5.99 49 -6.98 49 -8 49 C-7.06683019 44.2563868 -6.125891 39.5213548 -5.046875 34.80859375 C-2.44057019 23.24496024 -0.94595266 11.81196148 0 0 Z " fill="#6D4D3C" transform="translate(470,267)"/>
<path d="M0 0 C2.64 0.33 5.28 0.66 8 1 C7.67 1.70125 7.34 2.4025 7 3.125 C5.90955438 6.26003116 5.84677357 8.70563182 6 12 C3.69 12.33 1.38 12.66 -1 13 C-1.33 12.01 -1.66 11.02 -2 10 C-3.32 10 -4.64 10 -6 10 C-5.34 8.35 -4.68 6.7 -4 5 C-2.02 5 -0.04 5 2 5 C1.34 3.35 0.68 1.7 0 0 Z " fill="#4C443F" transform="translate(239,469)"/>
<path d="M0 0 C-0.03480469 0.79664063 -0.06960937 1.59328125 -0.10546875 2.4140625 C-0.33334024 10.6787194 -0.33334024 10.6787194 3 18 C-2.75 19.125 -2.75 19.125 -5 18 C-5.5546875 15.234375 -5.5546875 15.234375 -5.875 11.75 C-5.99617188 10.61046875 -6.11734375 9.4709375 -6.2421875 8.296875 C-5.95805434 4.42899779 -4.50353407 0 0 0 Z " fill="#544238" transform="translate(119,424)"/>
<path d="M0 0 C11.88 0 23.76 0 36 0 C35.67 0.66 35.34 1.32 35 2 C29.14894406 3.64530307 22.96101959 3.18421026 16.9375 3.1875 C15.75349609 3.19974609 14.56949219 3.21199219 13.34960938 3.22460938 C11.64321289 3.22750977 11.64321289 3.22750977 9.90234375 3.23046875 C8.34761353 3.23663208 8.34761353 3.23663208 6.76147461 3.24291992 C3.99450543 2.99951666 2.35591968 2.42356649 0 1 C0 0.67 0 0.34 0 0 Z " fill="#5D534C" transform="translate(238,467)"/>
<path d="M0 0 C6.06742791 0.46204862 12.09840878 1.09177946 18.125 1.9375 C19.22070312 2.09089844 20.31640625 2.24429687 21.4453125 2.40234375 C22.28835937 2.59957031 23.13140625 2.79679687 24 3 C24.33 3.66 24.66 4.32 25 5 C16.1849081 4.58440013 7.60397419 4.13031092 -1 2 C-0.67 1.34 -0.34 0.68 0 0 Z " fill="#79503D" transform="translate(214,464)"/>
<path d="M0 0 C1.4606285 2.64738916 2 3.89448334 2 7 C0.73160474 7.50615298 -0.53983102 8.00469099 -1.8125 8.5 C-2.52019531 8.7784375 -3.22789062 9.056875 -3.95703125 9.34375 C-6 10 -6 10 -9 10 C-7.6834994 5.81113445 -4.97532335 0 0 0 Z " fill="#4F433D" transform="translate(425,392)"/>
<path d="M0 0 C5.33333333 5.33333333 10.66666667 10.66666667 16 16 C15.01 16.66 14.02 17.32 13 18 C0.40625 5.8125 0.40625 5.8125 -2 1 C-1.34 0.67 -0.68 0.34 0 0 Z " fill="#694F42" transform="translate(92,392)"/>
<path d="M0 0 C5.28 1.65 10.56 3.3 16 5 C11.38360567 7.30819716 8.86594113 7.40593791 4 6 C1.5 4.0625 1.5 4.0625 0 2 C0 1.34 0 0.68 0 0 Z " fill="#4E433D" transform="translate(179,456)"/>
<path d="M0 0 C1.50433594 0.01353516 1.50433594 0.01353516 3.0390625 0.02734375 C3.80992187 0.03894531 4.58078125 0.05054688 5.375 0.0625 C1.97148662 2.09469488 -0.9482927 2.43141039 -4.875 2.6875 C-6.49148438 2.79964844 -6.49148438 2.79964844 -8.140625 2.9140625 C-8.96046875 2.96304687 -9.7803125 3.01203125 -10.625 3.0625 C-6.58365069 0.36826713 -4.81510472 -0.05598959 0 0 Z " fill="#75513D" transform="translate(299.625,463.9375)"/>
<path d="M0 0 C0.66 0.33 1.32 0.66 2 1 C-1.3 3.64 -4.6 6.28 -8 9 C-8 6 -8 6 -6.25 3.9375 C-4.18873445 2.16252133 -2.5457607 0.93344559 0 0 Z " fill="#593F33" transform="translate(391,416)"/>
<path d="M0 0 C0.33 1.32 0.66 2.64 1 4 C0.071875 4.12375 0.071875 4.12375 -0.875 4.25 C-3.18437567 4.81258459 -3.18437567 4.81258459 -4.25 7.0625 C-4.4975 7.701875 -4.745 8.34125 -5 9 C-5.99 8.67 -6.98 8.34 -8 8 C-5.36 5.36 -2.72 2.72 0 0 Z " fill="#4D443E" transform="translate(410,406)"/>
<path d="M0 0 C0.66 0 1.32 0 2 0 C0.73058503 3.91402949 -0.51167694 5.79072873 -4 8 C-4 4.06830895 -2.60580385 2.83572772 0 0 Z " fill="#79503B" transform="translate(428,382)"/>
<path d="M0 0 C2.64 0 5.28 0 8 0 C8 0.66 8 1.32 8 2 C3.545 2.495 3.545 2.495 -1 3 C-0.67 2.01 -0.34 1.02 0 0 Z " fill="#925837" transform="translate(215,40)"/>
<path d="M0 0 C0.66 0.33 1.32 0.66 2 1 C-2.455 3.97 -2.455 3.97 -7 7 C-7.66 6.67 -8.32 6.34 -9 6 C-6.03 4.02 -3.06 2.04 0 0 Z " fill="#583F33" transform="translate(378,426)"/>
</svg>
