<svg height="225" width="225" xmlns="http://www.w3.org/2000/svg"><path d="m0 0h225v225c-74.25 0-148.5 0-225 0 0-74.25 0-148.5 0-225z" fill="#f4f4f5"/><path d="m0 0c1.00546371-.01168213 2.01092743-.02336426 3.04685974-.03540039 3.32049612-.03356817 6.64054609-.04432024 9.9611969-.05200195 2.31018736-.01218026 4.62037313-.02466626 6.93055725-.03744507 4.84113611-.02247169 9.68211483-.03202985 14.52330017-.03433228 6.20232819-.00528766 12.40334741-.0566511 18.60532284-.11951637 4.77071128-.04086321 9.54110583-.0501258 14.31197643-.05060005 2.28657967-.00538614 4.5731623-.02225922 6.85956955-.05084992 3.19871575-.0366691 6.39444105-.02902955 9.59324837-.01047897.94304993-.0204538 1.88609985-.04090759 2.85772705-.0619812 4.6080809.07341698 7.54667322.47918577 10.87969971 3.82125854 3.24025554 4.51743808 3.23794854 8.85029298 3.14001465 14.25341797.00569503.99760849.01139007 1.99521698.01725769 3.02305603.01107349 3.28259556-.02090836 6.56317922-.05461121 9.84559632-.00357841 2.28730027-.00493425 4.57460501-.00416565 6.86190796-.00468573 4.78654704-.02948739 9.57241813-.06980896 14.35879516-.05102692 6.13473965-.06244087 12.26873851-.06016445 18.40366554-.0008157 4.72007376-.01726785 9.43998566-.03900433 14.16000557-.00954351 2.26221747-.01545837 4.52445326-.01768112 6.78668976-.00650542 3.15973548-.03276663 6.31868575-.06479072 9.47825241.00135955.93415238.00271911 1.86830475.00411987 2.83076477-.12403078 8.36971027-.12403078 8.36971027-3.43991089 12.08085633-5.06289665 3.50854396-9.76132235 3.42287245-15.68969727 3.37231445-.95844818.00365066-1.91689636.00730133-2.90438842.01106262-3.15762228.00808404-6.31472798-.00548605-9.47232056-.02009582-2.1990509-.00051882-4.39810227-.00000027-6.59715271.00151062-4.60399823-.00008963-9.20782101-.01050017-13.81178284-.02861023-5.90036908-.02269999-11.80048217-.02322774-17.70088291-.01648236-4.53902364.00334167-9.07798895-.00329366-13.61700153-.01312923-2.17570312-.00384785-4.35141274-.00500193-6.52711868-.00341415-3.03990989.00037095-6.07949175-.01225793-9.11935235-.0284977-.89832046.00247742-1.79664093.00495483-2.72218322.00750732-4.35070302-.03708345-7.93849566-.11548131-11.83811951-2.28216552-3.56589547-3.86305343-5.11877962-6.83921242-5.14044189-12.07881165-.00571015-.82845428-.01142029-1.65690857-.01730347-2.51046753-.00111786-.90551102-.00223572-1.81102203-.00338745-2.74397278-.00496491-.95640381-.00992981-1.91280761-.01504517-2.89819336-.01462371-3.16895259-.02142407-6.33785512-.02694702-9.50683593-.00575138-2.20094301-.01150911-4.40188601-.01727295-6.60282898-.01051065-4.6176629-.01635287-9.23530839-.01983642-13.85298157-.00548415-5.91495583-.02951037-11.82968139-.05797196-17.74456501-.01863024-4.54763237-.0238322-9.09520932-.02536392-13.64287663-.00302629-2.18047468-.01105399-4.3609484-.02418518-6.54138565-.01706789-3.0520596-.01517825-6.10355731-.00868988-9.15564537-.00921478-.89943832-.01842957-1.79887664-.02792359-2.72557068.03358304-5.04674737.41339822-8.71436398 3.3843689-12.99586486 4.39469132-3.93732644 9.42783797-3.45040892 15.01928711-3.45166016z" fill="#236fc0" transform="translate(71.019287 53.54834)"/><path d="m0 0c2.3892098 1.68165244 3.82406224 3.0678574 4.37753105 6.00021172.13727871 2.61675977.15110269 5.20929642.12417793 7.82962226.00810448 1.49575562.00810448 1.49575562.01637269 3.02172852.01251397 3.2984784-.00402324 6.59608846-.02198792 9.89453125.00015494 2.29159084.00164304 4.58318194.00440979 6.87477112.00138524 4.80431188-.01119432 9.60832567-.03395081 14.4125824-.02836865 6.15833559-.02565314 12.31617518-.01290988 18.47454738.00695568 4.73291859-.00083119 9.46572256-.01325703 14.19862652-.00451668 2.27059871-.00484942 4.54120971-.0009346 6.81180954.00291064 3.17436998-.01358909 6.34805707-.03539849 9.52234077.00450165.93886551.0090033 1.87773102.01364136 2.845047-.095945 8.40579701-.095945 8.40579701-3.41769409 12.11418152-5.06289665 3.50854396-9.76132235 3.42287245-15.68969727 3.37231445-.95844818.00365067-1.91689636.00730133-2.90438842.01106263-3.15762228.00808403-6.31472798-.00548605-9.47232056-.02009583-2.1990509-.00051882-4.39810227-.00000027-6.59715271.00151062-4.60399823-.00008962-9.20782101-.01050016-13.81178284-.02861023-5.90036908-.02269999-11.80048217-.02322774-17.70088291-.01648235-4.53902364.00334166-9.07798895-.00329366-13.61700153-.01312924-2.17570312-.00384785-4.35141274-.00500193-6.52711868-.00341415-3.03990989.00037096-6.07949175-.01225793-9.11935235-.0284977-.89832046.00247742-1.79664093.00495484-2.72218322.00750733-4.39124331-.037429-7.84418572-.21887385-11.83811951-2.28216553 0-4 0-4 2.01953125-6.47363281.92167969-.90073242 1.84335938-1.80146485 2.79296875-2.72949219.48831299-.4826532.97662598-.9653064 1.47973633-1.46258545 1.56011296-1.53774195 3.13355897-3.06098958 4.70776367-4.58428955 1.06080491-1.04074087 2.12071234-2.08239737 3.1796875-3.125 2.59644515-2.55236905 5.20503034-5.09191965 7.8203125-7.625 1.485.99 1.485.99 3 2 3.28634073.75286138 3.28634073.75286138 7 0 1.85331874-1.24322121 1.85331874-1.24322121 3.62890625-2.93359375 1.04571167-.95289917 1.04571167-.95289917 2.11254883-1.92504883 4.06870577-3.85759575 8.05344081-7.79262645 12.00854492-11.76635742.83660156-.83273438 1.67320313-1.66546875 2.53515625-2.5234375.80824219-.80953125 1.61648437-1.6190625 2.44921875-2.453125.72413086-.72525879 1.44826172-1.45051758 2.19433594-2.19775391 4.37481353-4.34049754 4.37481353-4.34049754 6.44628906-9.88818359-.17436747-2.50173519-.17436747-2.50173519-2.375-4.3125.1875-2.0625.1875-2.0625 1-4l3-1c.268125-.5775.53625-1.155.8125-1.75 1.70608179-3.23257602 4.37693694-4.9556628 7.1875-7.25 1.00573778-1.32901064 2.00795408-2.66073801 3-4h2c0-.66 0-1.32 0-2h2c0-.66 0-1.32 0-2 1.3203125-1.26171875 1.3203125-1.26171875 3.125-2.6875 2.54215116-2.09893042 4.72639734-4.19840335 6.8125-6.75 2.73258792-3.30672208 5.77128231-6.01572705 9.03125-8.79296875 5.73652393-4.79455081 5.73652393-4.79455081 10.03125-10.76953125z" fill="#1a5290" transform="translate(167 57)"/><path d="m0 0c3.93585198 3.3223817 7.7997303 6.66054796 11.4375 10.3125.67933594.67675781 1.35867187 1.35351562 2.05859375 2.05078125 1.50390625 1.63671875 1.50390625 1.63671875 1.50390625 2.63671875-1.18078125.02578125-2.3615625.0515625-3.578125.078125-1.55732823.05628897-3.11461847.11363614-4.671875.171875-1.16595703.02126953-1.16595703.02126953-2.35546875.04296875-3.78059945.16156408-5.8195918.28969388-8.9453125 2.55859375-1.74917096 2.14847184-1.74917096 2.14847184-1.38671875 5.2734375.70444687 3.16674932.70444687 3.16674932 3.9375 4.875 2.53253313.30834461 2.53253313.30834461 5.3671875.265625 1.05058594.00257813 2.10117188.00515625 3.18359375.0078125 1.09699219-.00773437 2.19398437-.01546875 3.32421875-.0234375 1.63388672.01160156 1.63388672.01160156 3.30078125.0234375 1.05316406-.00257813 2.10632813-.00515625 3.19140625-.0078125 1.44028564-.00338379 1.44028564-.00338379 2.90966797-.00683594 3.19335169-.17438351 3.19335169-.17438351 7.72314453-2.25878906l22 22c-.66 1.32-1.32 2.64-2 4-2.71809217.90603072-4.29326337 1.12722079-7.08554077 1.13371277-.82989945.00426498-1.65979889.00852997-2.5148468.01292419-.90708207-.00045318-1.81416413-.00090637-2.74873352-.00137329-.95801011.00335861-1.91602021.00671723-2.90306092.01017761-3.17376494.00951564-6.34747716.01145345-9.52125549.01252747-2.20333885.00321222-4.40667748.00657626-6.61001587.01008606-4.62186172.00599284-9.24370473.00783975-13.86557007.00724792-5.92397101-.00010161-11.84782215.01354951-17.77176475.03077221-4.55187977.01111575-9.10373053.01314713-13.65562249.01261807-2.18408369.0011808-4.36816811.00560816-6.55223846.01333237-3.05456574.00979091-6.10887081.00692527-9.1634407.00089454-.9030336.00561951-1.8060672.01123902-2.73646546.01702881-4.40576832-.02211739-7.86554696-.18305136-11.8714447-2.25994873 0-4 0-4 2.01953125-6.47363281 1.38251953-1.35109864 1.38251953-1.35109864 2.79296875-2.72949219.48831299-.4826532.97662598-.9653064 1.47973633-1.46258545 1.56011296-1.53774195 3.13355897-3.06098958 4.70776367-4.58428955 1.06080491-1.04074087 2.12071234-2.08239737 3.1796875-3.125 2.59644515-2.55236905 5.20503034-5.09191965 7.8203125-7.625.99.66 1.98 1.32 3 2 3.40016046.60002832 5.82448105.81751032 8.75317383-1.21923828 5.75563425-5.23546813 11.27146995-10.69117612 16.74682617-16.21826172.9178125-.92232422 1.835625-1.84464844 2.78125-2.79492188 2.24190055-2.25357711 4.481416-4.50946887 6.71875-6.76757812z" fill="#14406e" transform="translate(118 119)"/><path d="m0 0h9v9h10c0-2.97 0-5.94 0-9h10v9h9c.33-2.97.66-5.94 1-9h9v9c-2.64.33-5.28.66-8 1-.33 2.97-.66 5.94-1 9-3.3 0-6.6 0-10 0v10c-3.3 0-6.6 0-10 0 0-3.3 0-6.6 0-10-2.97 0-5.94 0-9 0 .020625 1.464375.04125 2.92875.0625 4.4375.02142007 1.52082518.00929964 3.04321962-.0625 4.5625-1 1-1 1-3.06640625 1.09765625-.82371094-.01160156-1.64742188-.02320312-2.49609375-.03515625-.82628906-.00902344-1.65257812-.01804687-2.50390625-.02734375-.95712891-.01740234-.95712891-.01740234-1.93359375-.03515625.01160156.63808594.02320313 1.27617188.03515625 1.93359375.00902344.82628906.01804687 1.65257812.02734375 2.50390625.01160156.82371094.02320313 1.64742187.03515625 2.49609375-.09765625 2.06640625-.09765625 2.06640625-1.09765625 3.06640625-1.51928038.07179964-3.04167482.08392007-4.5625.0625-.82628906-.00902344-1.65257812-.01804688-2.50390625-.02734375-.63808594-.01160156-1.27617188-.02320313-1.93359375-.03515625v4h35v1c-32.34 0-64.68 0-98 0 0-.33 0-.66 0-1h15c.33-1.65.66-3.3 1-5h8v5h29c0-1.65 0-3.3 0-5-2.97 0-5.94 0-9 0 0-2.97 0-5.94 0-9h9c0-3.3 0-6.6 0-10h10c0-3.3 0-6.6 0-10h10c0-2.97 0-5.94 0-9zm0 10c-.07179964 1.51928038-.08392007 3.04167482-.0625 4.5625l.0625 4.4375h9c0-3.3 0-6.6 0-10-4.79970742-.52833716-4.79970742-.52833716-9 1zm-20 20c-.07148199 1.35243917-.08399454 2.70834367-.0625 4.0625.020625 1.299375.04125 2.59875.0625 3.9375h10c0-2.97 0-5.94 0-9-5.28926333-.57745155-5.28926333-.57745155-10 1zm-29-1h10v9c-3.3 0-6.6 0-10 0 0-2.97 0-5.94 0-9z" fill="#eee" transform="translate(136 10)"/><path d="m0 0h10v10c-4.455.495-4.455.495-9 1-.33 2.64-.66 5.28-1 8h10v10c-2.97.33-5.94.66-9 1-.33 2.97-.66 5.94-1 9-2.97 0-5.94 0-9 0v9c-4.455.495-4.455.495-9 1-.33 2.97-.66 5.94-1 9-3.3 0-6.6 0-10 0 0-3.3 0-6.6 0-10-2.64.33-5.28.66-8 1-.33 2.97-.66 5.94-1 9-3.3 0-6.6 0-10 0 0-3.3 0-6.6 0-10h9c.33-2.97.66-5.94 1-9h9c0-3.3 0-6.6 0-10h10c0-3.3 0-6.6 0-10h10c0-2.97 0-5.94 0-9l9-1c0-2.97 0-5.94 0-9z" fill="#eee" transform="translate(213 165)"/><path d="m0 0c2.84668102 1.9539195 5.1779142 4.36118672 7.5859375 6.82421875.70178375.69841507 1.4035675 1.39683014 2.12661743 2.1164093 1.4779603 1.47825896 2.94847003 2.96399948 4.41195679 4.45658875 2.24426838 2.28395332 4.51640938 4.53710766 6.79345703 6.78833008 1.43274988 1.44030837 2.86379934 2.88231065 4.29296875 4.32617187.68113861.67415451 1.36227722 1.34830902 2.0640564 2.04289246.93194687.96042961.93194687.96042961 1.88272094 1.94026184.55037934.5573735 1.10075867 1.11474701 1.66781617 1.68901062 1.57072167 2.42885363 1.52483693 3.97560938 1.17446899 6.81611633-1.55873665 2.11193534-3.04541051 3.83735333-4.875 5.6875-.51868652.54237305-1.03737305 1.08474609-1.57177734 1.64355469-1.83530101 1.90566567-3.69254976 3.7880477-5.55322266 5.66894531-.75990234.77359863-1.51980469 1.54719727-2.30273438 2.34423828-3.97744898 4.0437398-7.9692973 8.07319983-11.98632812 12.07763672-.66725098.66612305-1.33450195 1.33224609-2.02197266 2.01855469-2.50431061 2.31245103-3.64092124 2.55432919-7.12646484 2.93457031-3.5625-.375-3.5625-.375-5.5625-2.5625-1.18743444-3.33965936-1.11644142-4.47229451 0-7.8125 1.73050968-2.06971803 3.41390009-3.8813276 5.34765625-5.73828125.53129013-.52563034 1.06258026-1.05126068 1.60997009-1.59281921 1.69243948-1.67012002 3.39827362-3.32576431 5.10487366-4.98139954 1.15260573-1.13253508 2.30430942-2.26598899 3.45507812-3.40039062 2.81713309-2.77312469 5.64635916-5.53335231 8.48242188-8.28710938-3.31835885-4.02598949-6.73383658-7.78520242-10.48828125-11.41015625-.78826172-.76248047-1.57652344-1.52496094-2.38867187-2.31054687-1.63581656-1.57285008-3.27919078-3.13787432-4.9296875-4.6953125-.78181641-.76119141-1.56363282-1.52238282-2.36914063-2.30664063-.71067627-.67812744-1.42135254-1.35625488-2.15356445-2.05493164-2.07925483-2.76595889-2.47617465-4.79183757-2.6706543-8.22241211 2.74687038-4.17524297 5.17915073-4.76638961 10-4z" fill="#f8f9fb" transform="translate(90 78)"/><path d="m0 0h10v10h9c0-3.3 0-6.6 0-10h10v10h10v10h9v9c-3.96.495-3.96.495-8 1-.33 2.97-.66 5.94-1 9-3.3 0-6.6 0-10 0 0-3.3 0-6.6 0-10-1.299375.144375-2.59875.28875-3.9375.4375-.73089844.08121094-1.46179688.16242188-2.21484375.24609375-1.85905854.13527239-1.85905854.13527239-2.84765625 1.31640625-.23075082 1.34747084-.41153063 2.70377565-.5625 4.0625-.144375 1.299375-.28875 2.59875-.4375 3.9375-2.97 0-5.94 0-9 0-.09765625-6.93359375-.09765625-6.93359375 0-9 1-1 1-1 2.84765625-1.09765625 2.05078125.03255208 4.1015625.06510417 6.15234375.09765625 0-2.97 0-5.94 0-9-2.97 0-5.94 0-9 0v9c-3.3 0-6.6 0-10 0 0-9.57 0-19.14 0-29z" fill="#f0f0f0" transform="translate(0 184)"/><path d="m0 0c3.46679688.04882812 3.46679688.04882812 6.93359375.09765625v10c-2.97 0-5.94 0-9 0v9h9v10c-3.3 0-6.6 0-10 0 0-2.97 0-5.94 0-9-2.97 0-5.94 0-9 0v9c-3.3 0-6.6 0-10 0-.09765625-6.93359375-.09765625-6.93359375 0-9 1-1 1-1 3.06640625-1.09765625 3.46679688.04882812 3.46679688.04882812 6.93359375.09765625 0-2.97 0-5.94 0-9h9c-.020625-1.464375-.04125-2.92875-.0625-4.4375-.02142007-1.52082518-.00929964-3.04321962.0625-4.5625 1-1 1-1 3.06640625-1.09765625z" fill="#fefefe" transform="translate(216.066406 193.902344)"/><path d="m0 0c1.20140625-.01611328 2.4028125-.03222656 3.640625-.04882812 1.14984375-.00064454 2.2996875-.00128907 3.484375-.00195313 1.05445313-.00298096 2.10890625-.00596191 3.1953125-.0090332 2.6796875.37231445 2.6796875.37231445 4.51953125 1.71142578 1.83927373 2.63311851 1.60548768 4.54356869 1.16015625 7.66088867-2.05943248 2.6338665-3.26877874 3.84868658-6.57788086 4.53344727-3.1213869.03563528-6.23805898.06047163-9.35961914.02905273-1.08474609.02384766-2.16949219.04769531-3.28710938.07226562-8.86722028-.01635012-8.86722028-.01635012-12.02929687-2.97070312-1.74609375-2.6640625-1.74609375-2.6640625-1.74609375-5.8515625 2.53043289-7.11684249 10.74080459-5.14178969 17-5.125z" fill="#f5f7f9" transform="translate(128 134.6875)"/><path d="m0 0h1v100c-.33 0-.66 0-1 0 0-2.31 0-4.62 0-7-.99 0-1.98 0-3 0 0-2.97 0-5.94 0-9h3c0-3.3 0-6.6 0-10-.99 0-1.98 0-3 0 0-3.3 0-6.6 0-10h3c0-3.3 0-6.6 0-10-1.32-.33-2.64-.66-4-1l1-8h3c0-3.3 0-6.6 0-10-.99 0-1.98 0-3 0 0-3.3 0-6.6 0-10h3c0-2.97 0-5.94 0-9-.99 0-1.98 0-3 0 0-3.3 0-6.6 0-10h3c0-1.98 0-3.96 0-6zm-10.15234375 53.90234375c2.05078125.03255208 4.1015625.06510417 6.15234375.09765625v10c-2.97 0-5.94 0-9 0-.09765625-6.93359375-.09765625-6.93359375 0-9 1-1 1-1 2.84765625-1.09765625z" fill="#fefefe" transform="translate(52 62)"/><path d="m0 0h10v9h9v5c-9.57 0-19.14 0-29 0 0-1.65 0-3.3 0-5h10c0-2.97 0-5.94 0-9zm22.06640625-.09765625c3.46679687.04882813 3.46679687.04882813 6.93359375.09765625v9c-3.3 0-6.6 0-10 0-.09765625-6.15234375-.09765625-6.15234375 0-8 1-1 1-1 3.06640625-1.09765625z" fill="#fafafa" transform="translate(97 39)"/><path d="m0 0h10c.09765625 6.93359375.09765625 6.93359375 0 9-1 1-1 1-3.06640625 1.09765625-3.46679687-.04882813-3.46679687-.04882813-6.93359375-.09765625v9c-2.97.33-5.94.66-9 1-.33 2.97-.66 5.94-1 9-2.97 0-5.94 0-9 0 0-3.3 0-6.6 0-10h9c0-3.3 0-6.6 0-10h10c0-2.97 0-5.94 0-9z" fill="#eee" transform="translate(29 39)"/><path d="m0 0h2v31c-10.23 0-20.46 0-31 0 0-.66 0-1.32 0-2h10c0-2.97 0-5.94 0-9h9v9h10c0-3.3 0-6.6 0-10-2.97 0-5.94 0-9 0 0-2.97 0-5.94 0-9h9c0-3.3 0-6.6 0-10z" fill="#f1f1f1" transform="translate(223 194)"/><path d="m0 0h10v10c-4.455.495-4.455.495-9 1-.33 2.64-.66 5.28-1 8-3.96.495-3.96.495-8 1-.33 2.97-.66 5.94-1 9-3.3 0-6.6 0-10 0 0-2.97 0-5.94 0-9l9-1c.495-4.455.495-4.455 1-9h9c0-3.3 0-6.6 0-10z" fill="#eee" transform="translate(213 126)"/><path d="m0 0h10v10c-4.455.495-4.455.495-9 1-.33 2.64-.66 5.28-1 8-3.96.495-3.96.495-8 1-.33 2.97-.66 5.94-1 9-3.3 0-6.6 0-10 0 0-2.97 0-5.94 0-9l9-1c.495-4.455.495-4.455 1-9h9c0-3.3 0-6.6 0-10z" fill="#eee" transform="translate(213 29)"/><path d="m0 0h10v9c-3.3 0-6.6 0-10 0 0-2.97 0-5.94 0-9zm-8 9h8v5h74v1c-32.34 0-64.68 0-98 0 0-.33 0-.66 0-1h15c.33-1.65.66-3.3 1-5z" fill="#dde2eb" transform="translate(87 39)"/><path d="m0 0c.8146875.00257813 1.629375.00515625 2.46875.0078125.8146875-.00257813 1.629375-.00515625 2.46875-.0078125 2.03125.1328125 2.03125.1328125 3.03125 1.1328125 2.98889359.45765667 5.98969648.70320951 9 1v9c-3.3 0-6.6 0-10 0 0-2.97 0-5.94 0-9-2.97 0-5.94 0-9 0v9c-3.3 0-6.6 0-10 0 0-2.97 0-5.94 0-9 1.464375-.144375 2.92875-.28875 4.4375-.4375 2.9239795-.28827967 4.93785897-1.52165809 7.59375-1.6953125z" fill="#eee" transform="translate(80.03125 172.867188)"/><path d="m0 0h10v9c-4.455.495-4.455.495-9 1-.33 2.97-.66 5.94-1 9-3.3 0-6.6 0-10 0 0-3.3 0-6.6 0-10h10c0-2.97 0-5.94 0-9z" fill="#eee" transform="translate(194 204)"/><path d="m0 0h10v9c-4.455.495-4.455.495-9 1-.33 2.97-.66 5.94-1 9-3.3 0-6.6 0-10 0 0-3.3 0-6.6 0-10h10c0-2.97 0-5.94 0-9z" fill="#eee" transform="translate(97 204)"/><path d="m0 0h9v9c-2.64.33-5.28.66-8 1-.33 2.97-.66 5.94-1 9-3.3 0-6.6 0-10 0 0-3.3 0-6.6 0-10h10c0-2.97 0-5.94 0-9z" fill="#fefefe" transform="translate(10 204)"/><path d="m0 0h9v9c-2.64.33-5.28.66-8 1-.33 2.97-.66 5.94-1 9-3.3 0-6.6 0-10 0 0-3.3 0-6.6 0-10h10c0-2.97 0-5.94 0-9z" fill="#eee" transform="translate(39 107)"/><path d="m0 0h9v9c-2.64.33-5.28.66-8 1-.33 2.97-.66 5.94-1 9-3.3 0-6.6 0-10 0 0-3.3 0-6.6 0-10h10c0-2.97 0-5.94 0-9z" fill="#fefefe" transform="translate(10 107)"/><path d="m0 0h9c.87890625 6.93359375.87890625 6.93359375 1 9-1 1-1 1-3.06640625 1.09765625-3.46679687-.04882813-3.46679687-.04882813-6.93359375-.09765625v9c-3.3 0-6.6 0-10 0 0-2.97 0-5.94 0-9l9-1z" fill="#fefefe" transform="translate(204 68)"/><path d="m0 0h10v10c-4.455.495-4.455.495-9 1-.33 2.64-.66 5.28-1 8-2.97 0-5.94 0-9 0 0-2.97 0-5.94 0-9h9c0-3.3 0-6.6 0-10z" fill="#eee" transform="translate(19 29)"/><path d="m0 0h9v9c-2.64.33-5.28.66-8 1-.33 2.97-.66 5.94-1 9-3.3 0-6.6 0-10 0 0-3.3 0-6.6 0-10h9z" fill="#eee" transform="translate(175 204)"/><path d="m0 0h9v9c-2.64.33-5.28.66-8 1-.33 2.97-.66 5.94-1 9-3.3 0-6.6 0-10 0 0-3.3 0-6.6 0-10h9z" fill="#eee" transform="translate(78 204)"/><path d="m0 0h9v9c-2.64.33-5.28.66-8 1-.33 2.97-.66 5.94-1 9-3.3 0-6.6 0-10 0-.09765625-6.93359375-.09765625-6.93359375 0-9 1-1 1-1 3.06640625-1.09765625 3.46679687.04882813 3.46679687.04882813 6.93359375.09765625 0-2.97 0-5.94 0-9z" fill="#fefefe" transform="translate(107 204)"/><path d="m0 0h9v9c-2.64.33-5.28.66-8 1-.33 2.97-.66 5.94-1 9-3.3 0-6.6 0-10 0 0-3.3 0-6.6 0-10h9z" fill="#eee" transform="translate(78 10)"/><path d="m0 0h9v9c-2.64.33-5.28.66-8 1-.33 2.97-.66 5.94-1 9-3.3 0-6.6 0-10 0-.09765625-6.93359375-.09765625-6.93359375 0-9 1-1 1-1 3.06640625-1.09765625 3.46679687.04882813 3.46679687.04882813 6.93359375.09765625 0-2.97 0-5.94 0-9z" fill="#fefefe" transform="translate(204 10)"/><path d="m0 0h9v9c-2.64.33-5.28.66-8 1-.33 2.97-.66 5.94-1 9-3.3 0-6.6 0-10 0-.09765625-6.93359375-.09765625-6.93359375 0-9 1-1 1-1 3.06640625-1.09765625 3.46679687.04882813 3.46679687.04882813 6.93359375.09765625 0-2.97 0-5.94 0-9z" fill="#fefefe" transform="translate(107 10)"/><path d="m0 0c3.46679688.04882812 3.46679688.04882812 6.93359375.09765625v9c-3.3 0-6.6 0-10 0-.09765625-6.15234375-.09765625-6.15234375 0-8 1-1 1-1 3.06640625-1.09765625zm-12.06640625 9.09765625h9v10c-2.97 0-5.94 0-9 0 0-3.3 0-6.6 0-10z" fill="#fefefe" transform="translate(22.066406 135.902344)"/><path d="m0 0c3.46679688.04882812 3.46679688.04882812 6.93359375.09765625v9c-3.3 0-6.6 0-10 0-.09765625-6.15234375-.09765625-6.15234375 0-8 1-1 1-1 3.06640625-1.09765625zm-12.06640625 9.09765625h9v10c-2.97 0-5.94 0-9 0 0-3.3 0-6.6 0-10z" fill="#fefefe" transform="translate(22.066406 38.902344)"/><path d="m0 0c3.46679688.04882812 3.46679688.04882812 6.93359375.09765625v9c-3.3 0-6.6 0-10 0-.09765625-6.15234375-.09765625-6.15234375 0-8 1-1 1-1 3.06640625-1.09765625zm-9.21875 9c2.05078125.03255208 4.1015625.06510417 6.15234375.09765625v10c-2.97 0-5.94 0-9 0-.09765625-6.93359375-.09765625-6.93359375 0-9 1-1 1-1 2.84765625-1.09765625z" fill="#fefefe" transform="translate(216.066406 135.902344)"/><path d="m0 0c3.46679688.04882812 3.46679688.04882812 6.93359375.09765625v9c-3.3 0-6.6 0-10 0-.09765625-6.15234375-.09765625-6.15234375 0-8 1-1 1-1 3.06640625-1.09765625zm-9.21875 9c2.05078125.03255208 4.1015625.06510417 6.15234375.09765625v10c-2.97 0-5.94 0-9 0-.09765625-6.93359375-.09765625-6.93359375 0-9 1-1 1-1 2.84765625-1.09765625z" fill="#fefefe" transform="translate(216.066406 38.902344)"/><path d="m0 0h9v9c-3.3 0-6.6 0-10 0zm-10 9h9v10c-2.97 0-5.94 0-9 0 0-3.3 0-6.6 0-10z" fill="#ededed" transform="translate(146 175)"/><path d="m0 0h9v9c-3.3 0-6.6 0-10 0zm-10 9h9v10c-2.97 0-5.94 0-9 0 0-3.3 0-6.6 0-10z" fill="#ededed" transform="translate(49 175)"/><path d="m0 0h9v9c-3.3 0-6.6 0-10 0zm-7.15234375 8.90234375c2.05078125.03255208 4.1015625.06510417 6.15234375.09765625v10c-2.97 0-5.94 0-9 0-.09765625-6.93359375-.09765625-6.93359375 0-9 1-1 1-1 2.84765625-1.09765625z" fill="#fefefe" transform="translate(49 204)"/><path d="m0 0h9v9c-3.3 0-6.6 0-10 0zm-7.15234375 8.90234375c2.05078125.03255208 4.1015625.06510417 6.15234375.09765625v10c-2.97 0-5.94 0-9 0-.09765625-6.93359375-.09765625-6.93359375 0-9 1-1 1-1 2.84765625-1.09765625z" fill="#fefefe" transform="translate(146 10)"/><path d="m0 0h9v9c-3.3 0-6.6 0-10 0zm-7.15234375 8.90234375c2.05078125.03255208 4.1015625.06510417 6.15234375.09765625v10c-2.97 0-5.94 0-9 0-.09765625-6.93359375-.09765625-6.93359375 0-9 1-1 1-1 2.84765625-1.09765625z" fill="#fefefe" transform="translate(49 10)"/><path d="m0 0c2.05078125.03255208 4.1015625.06510417 6.15234375.09765625v10h10v2c-9.57 0-19.14 0-29 0 0-.66 0-1.32 0-2h10c-.020625-1.464375-.04125-2.92875-.0625-4.4375-.02142007-1.52082518-.00929964-3.04321962.0625-4.5625 1-1 1-1 2.84765625-1.09765625z" fill="#fcfcfc" transform="translate(177.847656 212.902344)"/><path d="m0 0h9v9c-2.64.33-5.28.66-8 1-.33 1.32-.66 2.64-1 4-3.3 0-6.6 0-10 0 0-1.32 0-2.64 0-4l9-1z" fill="#fefefe" transform="translate(78 39)"/><path d="m0 0h3v9c-1.32-.33-2.64-.66-4-1zm-10 9h9v10c-2.97 0-5.94 0-9 0 0-3.3 0-6.6 0-10z" fill="#ededed" transform="translate(49 78)"/><path d="m0 0h9c.09765625 6.93359375.09765625 6.93359375 0 9-1 1-1 1-2.84765625 1.09765625-2.05078125-.03255208-4.1015625-.06510417-6.15234375-.09765625v9c-.99 0-1.98 0-3 0 0-2.97 0-5.94 0-9l2-1c.46651207-2.12576782.46651207-2.12576782.625-4.5625z" fill="#fdfdfd" transform="translate(175 136)"/><path d="m0 0h9v9c-2.64.33-5.28.66-8 1-.33 2.97-.66 5.94-1 9-.66 0-1.32 0-2 0-.02689216-1.47906892-.04634621-2.95827483-.0625-4.4375-.01160156-.82371094-.02320313-1.64742187-.03515625-2.49609375.09765625-2.06640625.09765625-2.06640625 1.09765625-3.06640625.23192865-1.51469448.41215238-3.03754562.5625-4.5625.144375-1.464375.28875-2.92875.4375-4.4375z" fill="#eee" transform="translate(175 107)"/><path d="m0 0h10v10c-3.3.33-6.6.66-10 1 0-3.63 0-7.26 0-11z" fill="#eee" transform="translate(19 87)"/><path d="m0 0h10v10c-3.3 0-6.6 0-10 0 0-3.3 0-6.6 0-10z" fill="#fdfdfd" transform="translate(194 194)"/><path d="m0 0h10v10c-3.3 0-6.6 0-10 0 0-3.3 0-6.6 0-10z" fill="#eee" transform="translate(165 194)"/><path d="m0 0h10v10c-3.3 0-6.6 0-10 0 0-3.3 0-6.6 0-10z" fill="#fefefe" transform="translate(155 194)"/><path d="m0 0h10v10c-3.3 0-6.6 0-10 0 0-3.3 0-6.6 0-10z" fill="#eee" transform="translate(126 194)"/><path d="m0 0h10v10c-3.3 0-6.6 0-10 0 0-3.3 0-6.6 0-10z" fill="#fdfdfd" transform="translate(97 194)"/><path d="m0 0h10v10c-3.3 0-6.6 0-10 0 0-3.3 0-6.6 0-10z" fill="#eee" transform="translate(68 194)"/><path d="m0 0h10v10c-3.3 0-6.6 0-10 0 0-3.3 0-6.6 0-10z" fill="#fefefe" transform="translate(58 194)"/><path d="m0 0h10v10c-3.3 0-6.6 0-10 0 0-3.3 0-6.6 0-10z" fill="#eee" transform="translate(29 194)"/><path d="m0 0h10v10c-3.3 0-6.6 0-10 0 0-3.3 0-6.6 0-10z" fill="#fefefe" transform="translate(126 184)"/><path d="m0 0h10v10c-3.3 0-6.6 0-10 0 0-3.3 0-6.6 0-10z" fill="#eee" transform="translate(97 184)"/><path d="m0 0h10v10c-3.3 0-6.6 0-10 0 0-3.3 0-6.6 0-10z" fill="#eee" transform="translate(58 184)"/><path d="m0 0h10v10c-3.3 0-6.6 0-10 0 0-3.3 0-6.6 0-10z" fill="#eee" transform="translate(0 184)"/><path d="m0 0h10v10c-3.3 0-6.6 0-10 0 0-3.3 0-6.6 0-10z" fill="#eee" transform="translate(0 165)"/><path d="m0 0h10v10c-3.3 0-6.6 0-10 0 0-3.3 0-6.6 0-10z" fill="#fefefe" transform="translate(194 155)"/><path d="m0 0h10v10c-3.3 0-6.6 0-10 0 0-3.3 0-6.6 0-10z" fill="#eee" transform="translate(184 155)"/><path d="m0 0h10v10c-3.3 0-6.6 0-10 0 0-3.3 0-6.6 0-10z" fill="#eee" transform="translate(29 155)"/><path d="m0 0h10v10c-3.3 0-6.6 0-10 0 0-3.3 0-6.6 0-10z" fill="#fefefe" transform="translate(0 155)"/><path d="m0 0h10v10c-3.3 0-6.6 0-10 0 0-3.3 0-6.6 0-10z" fill="#eee" transform="translate(194 126)"/><path d="m0 0h10v10c-3.3 0-6.6 0-10 0 0-3.3 0-6.6 0-10z" fill="#fefefe" transform="translate(184 126)"/><path d="m0 0h10v10c-3.3 0-6.6 0-10 0 0-3.3 0-6.6 0-10z" fill="#fefefe" transform="translate(29 126)"/><path d="m0 0h10v10c-3.3 0-6.6 0-10 0 0-3.3 0-6.6 0-10z" fill="#eee" transform="translate(0 126)"/><path d="m0 0h10v10c-3.3 0-6.6 0-10 0 0-3.3 0-6.6 0-10z" fill="#fdfdfd" transform="translate(194 97)"/><path d="m0 0h10v10c-3.3 0-6.6 0-10 0 0-3.3 0-6.6 0-10z" fill="#eee" transform="translate(29 97)"/><path d="m0 0h10v10c-3.3 0-6.6 0-10 0 0-3.3 0-6.6 0-10z" fill="#fefefe" transform="translate(184 87)"/><path d="m0 0h10v10c-3.3 0-6.6 0-10 0 0-3.3 0-6.6 0-10z" fill="#eee" transform="translate(0 87)"/><path d="m0 0h10v10c-3.3 0-6.6 0-10 0 0-3.3 0-6.6 0-10z" fill="#fefefe" transform="translate(29 68)"/><path d="m0 0h10v10c-3.3 0-6.6 0-10 0 0-3.3 0-6.6 0-10z" fill="#eee" transform="translate(0 68)"/><path d="m0 0h10v10c-3.3 0-6.6 0-10 0 0-3.3 0-6.6 0-10z" fill="#fefefe" transform="translate(194 58)"/><path d="m0 0h10v10c-3.3 0-6.6 0-10 0 0-3.3 0-6.6 0-10z" fill="#eee" transform="translate(29 58)"/><path d="m0 0h10v10c-3.3 0-6.6 0-10 0 0-3.3 0-6.6 0-10z" fill="#fefefe" transform="translate(0 58)"/><path d="m0 0h10v10c-3.3 0-6.6 0-10 0 0-3.3 0-6.6 0-10z" fill="#eee" transform="translate(194 29)"/><path d="m0 0h10v10c-3.3 0-6.6 0-10 0 0-3.3 0-6.6 0-10z" fill="#fefefe" transform="translate(184 29)"/><path d="m0 0h10v10c-3.3 0-6.6 0-10 0 0-3.3 0-6.6 0-10z" fill="#eee" transform="translate(155 29)"/><path d="m0 0h10v10c-3.3 0-6.6 0-10 0 0-3.3 0-6.6 0-10z" fill="#fefefe" transform="translate(126 29)"/><path d="m0 0h10v10c-3.3 0-6.6 0-10 0 0-3.3 0-6.6 0-10z" fill="#eee" transform="translate(97 29)"/><path d="m0 0h10v10c-3.3 0-6.6 0-10 0 0-3.3 0-6.6 0-10z" fill="#fefefe" transform="translate(87 29)"/><path d="m0 0h10v10c-3.3 0-6.6 0-10 0 0-3.3 0-6.6 0-10z" fill="#fefefe" transform="translate(68 29)"/><path d="m0 0h10v10c-3.3 0-6.6 0-10 0 0-3.3 0-6.6 0-10z" fill="#eee" transform="translate(58 29)"/><path d="m0 0h10v10c-3.3 0-6.6 0-10 0 0-3.3 0-6.6 0-10z" fill="#fefefe" transform="translate(29 29)"/><path d="m0 0h10v10c-3.3 0-6.6 0-10 0 0-3.3 0-6.6 0-10z" fill="#eee" transform="translate(0 29)"/><path d="m0 0h10v10c-3.3 0-6.6 0-10 0 0-3.3 0-6.6 0-10z" fill="#eee" transform="translate(184)"/><path d="m0 0h10v10c-3.3 0-6.6 0-10 0 0-3.3 0-6.6 0-10z" fill="#fefefe" transform="translate(155)"/><path d="m0 0h10v10c-3.3 0-6.6 0-10 0 0-3.3 0-6.6 0-10z" fill="#eee" transform="translate(126)"/><path d="m0 0h10v10c-3.3 0-6.6 0-10 0 0-3.3 0-6.6 0-10z" fill="#fdfdfd" transform="translate(97)"/><path d="m0 0h10v10c-3.3 0-6.6 0-10 0 0-3.3 0-6.6 0-10z" fill="#eee" transform="translate(87)"/><path d="m0 0h10v10c-3.3 0-6.6 0-10 0 0-3.3 0-6.6 0-10z" fill="#fefefe" transform="translate(58)"/><path d="m0 0h10v10c-3.3 0-6.6 0-10 0 0-3.3 0-6.6 0-10z" fill="#eee" transform="translate(29)"/><path d="m0 0c3.46679688.04882812 3.46679688.04882812 6.93359375.09765625v10c-3.3 0-6.6 0-10 0-.09765625-6.93359375-.09765625-6.93359375 0-9 1-1 1-1 3.06640625-1.09765625z" fill="#fefefe" transform="translate(158.066406 212.902344)"/><path d="m0 0c3.46679688.04882812 3.46679688.04882812 6.93359375.09765625v10c-3.3 0-6.6 0-10 0-.09765625-6.93359375-.09765625-6.93359375 0-9 1-1 1-1 3.06640625-1.09765625z" fill="#fefefe" transform="translate(61.066406 212.902344)"/><path d="m0 0h10c.09765625 6.93359375.09765625 6.93359375 0 9-1 1-1 1-3.06640625 1.09765625-3.46679687-.04882813-3.46679687-.04882813-6.93359375-.09765625 0-3.3 0-6.6 0-10z" fill="#eee" transform="translate(194 165)"/><path d="m0 0h10v10c-6.93359375.09765625-6.93359375.09765625-9 0-1-1-1-1-1.09765625-3.06640625.03255208-2.31119792.06510417-4.62239583.09765625-6.93359375z" fill="#fefefe" transform="translate(184 165)"/><path d="m0 0h10c.09765625 6.93359375.09765625 6.93359375 0 9-1 1-1 1-3.06640625 1.09765625-3.46679687-.04882813-3.46679687-.04882813-6.93359375-.09765625 0-3.3 0-6.6 0-10z" fill="#fefefe" transform="translate(29 165)"/><path d="m0 0c3.46679688.04882812 3.46679688.04882812 6.93359375.09765625v10c-3.3 0-6.6 0-10 0-.09765625-6.93359375-.09765625-6.93359375 0-9 1-1 1-1 3.06640625-1.09765625z" fill="#fefefe" transform="translate(216.066406 154.902344)"/><path d="m0 0c3.46679688.04882812 3.46679688.04882812 6.93359375.09765625v10c-3.3 0-6.6 0-10 0-.09765625-6.93359375-.09765625-6.93359375 0-9 1-1 1-1 3.06640625-1.09765625z" fill="#fefefe" transform="translate(22.066406 154.902344)"/><path d="m0 0h10c.09765625 6.93359375.09765625 6.93359375 0 9-1 1-1 1-3.06640625 1.09765625-3.46679687-.04882813-3.46679687-.04882813-6.93359375-.09765625 0-3.3 0-6.6 0-10z" fill="#eee" transform="translate(194 68)"/><path d="m0 0h10v10c-6.93359375.09765625-6.93359375.09765625-9 0-1-1-1-1-1.09765625-3.06640625.03255208-2.31119792.06510417-4.62239583.09765625-6.93359375z" fill="#fefefe" transform="translate(184 68)"/><path d="m0 0c3.46679688.04882812 3.46679688.04882812 6.93359375.09765625v10c-3.3 0-6.6 0-10 0-.09765625-6.93359375-.09765625-6.93359375 0-9 1-1 1-1 3.06640625-1.09765625z" fill="#fefefe" transform="translate(216.066406 57.902344)"/><path d="m0 0c3.46679688.04882812 3.46679688.04882812 6.93359375.09765625v10c-3.3 0-6.6 0-10 0-.09765625-6.93359375-.09765625-6.93359375 0-9 1-1 1-1 3.06640625-1.09765625z" fill="#fefefe" transform="translate(22.066406 57.902344)"/><path d="m0 0h10c.09765625 6.93359375.09765625 6.93359375 0 9-1 1-1 1-3.06640625 1.09765625-3.46679687-.04882813-3.46679687-.04882813-6.93359375-.09765625 0-3.3 0-6.6 0-10z" fill="#fefefe" transform="translate(165 29)"/><path d="m0 0c3.46679688.04882812 3.46679688.04882812 6.93359375.09765625v10c-3.3 0-6.6 0-10 0-.09765625-6.93359375-.09765625-6.93359375 0-9 1-1 1-1 3.06640625-1.09765625z" fill="#fefefe" transform="translate(158.066406 18.902344)"/><path d="m0 0c3.46679688.04882812 3.46679688.04882812 6.93359375.09765625v10c-3.3 0-6.6 0-10 0-.09765625-6.93359375-.09765625-6.93359375 0-9 1-1 1-1 3.06640625-1.09765625z" fill="#fefefe" transform="translate(61.066406 18.902344)"/><path d="m0 0c6.93359375-.09765625 6.93359375-.09765625 9 0 1 1 1 1 1.09765625 3.06640625-.03255208 2.31119792-.06510417 4.62239583-.09765625 6.93359375-3.3 0-6.6 0-10 0 0-3.3 0-6.6 0-10z" fill="#fdfdfd" transform="translate(0 19)"/><path d="m0 0h10v10c-6.93359375.09765625-6.93359375.09765625-9 0-1-1-1-1-1.09765625-3.06640625.03255208-2.31119792.06510417-4.62239583.09765625-6.93359375z" fill="#fdfdfd" transform="translate(19)"/><path d="m0 0c3.46679688.04882812 3.46679688.04882812 6.93359375.09765625v10c-6.93359375.09765625-6.93359375.09765625-9 0-1-1-1-1-1.1328125-2.8125.00257812-.721875.00515625-1.44375.0078125-2.1875-.00257812-.721875-.00515625-1.44375-.0078125-2.1875.19281481-2.63135505.56784823-2.78580037 3.19921875-2.91015625z" fill="#fdfdfd" transform="translate(119.066406 193.902344)"/><path d="m0 0c3.46679688.04882812 3.46679688.04882812 6.93359375.09765625v10c-6.93359375.09765625-6.93359375.09765625-9 0-1-1-1-1-1.1328125-2.8125.00257812-.721875.00515625-1.44375.0078125-2.1875-.00257812-.721875-.00515625-1.44375-.0078125-2.1875.19281481-2.63135505.56784823-2.78580037 3.19921875-2.91015625z" fill="#fdfdfd" transform="translate(22.066406 193.902344)"/><path d="m0 0c3.46679688.04882812 3.46679688.04882812 6.93359375.09765625v10c-6.93359375.09765625-6.93359375.09765625-9 0-1-1-1-1-1.1328125-2.8125.00257812-.721875.00515625-1.44375.0078125-2.1875-.00257812-.721875-.00515625-1.44375-.0078125-2.1875.19281481-2.63135505.56784823-2.78580037 3.19921875-2.91015625z" fill="#fdfdfd" transform="translate(22.066406 96.902344)"/><g fill="#fefefe"><path d="m0 0c2.01822917.06510417 4.03645833.13020833 6.0546875.1953125v10c-3.3 0-6.6 0-10 0-.1953125-6.0546875-.1953125-6.0546875 0-8 2-2 2-2 3.9453125-2.1953125z" transform="translate(119.945313 212.804688)"/><path d="m0 0c2.01822917.06510417 4.03645833.13020833 6.0546875.1953125v10c-3.3 0-6.6 0-10 0-.1953125-6.0546875-.1953125-6.0546875 0-8 2-2 2-2 3.9453125-2.1953125z" transform="translate(22.945313 212.804688)"/><path d="m0 0c2.01822917.06510417 4.03645833.13020833 6.0546875.1953125v10c-3.3 0-6.6 0-10 0-.1953125-6.0546875-.1953125-6.0546875 0-8 2-2 2-2 3.9453125-2.1953125z" transform="translate(22.945313 115.804688)"/><path d="m0 0c2.01822917.06510417 4.03645833.13020833 6.0546875.1953125v10c-3.3 0-6.6 0-10 0-.1953125-6.0546875-.1953125-6.0546875 0-8 2-2 2-2 3.9453125-2.1953125z" transform="translate(216.945313 18.804688)"/><path d="m0 0c2.01822917.06510417 4.03645833.13020833 6.0546875.1953125v10c-3.3 0-6.6 0-10 0-.1953125-6.0546875-.1953125-6.0546875 0-8 2-2 2-2 3.9453125-2.1953125z" transform="translate(119.945313 18.804688)"/><path d="m0 0c2.01822917.06510417 4.03645833.13020833 6.0546875.1953125v10c-3.3 0-6.6 0-10 0-.1953125-6.0546875-.1953125-6.0546875 0-8 2-2 2-2 3.9453125-2.1953125z" transform="translate(22.945313 18.804688)"/><path d="m0 0h10v9c-3.2830098 1.6415049-6.42545033.51888624-10 0 0-2.97 0-5.94 0-9z" transform="translate(165 204)"/><path d="m0 0h10v9c-3.2830098 1.6415049-6.42545033.51888624-10 0 0-2.97 0-5.94 0-9z" transform="translate(68 204)"/><path d="m0 0h9c.87890625 6.93359375.87890625 6.93359375 1 9-1 1-1 1-3.06640625 1.09765625-3.46679687-.04882813-3.46679687-.04882813-6.93359375-.09765625 0-3.3 0-6.6 0-10z" transform="translate(10 165)"/></g><path d="m0 0v10c-3.3 0-6.6 0-10 0 0-2.97 0-5.94 0-9 1.464375-.165 2.92875-.33 4.4375-.5 1.23556641-.13921875 1.23556641-.13921875 2.49609375-.28125 2.06640625-.21875 2.06640625-.21875 3.06640625-.21875z" fill="#eee" transform="translate(10 145)"/><path d="m0 0h10v9c-3.2830098 1.6415049-6.42545033.51888624-10 0 0-2.97 0-5.94 0-9z" fill="#fefefe" transform="translate(194 136)"/><path d="m0 0h9c.87890625 6.93359375.87890625 6.93359375 1 9-1 1-1 1-3.06640625 1.09765625-3.46679687-.04882813-3.46679687-.04882813-6.93359375-.09765625 0-3.3 0-6.6 0-10z" fill="#fefefe" transform="translate(10 68)"/><path d="m0 0v10c-3.3 0-6.6 0-10 0 0-2.97 0-5.94 0-9 1.464375-.165 2.92875-.33 4.4375-.5 1.23556641-.13921875 1.23556641-.13921875 2.49609375-.28125 2.06640625-.21875 2.06640625-.21875 3.06640625-.21875z" fill="#eee" transform="translate(10 48)"/><path d="m0 0h10v9c-3.2830098 1.6415049-6.42545033.51888624-10 0 0-2.97 0-5.94 0-9z" fill="#fefefe" transform="translate(194 39)"/><path d="m0 0h10v9c-3.2830098 1.6415049-6.42545033.51888624-10 0 0-2.97 0-5.94 0-9z" fill="#fefefe" transform="translate(97 39)"/><path d="m0 0h10v9c-3.2830098 1.6415049-6.42545033.51888624-10 0 0-2.97 0-5.94 0-9z" fill="#fefefe" transform="translate(165 10)"/><path d="m0 0h10v9c-3.2830098 1.6415049-6.42545033.51888624-10 0 0-2.97 0-5.94 0-9z" fill="#fefefe" transform="translate(68 10)"/><path d="m0 0h10v9c-3.3 0-6.6 0-10 0 0-2.97 0-5.94 0-9z" fill="#fefefe" transform="translate(184 204)"/><path d="m0 0h10v9c-3.3 0-6.6 0-10 0 0-2.97 0-5.94 0-9z" fill="#fefefe" transform="translate(126 204)"/><path d="m0 0h10v9c-3.3 0-6.6 0-10 0 0-2.97 0-5.94 0-9z" fill="#fefefe" transform="translate(87 204)"/><path d="m0 0h10v9c-3.3 0-6.6 0-10 0 0-2.97 0-5.94 0-9z" fill="#fefefe" transform="translate(29 204)"/><path d="m0 0h10v9c-3.3 0-6.6 0-10 0 0-2.97 0-5.94 0-9z" fill="#eee" transform="translate(0 204)"/><path d="m0 0h9v10c-2.97 0-5.94 0-9 0 0-3.3 0-6.6 0-10z" fill="#eee" transform="translate(146 194)"/><path d="m0 0h9v10c-2.97 0-5.94 0-9 0 0-3.3 0-6.6 0-10z" fill="#eee" transform="translate(49 194)"/><path d="m0 0h9v10c-2.97 0-5.94 0-9 0 0-3.3 0-6.6 0-10z" fill="#fefefe" transform="translate(204 184)"/><path d="m0 0h9v10c-2.97 0-5.94 0-9 0 0-3.3 0-6.6 0-10z" fill="#fefefe" transform="translate(107 184)"/><path d="m0 0h9v10c-2.97 0-5.94 0-9 0 0-3.3 0-6.6 0-10z" fill="#fefefe" transform="translate(10 184)"/><path d="m0 0h10v9c-3.3 0-6.6 0-10 0 0-2.97 0-5.94 0-9z" fill="#fefefe" transform="translate(155 175)"/><path d="m0 0h10v9c-3.3 0-6.6 0-10 0 0-2.97 0-5.94 0-9z" fill="#eee" transform="translate(29 175)"/><path d="m0 0h10v9c-3.3 0-6.6 0-10 0 0-2.97 0-5.94 0-9z" fill="#fefefe" transform="translate(0 175)"/><path d="m0 0h9v10c-2.97 0-5.94 0-9 0 0-3.3 0-6.6 0-10z" fill="#eee" transform="translate(204 155)"/><path d="m0 0h9v10c-2.97 0-5.94 0-9 0 0-3.3 0-6.6 0-10z" fill="#fefefe" transform="translate(175 155)"/><path d="m0 0h9v10c-2.97 0-5.94 0-9 0 0-3.3 0-6.6 0-10z" fill="#fefefe" transform="translate(39 155)"/><path d="m0 0h10v9c-3.3 0-6.6 0-10 0 0-2.97 0-5.94 0-9z" fill="#fefefe" transform="translate(184 146)"/><path d="m0 0h10v9c-3.3 0-6.6 0-10 0 0-2.97 0-5.94 0-9z" fill="#fefefe" transform="translate(29 146)"/><path d="m0 0h9v10c-2.97 0-5.94 0-9 0 0-3.3 0-6.6 0-10z" fill="#fefefe" transform="translate(204 126)"/><path d="m0 0h9v10c-2.97 0-5.94 0-9 0 0-3.3 0-6.6 0-10z" fill="#fefefe" transform="translate(10 126)"/><path d="m0 0h10v9c-3.3 0-6.6 0-10 0 0-2.97 0-5.94 0-9z" fill="#fefefe" transform="translate(184 107)"/><path d="m0 0h10v9c-3.3 0-6.6 0-10 0 0-2.97 0-5.94 0-9z" fill="#fefefe" transform="translate(29 107)"/><path d="m0 0h10v9c-3.3 0-6.6 0-10 0 0-2.97 0-5.94 0-9z" fill="#eee" transform="translate(0 107)"/><path d="m0 0h9v10c-2.97 0-5.94 0-9 0 0-3.3 0-6.6 0-10z" fill="#fefefe" transform="translate(204 87)"/><path d="m0 0h9v10c-2.97 0-5.94 0-9 0 0-3.3 0-6.6 0-10z" fill="#fefefe" transform="translate(10 87)"/><path d="m0 0h10v9c-3.3 0-6.6 0-10 0 0-2.97 0-5.94 0-9z" fill="#eee" transform="translate(29 78)"/><path d="m0 0h10v9c-3.3 0-6.6 0-10 0 0-2.97 0-5.94 0-9z" fill="#fefefe" transform="translate(0 78)"/><path d="m0 0h9v10c-2.97 0-5.94 0-9 0 0-3.3 0-6.6 0-10z" fill="#eee" transform="translate(204 58)"/><path d="m0 0h9v10c-2.97 0-5.94 0-9 0 0-3.3 0-6.6 0-10z" fill="#fefefe" transform="translate(175 58)"/><path d="m0 0h9v10c-2.97 0-5.94 0-9 0 0-3.3 0-6.6 0-10z" fill="#fefefe" transform="translate(39 58)"/><path d="m0 0h10v9c-3.3 0-6.6 0-10 0 0-2.97 0-5.94 0-9z" fill="#fefefe" transform="translate(184 49)"/><path d="m0 0h10v9c-3.3 0-6.6 0-10 0 0-2.97 0-5.94 0-9z" fill="#fefefe" transform="translate(29 49)"/><path d="m0 0h10v9c-3.3 0-6.6 0-10 0 0-2.97 0-5.94 0-9z" fill="#fefefe" transform="translate(155 39)"/><path d="m0 0h10v9c-3.3 0-6.6 0-10 0 0-2.97 0-5.94 0-9z" fill="#fefefe" transform="translate(58 39)"/><path d="m0 0h9v10c-2.97 0-5.94 0-9 0 0-3.3 0-6.6 0-10z" fill="#fefefe" transform="translate(204 29)"/><path d="m0 0h9v10c-2.97 0-5.94 0-9 0 0-3.3 0-6.6 0-10z" fill="#eee" transform="translate(175 29)"/><path d="m0 0h9v10c-2.97 0-5.94 0-9 0 0-3.3 0-6.6 0-10z" fill="#fefefe" transform="translate(146 29)"/><path d="m0 0h9v10c-2.97 0-5.94 0-9 0 0-3.3 0-6.6 0-10z" fill="#fefefe" transform="translate(107 29)"/><path d="m0 0h9v10c-2.97 0-5.94 0-9 0 0-3.3 0-6.6 0-10z" fill="#eee" transform="translate(78 29)"/><path d="m0 0h9v10c-2.97 0-5.94 0-9 0 0-3.3 0-6.6 0-10z" fill="#fefefe" transform="translate(49 29)"/><path d="m0 0h9v10c-2.97 0-5.94 0-9 0 0-3.3 0-6.6 0-10z" fill="#fefefe" transform="translate(10 29)"/><path d="m0 0h10v9c-3.3 0-6.6 0-10 0 0-2.97 0-5.94 0-9z" fill="#fefefe" transform="translate(184 10)"/><path d="m0 0h10v9c-3.3 0-6.6 0-10 0 0-2.97 0-5.94 0-9z" fill="#fefefe" transform="translate(126 10)"/><path d="m0 0h10v9c-3.3 0-6.6 0-10 0 0-2.97 0-5.94 0-9z" fill="#fefefe" transform="translate(87 10)"/><path d="m0 0h10v9c-3.3 0-6.6 0-10 0 0-2.97 0-5.94 0-9z" fill="#fefefe" transform="translate(29 10)"/><path d="m0 0h9v10c-2.97 0-5.94 0-9 0 0-3.3 0-6.6 0-10z" fill="#eee" transform="translate(204)"/><path d="m0 0h9v10c-2.97 0-5.94 0-9 0 0-3.3 0-6.6 0-10z" fill="#fefefe" transform="translate(175)"/><path d="m0 0h9v10c-2.97 0-5.94 0-9 0 0-3.3 0-6.6 0-10z" fill="#eee" transform="translate(146)"/><path d="m0 0h9v10c-2.97 0-5.94 0-9 0 0-3.3 0-6.6 0-10z" fill="#fefefe" transform="translate(78)"/><path d="m0 0h9v10c-2.97 0-5.94 0-9 0 0-3.3 0-6.6 0-10z" fill="#eee" transform="translate(49)"/><path d="m0 0c2.05078125.03255208 4.1015625.06510417 6.15234375.09765625v10c-2.97 0-5.94 0-9 0-.09765625-6.93359375-.09765625-6.93359375 0-9 1-1 1-1 2.84765625-1.09765625z" fill="#eee" transform="translate(177.847656 183.902344)"/><path d="m0 0c2.05078125.03255208 4.1015625.06510417 6.15234375.09765625v10c-2.97 0-5.94 0-9 0-.09765625-6.93359375-.09765625-6.93359375 0-9 1-1 1-1 2.84765625-1.09765625z" fill="#eee" transform="translate(80.847656 183.902344)"/><path d="m0 0c3.46679688.04882812 3.46679688.04882812 6.93359375.09765625v9c-3.3 0-6.6 0-10 0-.09765625-6.15234375-.09765625-6.15234375 0-8 1-1 1-1 3.06640625-1.09765625z" fill="#fefefe" transform="translate(216.066406 174.902344)"/><path d="m0 0c3.46679688.04882812 3.46679688.04882812 6.93359375.09765625v9c-3.3 0-6.6 0-10 0-.09765625-6.15234375-.09765625-6.15234375 0-8 1-1 1-1 3.06640625-1.09765625z" fill="#fefefe" transform="translate(119.066406 174.902344)"/><path d="m0 0c3.46679688.04882812 3.46679688.04882812 6.93359375.09765625v9c-3.3 0-6.6 0-10 0-.09765625-6.15234375-.09765625-6.15234375 0-8 1-1 1-1 3.06640625-1.09765625z" fill="#fefefe" transform="translate(22.066406 174.902344)"/><path d="m0 0c2.05078125.03255208 4.1015625.06510417 6.15234375.09765625v10c-2.97 0-5.94 0-9 0-.09765625-6.93359375-.09765625-6.93359375 0-9 1-1 1-1 2.84765625-1.09765625z" fill="#fefefe" transform="translate(177.847656 115.902344)"/><path d="m0 0c2.05078125.03255208 4.1015625.06510417 6.15234375.09765625v10c-2.97 0-5.94 0-9 0-.09765625-6.93359375-.09765625-6.93359375 0-9 1-1 1-1 2.84765625-1.09765625z" fill="#eee" transform="translate(177.847656 86.902344)"/><path d="m0 0c3.46679688.04882812 3.46679688.04882812 6.93359375.09765625v9c-3.3 0-6.6 0-10 0-.09765625-6.15234375-.09765625-6.15234375 0-8 1-1 1-1 3.06640625-1.09765625z" fill="#fefefe" transform="translate(216.066406 77.902344)"/><path d="m0 0c3.46679688.04882812 3.46679688.04882812 6.93359375.09765625v9c-3.3 0-6.6 0-10 0-.09765625-6.15234375-.09765625-6.15234375 0-8 1-1 1-1 3.06640625-1.09765625z" fill="#fefefe" transform="translate(22.066406 77.902344)"/><path d="m0 0c3.46679688.04882812 3.46679688.04882812 6.93359375.09765625v9c-3.3 0-6.6 0-10 0-.09765625-6.15234375-.09765625-6.15234375 0-8 1-1 1-1 3.06640625-1.09765625z" fill="#eee" transform="translate(187.066406 19.902344)"/><path d="m0 0c3.46679688.04882812 3.46679688.04882812 6.93359375.09765625v9c-3.3 0-6.6 0-10 0-.09765625-6.15234375-.09765625-6.15234375 0-8 1-1 1-1 3.06640625-1.09765625z" fill="#eee" transform="translate(90.066406 19.902344)"/><path d="m0 0c2.05078125.03255208 4.1015625.06510417 6.15234375.09765625v10c-2.97 0-5.94 0-9 0-.09765625-6.93359375-.09765625-6.93359375 0-9 1-1 1-1 2.84765625-1.09765625z" fill="#fefefe" transform="translate(177.847656 18.902344)"/><path d="m0 0c2.05078125.03255208 4.1015625.06510417 6.15234375.09765625v10c-2.97 0-5.94 0-9 0-.09765625-6.93359375-.09765625-6.93359375 0-9 1-1 1-1 2.84765625-1.09765625z" fill="#fefefe" transform="translate(80.847656 18.902344)"/><path d="m0 0h9v5l2 1c-5.29230769 4.06153846-5.29230769 4.06153846-8.875 3.75-.70125-.2475-1.4025-.495-2.125-.75 0-2.97 0-5.94 0-9z" fill="#fdfefe" transform="translate(49 49)"/><path d="m0 0h9v9c-2.97 0-5.94 0-9 0 0-2.97 0-5.94 0-9z" fill="#ededed" transform="translate(146 214)"/><path d="m0 0h9v9c-2.97 0-5.94 0-9 0 0-2.97 0-5.94 0-9z" fill="#ededed" transform="translate(49 214)"/><path d="m0 0h9v9c-2.97 0-5.94 0-9 0 0-2.97 0-5.94 0-9z" fill="#ededed" transform="translate(214 204)"/><path d="m0 0h9v9c-2.97 0-5.94 0-9 0 0-2.97 0-5.94 0-9z" fill="#ededed" transform="translate(165 175)"/><path d="m0 0h9v9c-2.97 0-5.94 0-9 0 0-2.97 0-5.94 0-9z" fill="#fff" transform="translate(136 175)"/><path d="m0 0h9v9c-2.97 0-5.94 0-9 0 0-2.97 0-5.94 0-9z" fill="#fff" transform="translate(39 175)"/><path d="m0 0h9v9c-2.97 0-5.94 0-9 0 0-2.97 0-5.94 0-9z" fill="#ededed" transform="translate(175 165)"/><path d="m0 0h9v9c-2.97 0-5.94 0-9 0 0-2.97 0-5.94 0-9z" fill="#ededed" transform="translate(39 165)"/><path d="m0 0h9v9c-2.97 0-5.94 0-9 0 0-2.97 0-5.94 0-9z" fill="#ededed" transform="translate(214 146)"/><path d="m0 0h9v9c-2.97 0-5.94 0-9 0 0-2.97 0-5.94 0-9z" fill="#ededed" transform="translate(39 146)"/><path d="m0 0h9v9c-2.97 0-5.94 0-9 0 0-2.97 0-5.94 0-9z" fill="#fff" transform="translate(39 136)"/><path d="m0 0h9v9c-2.97 0-5.94 0-9 0 0-2.97 0-5.94 0-9z" fill="#ededed" transform="translate(204 117)"/><path d="m0 0h9v9c-2.97 0-5.94 0-9 0 0-2.97 0-5.94 0-9z" fill="#ededed" transform="translate(214 107)"/><path d="m0 0h9v9c-2.97 0-5.94 0-9 0 0-2.97 0-5.94 0-9z" fill="#fff" transform="translate(39 78)"/><path d="m0 0h9v9c-2.97 0-5.94 0-9 0 0-2.97 0-5.94 0-9z" fill="#ededed" transform="translate(175 68)"/><path d="m0 0h9v9c-2.97 0-5.94 0-9 0 0-2.97 0-5.94 0-9z" fill="#ededed" transform="translate(214 49)"/><path d="m0 0h9v9c-2.97 0-5.94 0-9 0 0-2.97 0-5.94 0-9z" fill="#ededed" transform="translate(165 39)"/><path d="m0 0h9v9c-2.97 0-5.94 0-9 0 0-2.97 0-5.94 0-9z" fill="#ededed" transform="translate(146 39)"/><path d="m0 0h9v9c-2.97 0-5.94 0-9 0 0-2.97 0-5.94 0-9z" fill="#fff" transform="translate(136 39)"/><path d="m0 0h9v9c-2.97 0-5.94 0-9 0 0-2.97 0-5.94 0-9z" fill="#ededed" transform="translate(68 39)"/><path d="m0 0h9v9c-2.97 0-5.94 0-9 0 0-2.97 0-5.94 0-9z" fill="#ededed" transform="translate(49 39)"/><path d="m0 0h9v9c-2.97 0-5.94 0-9 0 0-2.97 0-5.94 0-9z" fill="#fff" transform="translate(39 39)"/><path d="m0 0h9v9c-2.97 0-5.94 0-9 0 0-2.97 0-5.94 0-9z" fill="#ededed" transform="translate(204 20)"/><path d="m0 0h9v9c-2.97 0-5.94 0-9 0 0-2.97 0-5.94 0-9z" fill="#ededed" transform="translate(107 20)"/><path d="m0 0h9v9c-2.97 0-5.94 0-9 0 0-2.97 0-5.94 0-9z" fill="#ededed" transform="translate(10 20)"/><path d="m0 0h9v9c-2.97 0-5.94 0-9 0 0-2.97 0-5.94 0-9z" fill="#ededed" transform="translate(214 10)"/><path d="m0 0h9v9c-2.97 0-5.94 0-9 0 0-2.97 0-5.94 0-9z" fill="#ededed" transform="translate(117 10)"/><path d="m0 0h9v9c-2.97 0-5.94 0-9 0 0-2.97 0-5.94 0-9z" fill="#ededed" transform="translate(20 10)"/><path d="m0 0h9v9c-2.97 0-5.94 0-9 0 0-2.97 0-5.94 0-9z" fill="#fff" transform="translate(10 10)"/><path d="m0 0h9v4c-3.57644848 1.2380014-6.33694766.74926071-10 0z" fill="#edeeee" transform="translate(156 49)"/><path d="m0 0h10v4c-3.3 0-6.6 0-10 0 0-1.32 0-2.64 0-4z" fill="#fefefe" transform="translate(126 49)"/><path d="m0 0h10v4c-3.3 0-6.6 0-10 0 0-1.32 0-2.64 0-4z" fill="#fefefe" transform="translate(87 49)"/><path d="m0 0c1.67542976.28604898 3.34385343.61781233 5 1-.99 2.97-1.98 5.94-3 9-.99 0-1.98 0-3 0-.02689216-1.47906892-.04634621-2.95827483-.0625-4.4375-.01160156-.82371094-.02320313-1.64742187-.03515625-2.49609375.09765625-2.06640625.09765625-2.06640625 1.09765625-3.06640625z" fill="#ebeced" transform="translate(50 58)"/><path d="m0 0h9v4c-3.3 0-6.6 0-10 0z" fill="#fefefe" transform="translate(146 49)"/><path d="m0 0h9v4c-2.97 0-5.94 0-9 0 0-1.32 0-2.64 0-4z" fill="#eee" transform="translate(136 49)"/><path d="m0 0h2v7h2v3c-1.65 0-3.3 0-5 0-.02689216-1.47906892-.04634621-2.95827483-.0625-4.4375-.01160156-.82371094-.02320313-1.64742187-.03515625-2.49609375.09765625-2.06640625.09765625-2.06640625 1.09765625-3.06640625z" fill="#eaebec" transform="translate(50 155)"/><path d="m0 0h3v10c-.99 0-1.98 0-3 0 0-3.3 0-6.6 0-10z" fill="#f3f3f3" transform="translate(172 97)"/><path d="m0 0h3v10c-.99 0-1.98 0-3 0 0-3.3 0-6.6 0-10z" fill="#ededed" transform="translate(49 97)"/><path d="m0 0h3v9c-.99 0-1.98 0-3 0 0-2.97 0-5.94 0-9z" fill="#ededed" transform="translate(49 136)"/><path d="m0 0h5v10c-1.66666667-3.33333333-3.33333333-6.66666667-5-10z" fill="#ebecef" transform="translate(169 58)"/><path d="m0 0h1c.33 3.63.66 7.26 1 11-2.62315032 1.31157516-4.23033436.89649988-7.125.5625-1.36511719-.15275391-1.36511719-.15275391-2.7578125-.30859375-.69867188-.08378906-1.39734375-.16757812-2.1171875-.25390625 0-.33 0-.66 0-1h10c0-3.3 0-6.6 0-10z" fill="#f5f5f5" transform="translate(19 9)"/><path d="m0 0h1c.33 3.63.66 7.26 1 11-3.2830098 1.6415049-6.42545033.51888624-10 0 0-.33 0-.66 0-1h8c0-3.3 0-6.6 0-10z" fill="#f5f5f5" transform="translate(116 203)"/><path d="m0 0h1c.33 3.63.66 7.26 1 11-3.2830098 1.6415049-6.42545033.51888624-10 0 0-.33 0-.66 0-1h8c0-3.3 0-6.6 0-10z" fill="#f5f5f5" transform="translate(19 203)"/><path d="m0 0h1c.33 3.63.66 7.26 1 11-3.2830098 1.6415049-6.42545033.51888624-10 0 0-.33 0-.66 0-1h8c0-3.3 0-6.6 0-10z" fill="#f5f5f5" transform="translate(19 106)"/><path d="m0 0h1c.33 2.97.66 5.94 1 9-3.2830098 1.6415049-6.42545033.51888624-10 0 0-.33 0-.66 0-1h8c0-2.64 0-5.28 0-8z" fill="#f5f5f5" transform="translate(213 205)"/><path d="m0 0h1c.33 2.97.66 5.94 1 9-3.2830098 1.6415049-6.42545033.51888624-10 0 0-.33 0-.66 0-1h8c0-2.64 0-5.28 0-8z" fill="#f5f5f5" transform="translate(213 108)"/><path d="m0 0h1c.33 2.97.66 5.94 1 9-3.2830098 1.6415049-6.42545033.51888624-10 0 0-.33 0-.66 0-1h8c0-2.64 0-5.28 0-8z" fill="#f5f5f5" transform="translate(213 11)"/><path d="m0 0h1c.33 2.97.66 5.94 1 9-3.2830098 1.6415049-6.42545033.51888624-10 0 0-.33 0-.66 0-1h8c0-2.64 0-5.28 0-8z" fill="#f5f5f5" transform="translate(116 11)"/><path d="m0 0h1v9c-1.32.33-2.64.66-4 1 .99-3.3 1.98-6.6 3-10z" fill="#e8eaed" transform="translate(173 156)"/></svg>