<svg fill="#EBEBEB" xmlns="http://www.w3.org/2000/svg"  viewBox="0 0 24 24" width="24px" height="24px"><path d="M 6.25 2 C 5.01 2 4 3.01 4 4.25 L 4 12.5 L 7.25 12.5 C 7.73 12.5 8.1790625 12.660156 8.5390625 12.910156 C 8.5590625 12.900156 8.5698438 12.890859 8.5898438 12.880859 C 9.0798438 12.540859 9.6795313 12.419063 10.269531 12.539062 C 10.859531 12.659062 11.370938 13 11.710938 13.5 L 12 13.939453 L 12.289062 13.5 C 12.979063 12.47 14.380156 12.190859 15.410156 12.880859 C 15.430156 12.890859 15.440938 12.900156 15.460938 12.910156 C 15.820937 12.660156 16.27 12.5 16.75 12.5 L 20 12.5 L 20 8 L 14.75 8 C 14.34 8 14 7.66 14 7.25 L 14 2 L 6.25 2 z M 15.5 2.0507812 L 15.5 6.5 L 19.949219 6.5 C 19.912219 6.396 19.858297 6.2997031 19.779297 6.2207031 L 15.779297 2.2207031 C 15.700297 2.1417031 15.603 2.0877812 15.5 2.0507812 z M 4.9882812 13.990234 A 0.750075 0.750075 0 0 0 4.8769531 14 L 2.75 14 A 0.750075 0.750075 0 1 0 2.75 15.5 L 4.25 15.5 L 4.25 21.25 A 0.750075 0.750075 0 1 0 5.75 21.25 L 5.75 15.5 L 7.25 15.5 A 0.750075 0.750075 0 1 0 7.25 14 L 5.1230469 14 A 0.750075 0.750075 0 0 0 4.9882812 13.990234 z M 9.8242188 13.990234 A 0.750075 0.750075 0 0 0 9.2089844 15.166016 L 11.097656 18 L 9.2089844 20.833984 A 0.750075 0.750075 0 1 0 10.457031 21.666016 L 12 19.351562 L 13.542969 21.666016 A 0.750075 0.750075 0 1 0 14.791016 20.833984 L 12.902344 18 L 14.791016 15.166016 A 0.750075 0.750075 0 1 0 13.542969 14.333984 L 12 16.648438 L 10.457031 14.333984 A 0.750075 0.750075 0 0 0 9.8242188 13.990234 z M 18.988281 13.990234 A 0.750075 0.750075 0 0 0 18.876953 14 L 16.75 14 A 0.750075 0.750075 0 1 0 16.75 15.5 L 18.25 15.5 L 18.25 21.25 A 0.750075 0.750075 0 1 0 19.75 21.25 L 19.75 15.5 L 21.25 15.5 A 0.750075 0.750075 0 1 0 21.25 14 L 19.123047 14 A 0.750075 0.750075 0 0 0 18.988281 13.990234 z"/></svg>