<svg xmlns="http://www.w3.org/2000/svg" xmlns:xlink="http://www.w3.org/1999/xlink" viewBox="0,0,256,256" width="24px" height="24px" fill-rule="nonzero"><g fill="#0000ff" fill-rule="nonzero" stroke="none" stroke-width="1" stroke-linecap="butt" stroke-linejoin="miter" stroke-miterlimit="10" stroke-dasharray="" stroke-dashoffset="0" font-family="none" font-weight="none" font-size="none" text-anchor="none" style="mix-blend-mode: normal"><g transform="scale(10.66667,10.66667)"><path d="M11.0332,3.2207c-0.07502,-0.00239 -0.15114,0.0022 -0.22851,0.01758l-8,1.60156c-0.468,0.094 -0.80469,0.50347 -0.80469,0.98047v12.35938c0,0.477 0.33669,0.88647 0.80469,0.98047l8,1.60156c0.619,0.124 1.19531,-0.35142 1.19531,-0.98242v-15.55859c0,-0.55212 -0.44167,-0.98324 -0.9668,-1zM14,5v2h5c0.552,0 1,0.448 1,1c0,0.552 -0.448,1 -1,1h-5v2h5c0.552,0 1,0.448 1,1c0,0.552 -0.448,1 -1,1h-5v2h5c0.552,0 1,0.448 1,1c0,0.552 -0.448,1 -1,1h-5v2h7c0.552,0 1,-0.448 1,-1v-12c0,-0.552 -0.448,-1 -1,-1zM4.18555,8.29492c0.37,0 0.68337,0.27267 0.73438,0.63867c0.157,1.139 0.46666,3.42255 0.47266,3.68555h0.02734c0.006,-0.179 0.35727,-2.19711 0.57227,-3.41211c0.094,-0.529 0.55284,-0.91211 1.08984,-0.91211c0.543,0 1.00575,0.39173 1.09375,0.92773c0.192,1.175 0.50058,3.07555 0.51758,3.31055h0.01758c0.006,-0.201 0.3158,-2.51572 0.4668,-3.63672c0.046,-0.345 0.3395,-0.60156 0.6875,-0.60156c0.435,0 0.76555,0.39427 0.68555,0.82227l-1.10937,5.93359c-0.07,0.379 -0.40111,0.6543 -0.78711,0.6543c-0.379,0 -0.7052,-0.26377 -0.7832,-0.63477c-0.262,-1.248 -0.81527,-3.92325 -0.82227,-4.15625h-0.01758c-0.013,0.253 -0.57761,2.88277 -0.84961,4.13477c-0.083,0.384 -0.42341,0.65625 -0.81641,0.65625c-0.402,0 -0.74631,-0.28759 -0.82031,-0.68359l-1.08789,-5.84961c-0.084,-0.455 0.26552,-0.87695 0.72852,-0.87695z"></path></g></g></svg>